G04*
G04 #@! TF.GenerationSoftware,Altium Limited,Altium Designer,20.1.11 (218)*
G04*
G04 Layer_Color=128*
%FSLAX44Y44*%
%MOMM*%
G71*
G04*
G04 #@! TF.SameCoordinates,FB7AA9F9-362F-42BE-8F52-ADE0DE83CFEB*
G04*
G04*
G04 #@! TF.FilePolarity,Positive*
G04*
G01*
G75*
%ADD22C,0.2540*%
%ADD23R,0.2000X0.7000*%
%ADD29R,0.5100X0.6000*%
%ADD34R,0.2000X0.6500*%
%ADD35R,0.7500X0.2000*%
%ADD36R,0.6500X0.2000*%
%ADD37R,0.6000X0.5100*%
%ADD38R,0.8800X0.7100*%
%ADD39R,0.2600X0.2400*%
%ADD40R,0.1000X0.1000*%
G04:AMPARAMS|DCode=41|XSize=0.1mm|YSize=0.235mm|CornerRadius=0mm|HoleSize=0mm|Usage=FLASHONLY|Rotation=135.000|XOffset=0mm|YOffset=0mm|HoleType=Round|Shape=Rectangle|*
%AMROTATEDRECTD41*
4,1,4,0.1184,0.0477,-0.0477,-0.1184,-0.1184,-0.0477,0.0477,0.1184,0.1184,0.0477,0.0*
%
%ADD41ROTATEDRECTD41*%

%ADD42R,0.3900X0.1100*%
%ADD43R,0.2400X0.2600*%
%ADD44P,0.7354X4X180.0*%
G04:AMPARAMS|DCode=45|XSize=0.235mm|YSize=0.1mm|CornerRadius=0mm|HoleSize=0mm|Usage=FLASHONLY|Rotation=135.000|XOffset=0mm|YOffset=0mm|HoleType=Round|Shape=Rectangle|*
%AMROTATEDRECTD45*
4,1,4,0.1184,-0.0477,0.0477,-0.1184,-0.1184,0.0477,-0.0477,0.1184,0.1184,-0.0477,0.0*
%
%ADD45ROTATEDRECTD45*%

%ADD46R,0.2400X0.2600*%
%ADD47R,0.1000X0.1000*%
G04:AMPARAMS|DCode=48|XSize=0.1mm|YSize=0.235mm|CornerRadius=0mm|HoleSize=0mm|Usage=FLASHONLY|Rotation=225.000|XOffset=0mm|YOffset=0mm|HoleType=Round|Shape=Rectangle|*
%AMROTATEDRECTD48*
4,1,4,-0.0477,0.1184,0.1184,-0.0477,0.0477,-0.1184,-0.1184,0.0477,-0.0477,0.1184,0.0*
%
%ADD48ROTATEDRECTD48*%

%ADD49R,0.1100X0.3900*%
%ADD50R,0.2600X0.2400*%
%ADD51P,0.7354X4X270.0*%
G04:AMPARAMS|DCode=52|XSize=0.235mm|YSize=0.1mm|CornerRadius=0mm|HoleSize=0mm|Usage=FLASHONLY|Rotation=225.000|XOffset=0mm|YOffset=0mm|HoleType=Round|Shape=Rectangle|*
%AMROTATEDRECTD52*
4,1,4,0.0477,0.1184,0.1184,0.0477,-0.0477,-0.1184,-0.1184,-0.0477,0.0477,0.1184,0.0*
%
%ADD52ROTATEDRECTD52*%

%ADD102R,0.7366X2.7940*%
G04:AMPARAMS|DCode=103|XSize=2.794mm|YSize=0.7366mm|CornerRadius=0mm|HoleSize=0mm|Usage=FLASHONLY|Rotation=90.000|XOffset=0mm|YOffset=0mm|HoleType=Round|Shape=Octagon|*
%AMOCTAGOND103*
4,1,8,0.1842,1.3970,-0.1842,1.3970,-0.3683,1.2129,-0.3683,-1.2129,-0.1842,-1.3970,0.1842,-1.3970,0.3683,-1.2129,0.3683,1.2129,0.1842,1.3970,0.0*
%
%ADD103OCTAGOND103*%

%ADD104R,1.6500X3.2000*%
D22*
X22860Y254000D02*
G03*
X-10Y231150I-10J-22860D01*
G01*
X10Y22870D02*
G03*
X22860Y0I22860J-10D01*
G01*
X406420Y231150D02*
G03*
X383570Y254020I-22860J10D01*
G01*
X383570Y0D02*
G03*
X406440Y22850I10J22860D01*
G01*
X22860Y254000D02*
X383540Y254000D01*
X406420Y22830D02*
Y231140D01*
X22870Y0D02*
X383540Y0D01*
X0Y22880D02*
Y231120D01*
D23*
X360900Y171600D02*
D03*
Y202400D02*
D03*
X356900Y171600D02*
D03*
Y202400D02*
D03*
X352900Y171600D02*
D03*
Y202400D02*
D03*
X348900Y171600D02*
D03*
Y202400D02*
D03*
X344900Y171600D02*
D03*
Y202400D02*
D03*
X340900Y171600D02*
D03*
Y202400D02*
D03*
X336900Y171600D02*
D03*
Y202400D02*
D03*
X332900Y171600D02*
D03*
Y202400D02*
D03*
X328900Y171600D02*
D03*
Y202400D02*
D03*
X324900Y171600D02*
D03*
Y202400D02*
D03*
X360900Y51600D02*
D03*
Y82400D02*
D03*
X356900Y51600D02*
D03*
Y82400D02*
D03*
X352900Y51600D02*
D03*
Y82400D02*
D03*
X348900Y51600D02*
D03*
Y82400D02*
D03*
X344900Y51600D02*
D03*
Y82400D02*
D03*
X340900Y51600D02*
D03*
Y82400D02*
D03*
X336900Y51600D02*
D03*
Y82400D02*
D03*
X332900Y51600D02*
D03*
Y82400D02*
D03*
X328900Y51600D02*
D03*
Y82400D02*
D03*
X324900Y51600D02*
D03*
Y82400D02*
D03*
D29*
X290500Y62000D02*
D03*
X299500D02*
D03*
X254500Y191000D02*
D03*
X263500D02*
D03*
X42580Y109000D02*
D03*
X33580D02*
D03*
X42580Y89000D02*
D03*
X33580D02*
D03*
X177580Y148000D02*
D03*
X168580D02*
D03*
X121580D02*
D03*
X130580D02*
D03*
X149580Y167000D02*
D03*
X140580D02*
D03*
X177500Y156000D02*
D03*
X168500D02*
D03*
X148580Y134000D02*
D03*
X157580D02*
D03*
X263580Y107000D02*
D03*
X254580D02*
D03*
X263580Y117000D02*
D03*
X254580D02*
D03*
X263580Y127000D02*
D03*
X254580D02*
D03*
X263580Y151000D02*
D03*
X254580D02*
D03*
X263580Y161000D02*
D03*
X254580D02*
D03*
X263580Y171000D02*
D03*
X254580D02*
D03*
X231580Y107000D02*
D03*
X240580D02*
D03*
X231580Y117000D02*
D03*
X240580D02*
D03*
Y127000D02*
D03*
X231580D02*
D03*
X240580Y151000D02*
D03*
X231580D02*
D03*
X240580Y161000D02*
D03*
X231580D02*
D03*
Y171000D02*
D03*
X240580D02*
D03*
X42580Y99000D02*
D03*
X33580D02*
D03*
X254580Y181000D02*
D03*
X263580D02*
D03*
X231580D02*
D03*
X240580D02*
D03*
X290500Y52000D02*
D03*
X299500D02*
D03*
X254580Y97000D02*
D03*
X263580D02*
D03*
X231580D02*
D03*
X240580D02*
D03*
X299500Y102000D02*
D03*
X290500D02*
D03*
X33580Y79000D02*
D03*
X42580D02*
D03*
X254580Y87000D02*
D03*
X263580D02*
D03*
X231580D02*
D03*
X240580D02*
D03*
X290500Y92000D02*
D03*
X299500D02*
D03*
Y82000D02*
D03*
X290500D02*
D03*
X299500Y72000D02*
D03*
X290500D02*
D03*
D34*
X363000Y136750D02*
D03*
X359000D02*
D03*
X355000D02*
D03*
X351000D02*
D03*
Y113250D02*
D03*
X355000D02*
D03*
X359000D02*
D03*
X363000D02*
D03*
X321000Y136750D02*
D03*
X317000D02*
D03*
X313000D02*
D03*
X309000D02*
D03*
Y113250D02*
D03*
X313000D02*
D03*
X317000D02*
D03*
X321000D02*
D03*
D35*
X364250Y131000D02*
D03*
X322250D02*
D03*
D36*
X349250D02*
D03*
Y127000D02*
D03*
Y123000D02*
D03*
Y119000D02*
D03*
X364750D02*
D03*
Y123000D02*
D03*
Y127000D02*
D03*
X307250Y131000D02*
D03*
Y127000D02*
D03*
Y123000D02*
D03*
Y119000D02*
D03*
X322750D02*
D03*
Y123000D02*
D03*
Y127000D02*
D03*
D37*
X375000Y129500D02*
D03*
Y138500D02*
D03*
X108080Y68500D02*
D03*
Y59500D02*
D03*
X118080Y68500D02*
D03*
Y59500D02*
D03*
X128080Y68500D02*
D03*
Y59500D02*
D03*
X152080Y68500D02*
D03*
Y59500D02*
D03*
X162080Y68500D02*
D03*
Y59500D02*
D03*
X172080Y68500D02*
D03*
Y59500D02*
D03*
X158080Y144500D02*
D03*
Y153500D02*
D03*
X148080Y144500D02*
D03*
Y153500D02*
D03*
X139080Y144500D02*
D03*
Y153500D02*
D03*
X118080Y111500D02*
D03*
Y102500D02*
D03*
X110080Y111500D02*
D03*
Y102500D02*
D03*
X102080D02*
D03*
Y111500D02*
D03*
X159080Y174500D02*
D03*
Y165500D02*
D03*
X146460Y196660D02*
D03*
Y187660D02*
D03*
X214080Y59500D02*
D03*
Y50500D02*
D03*
X224080Y59500D02*
D03*
Y50500D02*
D03*
X234080Y59500D02*
D03*
Y50500D02*
D03*
X258080Y59500D02*
D03*
Y50500D02*
D03*
X268080Y59500D02*
D03*
Y50500D02*
D03*
X278080Y59500D02*
D03*
Y50500D02*
D03*
X333000Y132000D02*
D03*
Y141000D02*
D03*
Y119500D02*
D03*
Y110500D02*
D03*
X194080Y59500D02*
D03*
Y50500D02*
D03*
X98080Y59500D02*
D03*
Y68500D02*
D03*
X136460Y196660D02*
D03*
Y187660D02*
D03*
X156460D02*
D03*
Y196660D02*
D03*
X99080Y159500D02*
D03*
Y168500D02*
D03*
X204080Y59500D02*
D03*
Y50500D02*
D03*
X93080Y97500D02*
D03*
Y88500D02*
D03*
X63080Y97500D02*
D03*
Y88500D02*
D03*
X73080Y97500D02*
D03*
Y88500D02*
D03*
X83080Y97500D02*
D03*
Y88500D02*
D03*
X375000Y110500D02*
D03*
Y119500D02*
D03*
D38*
X390000Y134500D02*
D03*
Y149500D02*
D03*
Y175500D02*
D03*
Y160500D02*
D03*
Y187500D02*
D03*
Y202500D02*
D03*
D39*
X143330Y70800D02*
D03*
Y61200D02*
D03*
X136830D02*
D03*
Y70800D02*
D03*
X249330Y58800D02*
D03*
Y49200D02*
D03*
X242830D02*
D03*
Y58800D02*
D03*
D40*
X145080Y71000D02*
D03*
X143780Y69400D02*
D03*
X136380Y62600D02*
D03*
X143780D02*
D03*
X136380Y69400D02*
D03*
X251080Y59000D02*
D03*
X249780Y57400D02*
D03*
X242380Y50600D02*
D03*
X249780D02*
D03*
X242380Y57400D02*
D03*
D41*
X238200Y135870D02*
D03*
X231960Y142130D02*
D03*
X255210Y141930D02*
D03*
X261450Y135670D02*
D03*
D42*
X144130Y70000D02*
D03*
X136030Y62000D02*
D03*
X144130D02*
D03*
X136030Y70000D02*
D03*
X250130Y58000D02*
D03*
X242030Y50000D02*
D03*
X250130D02*
D03*
X242030Y58000D02*
D03*
D43*
X144880Y69250D02*
D03*
X135280Y62750D02*
D03*
X144880D02*
D03*
X135280Y69250D02*
D03*
X250880Y57250D02*
D03*
X241280Y50750D02*
D03*
X250880D02*
D03*
X241280Y57250D02*
D03*
D44*
X235080Y139000D02*
D03*
X258330Y138800D02*
D03*
D45*
X231960Y135870D02*
D03*
X238200Y142130D02*
D03*
X261450Y141930D02*
D03*
X255210Y135670D02*
D03*
D46*
X230280Y135750D02*
D03*
X239880D02*
D03*
Y142250D02*
D03*
X230280D02*
D03*
X253530Y142050D02*
D03*
X263130D02*
D03*
Y135550D02*
D03*
X253530D02*
D03*
D47*
X231680Y135300D02*
D03*
X238480Y142700D02*
D03*
Y135300D02*
D03*
X231680Y142700D02*
D03*
X230080Y144000D02*
D03*
X253330Y143800D02*
D03*
X254930Y142500D02*
D03*
X261730Y135100D02*
D03*
Y142500D02*
D03*
X254930Y135100D02*
D03*
D48*
X143210Y69120D02*
D03*
X136950Y62880D02*
D03*
X249210Y57120D02*
D03*
X242950Y50880D02*
D03*
D49*
X231080Y134950D02*
D03*
X239080Y143050D02*
D03*
Y134950D02*
D03*
X231080Y143050D02*
D03*
X254330Y142850D02*
D03*
X262330Y134750D02*
D03*
Y142850D02*
D03*
X254330Y134750D02*
D03*
D50*
X231830Y134200D02*
D03*
X238330Y143800D02*
D03*
Y134200D02*
D03*
X231830Y143800D02*
D03*
X255080Y143600D02*
D03*
X261580Y134000D02*
D03*
Y143600D02*
D03*
X255080Y134000D02*
D03*
D51*
X140080Y66000D02*
D03*
X246080Y54000D02*
D03*
D52*
X143210Y62880D02*
D03*
X136950Y69120D02*
D03*
X249210Y50880D02*
D03*
X242950Y57120D02*
D03*
D102*
X36680Y195320D02*
D03*
Y154680D02*
D03*
X49380Y195320D02*
D03*
Y154680D02*
D03*
X62080Y195320D02*
D03*
Y154680D02*
D03*
X74780Y195320D02*
D03*
Y154680D02*
D03*
X87480Y195320D02*
D03*
D103*
Y154680D02*
D03*
D104*
X56580Y64000D02*
D03*
X79580D02*
D03*
M02*
