G04*
G04 #@! TF.GenerationSoftware,Altium Limited,Altium Designer,20.1.11 (218)*
G04*
G04 Layer_Color=32768*
%FSLAX44Y44*%
%MOMM*%
G71*
G04*
G04 #@! TF.SameCoordinates,FB7AA9F9-362F-42BE-8F52-ADE0DE83CFEB*
G04*
G04*
G04 #@! TF.FilePolarity,Positive*
G04*
G01*
G75*
%ADD22C,0.2540*%
%ADD114C,0.1524*%
D22*
X-30480Y15240D02*
X-25400Y0D01*
X-20320Y15240D01*
X-25400Y254000D02*
X-20320Y238760D01*
X-30480D02*
X-25400Y254000D01*
Y0D02*
Y75706D01*
Y170166D02*
Y254000D01*
X-27940Y0D02*
X22870D01*
X-27940Y254000D02*
X22860D01*
X0Y292100D02*
X15240Y297180D01*
X0Y292100D02*
X15240Y287020D01*
X391180D02*
X406420Y292100D01*
X391180Y297180D02*
X406420Y292100D01*
X0D02*
X144298D01*
X253994D02*
X406420D01*
X0Y231120D02*
Y294640D01*
X406420Y231140D02*
Y294640D01*
X0Y-25400D02*
X15240Y-20320D01*
X0Y-25400D02*
X15240Y-30480D01*
X391180D02*
X406420Y-25400D01*
X391180Y-20320D02*
X406420Y-25400D01*
X0D02*
X149377D01*
X248915D02*
X406420D01*
X0Y-27940D02*
Y22880D01*
X406420Y-27940D02*
Y22830D01*
X426720Y15240D02*
X431800Y0D01*
X436880Y15240D01*
X431800Y254000D02*
X436880Y238760D01*
X426720D02*
X431800Y254000D01*
Y0D02*
Y73167D01*
Y172705D02*
Y254000D01*
X383540Y0D02*
X434340D01*
X383540Y254000D02*
X434340D01*
X426720Y15240D02*
X431800Y0D01*
X436880Y15240D01*
X431800Y254000D02*
X436880Y238760D01*
X426720D02*
X431800Y254000D01*
Y0D02*
Y73167D01*
Y172705D02*
Y254000D01*
X387350Y0D02*
X434340D01*
X387350Y254000D02*
X434340D01*
X0Y-25400D02*
X15240Y-20320D01*
X0Y-25400D02*
X15240Y-30480D01*
X391180D02*
X406420Y-25400D01*
X391180Y-20320D02*
X406420Y-25400D01*
X0D02*
X149377D01*
X248915D02*
X406420D01*
X0Y-27940D02*
Y19070D01*
X406420Y-27940D02*
Y19020D01*
X22860Y254000D02*
G03*
X-10Y231150I-10J-22860D01*
G01*
X10Y22870D02*
G03*
X22860Y0I22860J-10D01*
G01*
X406420Y231150D02*
G03*
X383570Y254020I-22860J10D01*
G01*
X383570Y0D02*
G03*
X406440Y22850I10J22860D01*
G01*
X22860Y254000D02*
X383540Y254000D01*
X406420Y22830D02*
Y231140D01*
X22870Y0D02*
X383540Y0D01*
X0Y22880D02*
Y231120D01*
D114*
X-13719Y89927D02*
Y79770D01*
X-23876Y89927D01*
X-26415D01*
X-28954Y87388D01*
Y82309D01*
X-26415Y79770D01*
X-28954Y105162D02*
Y95005D01*
X-21337D01*
X-23876Y100083D01*
Y102623D01*
X-21337Y105162D01*
X-16258D01*
X-13719Y102623D01*
Y97544D01*
X-16258Y95005D01*
X-11180Y112779D02*
X-13719Y115318D01*
X-16258D01*
Y112779D01*
X-13719D01*
Y115318D01*
X-11180Y112779D01*
X-8641Y110240D01*
X-13719Y133093D02*
X-28954D01*
X-21337Y125475D01*
Y135632D01*
X-13719Y140710D02*
X-23876D01*
Y143249D01*
X-21337Y145789D01*
X-13719D01*
X-21337D01*
X-23876Y148328D01*
X-21337Y150867D01*
X-13719D01*
Y155945D02*
X-23876D01*
Y158484D01*
X-21337Y161024D01*
X-13719D01*
X-21337D01*
X-23876Y163563D01*
X-21337Y166102D01*
X-13719D01*
X155980Y280419D02*
Y295654D01*
X148362Y288037D01*
X158519D01*
X163598Y293115D02*
X166137Y295654D01*
X171215D01*
X173754Y293115D01*
Y282959D01*
X171215Y280419D01*
X166137D01*
X163598Y282959D01*
Y293115D01*
X181372Y277880D02*
X183911Y280419D01*
Y282959D01*
X181372D01*
Y280419D01*
X183911D01*
X181372Y277880D01*
X178833Y275341D01*
X204224Y295654D02*
X199146Y293115D01*
X194068Y288037D01*
Y282959D01*
X196607Y280419D01*
X201685D01*
X204224Y282959D01*
Y285498D01*
X201685Y288037D01*
X194068D01*
X216920Y280419D02*
Y295654D01*
X209303Y288037D01*
X219459D01*
X224538Y280419D02*
Y290576D01*
X227077D01*
X229616Y288037D01*
Y280419D01*
Y288037D01*
X232155Y290576D01*
X234694Y288037D01*
Y280419D01*
X239773D02*
Y290576D01*
X242312D01*
X244851Y288037D01*
Y280419D01*
Y288037D01*
X247390Y290576D01*
X249930Y288037D01*
Y280419D01*
X153441Y-34541D02*
X158519D01*
X155980D01*
Y-19306D01*
X153441Y-21846D01*
X176293Y-19306D02*
X171215Y-21846D01*
X166137Y-26924D01*
Y-32002D01*
X168676Y-34541D01*
X173754D01*
X176293Y-32002D01*
Y-29463D01*
X173754Y-26924D01*
X166137D01*
X181372Y-21846D02*
X183911Y-19306D01*
X188989D01*
X191528Y-21846D01*
Y-32002D01*
X188989Y-34541D01*
X183911D01*
X181372Y-32002D01*
Y-21846D01*
X196607D02*
X199146Y-19306D01*
X204224D01*
X206763Y-21846D01*
Y-32002D01*
X204224Y-34541D01*
X199146D01*
X196607Y-32002D01*
Y-21846D01*
X211842Y-34541D02*
Y-24385D01*
X214381D01*
X216920Y-26924D01*
Y-34541D01*
Y-26924D01*
X219459Y-24385D01*
X221999Y-26924D01*
Y-34541D01*
X227077D02*
X232155D01*
X229616D01*
Y-24385D01*
X227077D01*
X239773Y-34541D02*
X244851D01*
X242312D01*
Y-19306D01*
X239773D01*
X440942Y77231D02*
Y82309D01*
Y79770D01*
X425706D01*
X428246Y77231D01*
Y89927D02*
X425706Y92466D01*
Y97544D01*
X428246Y100083D01*
X438402D01*
X440942Y97544D01*
Y92466D01*
X438402Y89927D01*
X428246D01*
Y105162D02*
X425706Y107701D01*
Y112779D01*
X428246Y115318D01*
X438402D01*
X440942Y112779D01*
Y107701D01*
X438402Y105162D01*
X428246D01*
Y120397D02*
X425706Y122936D01*
Y128014D01*
X428246Y130554D01*
X438402D01*
X440942Y128014D01*
Y122936D01*
X438402Y120397D01*
X428246D01*
X440942Y135632D02*
X430785D01*
Y138171D01*
X433324Y140710D01*
X440942D01*
X433324D01*
X430785Y143249D01*
X433324Y145789D01*
X440942D01*
Y150867D02*
Y155945D01*
Y153406D01*
X430785D01*
Y150867D01*
X440942Y163563D02*
Y168641D01*
Y166102D01*
X425706D01*
Y163563D01*
X440942Y77231D02*
Y82309D01*
Y79770D01*
X425706D01*
X428246Y77231D01*
Y89927D02*
X425706Y92466D01*
Y97544D01*
X428246Y100083D01*
X438402D01*
X440942Y97544D01*
Y92466D01*
X438402Y89927D01*
X428246D01*
Y105162D02*
X425706Y107701D01*
Y112779D01*
X428246Y115318D01*
X438402D01*
X440942Y112779D01*
Y107701D01*
X438402Y105162D01*
X428246D01*
Y120397D02*
X425706Y122936D01*
Y128014D01*
X428246Y130554D01*
X438402D01*
X440942Y128014D01*
Y122936D01*
X438402Y120397D01*
X428246D01*
X440942Y135632D02*
X430785D01*
Y138171D01*
X433324Y140710D01*
X440942D01*
X433324D01*
X430785Y143249D01*
X433324Y145789D01*
X440942D01*
Y150867D02*
Y155945D01*
Y153406D01*
X430785D01*
Y150867D01*
X440942Y163563D02*
Y168641D01*
Y166102D01*
X425706D01*
Y163563D01*
X153441Y-34541D02*
X158519D01*
X155980D01*
Y-19306D01*
X153441Y-21846D01*
X176293Y-19306D02*
X171215Y-21846D01*
X166137Y-26924D01*
Y-32002D01*
X168676Y-34541D01*
X173754D01*
X176293Y-32002D01*
Y-29463D01*
X173754Y-26924D01*
X166137D01*
X181372Y-21846D02*
X183911Y-19306D01*
X188989D01*
X191528Y-21846D01*
Y-32002D01*
X188989Y-34541D01*
X183911D01*
X181372Y-32002D01*
Y-21846D01*
X196607D02*
X199146Y-19306D01*
X204224D01*
X206763Y-21846D01*
Y-32002D01*
X204224Y-34541D01*
X199146D01*
X196607Y-32002D01*
Y-21846D01*
X211842Y-34541D02*
Y-24385D01*
X214381D01*
X216920Y-26924D01*
Y-34541D01*
Y-26924D01*
X219459Y-24385D01*
X221999Y-26924D01*
Y-34541D01*
X227077D02*
X232155D01*
X229616D01*
Y-24385D01*
X227077D01*
X239773Y-34541D02*
X244851D01*
X242312D01*
Y-19306D01*
X239773D01*
M02*
