G04*
G04 #@! TF.GenerationSoftware,Altium Limited,Altium Designer,20.1.11 (218)*
G04*
G04 Layer_Color=255*
%FSLAX44Y44*%
%MOMM*%
G71*
G04*
G04 #@! TF.SameCoordinates,FB7AA9F9-362F-42BE-8F52-ADE0DE83CFEB*
G04*
G04*
G04 #@! TF.FilePolarity,Positive*
G04*
G01*
G75*
%ADD22C,0.2540*%
%ADD23R,0.2000X0.7000*%
%ADD24R,0.4500X0.4000*%
%ADD25R,0.8500X0.5000*%
%ADD26R,1.6000X1.9000*%
%ADD27R,1.4000X1.6000*%
%ADD28R,1.3500X0.4000*%
%ADD29R,0.5100X0.6000*%
%ADD30C,0.7500*%
%ADD31C,0.3500*%
G04:AMPARAMS|DCode=32|XSize=1.2mm|YSize=1.4mm|CornerRadius=0mm|HoleSize=0mm|Usage=FLASHONLY|Rotation=0.000|XOffset=0mm|YOffset=0mm|HoleType=Round|Shape=Octagon|*
%AMOCTAGOND32*
4,1,8,-0.3000,0.7000,0.3000,0.7000,0.6000,0.4000,0.6000,-0.4000,0.3000,-0.7000,-0.3000,-0.7000,-0.6000,-0.4000,-0.6000,0.4000,-0.3000,0.7000,0.0*
%
%ADD32OCTAGOND32*%

%ADD33R,1.2000X1.4000*%
%ADD34R,0.2000X0.6500*%
%ADD35R,0.7500X0.2000*%
%ADD36R,0.6500X0.2000*%
%ADD37R,0.6000X0.5100*%
%ADD38R,0.8800X0.7100*%
%ADD39R,0.2600X0.2400*%
%ADD40R,0.1000X0.1000*%
G04:AMPARAMS|DCode=41|XSize=0.1mm|YSize=0.235mm|CornerRadius=0mm|HoleSize=0mm|Usage=FLASHONLY|Rotation=135.000|XOffset=0mm|YOffset=0mm|HoleType=Round|Shape=Rectangle|*
%AMROTATEDRECTD41*
4,1,4,0.1184,0.0477,-0.0477,-0.1184,-0.1184,-0.0477,0.0477,0.1184,0.1184,0.0477,0.0*
%
%ADD41ROTATEDRECTD41*%

%ADD42R,0.3900X0.1100*%
%ADD43R,0.2400X0.2600*%
%ADD44P,0.7354X4X180.0*%
G04:AMPARAMS|DCode=45|XSize=0.235mm|YSize=0.1mm|CornerRadius=0mm|HoleSize=0mm|Usage=FLASHONLY|Rotation=135.000|XOffset=0mm|YOffset=0mm|HoleType=Round|Shape=Rectangle|*
%AMROTATEDRECTD45*
4,1,4,0.1184,-0.0477,0.0477,-0.1184,-0.1184,0.0477,-0.0477,0.1184,0.1184,-0.0477,0.0*
%
%ADD45ROTATEDRECTD45*%

%ADD46R,0.2400X0.2600*%
%ADD47R,0.1000X0.1000*%
G04:AMPARAMS|DCode=48|XSize=0.1mm|YSize=0.235mm|CornerRadius=0mm|HoleSize=0mm|Usage=FLASHONLY|Rotation=225.000|XOffset=0mm|YOffset=0mm|HoleType=Round|Shape=Rectangle|*
%AMROTATEDRECTD48*
4,1,4,-0.0477,0.1184,0.1184,-0.0477,0.0477,-0.1184,-0.1184,0.0477,-0.0477,0.1184,0.0*
%
%ADD48ROTATEDRECTD48*%

%ADD49R,0.1100X0.3900*%
%ADD50R,0.2600X0.2400*%
%ADD51P,0.7354X4X270.0*%
G04:AMPARAMS|DCode=52|XSize=0.235mm|YSize=0.1mm|CornerRadius=0mm|HoleSize=0mm|Usage=FLASHONLY|Rotation=225.000|XOffset=0mm|YOffset=0mm|HoleType=Round|Shape=Rectangle|*
%AMROTATEDRECTD52*
4,1,4,0.0477,0.1184,0.1184,0.0477,-0.0477,-0.1184,-0.1184,-0.0477,0.0477,0.1184,0.0*
%
%ADD52ROTATEDRECTD52*%

D22*
X22860Y254000D02*
G03*
X-10Y231150I-10J-22860D01*
G01*
X10Y22870D02*
G03*
X22860Y0I22860J-10D01*
G01*
X406420Y231150D02*
G03*
X383570Y254020I-22860J10D01*
G01*
X383570Y0D02*
G03*
X406440Y22850I10J22860D01*
G01*
X22860Y254000D02*
X383540Y254000D01*
X406420Y22830D02*
Y231140D01*
X22870Y0D02*
X383540Y0D01*
X0Y22880D02*
Y231120D01*
D23*
X360900Y202400D02*
D03*
Y171600D02*
D03*
X356900Y202400D02*
D03*
Y171600D02*
D03*
X352900Y202400D02*
D03*
Y171600D02*
D03*
X348900Y202400D02*
D03*
Y171600D02*
D03*
X344900Y202400D02*
D03*
Y171600D02*
D03*
X340900Y202400D02*
D03*
Y171600D02*
D03*
X336900Y202400D02*
D03*
Y171600D02*
D03*
X332900Y202400D02*
D03*
Y171600D02*
D03*
X328900Y202400D02*
D03*
Y171600D02*
D03*
X324900Y202400D02*
D03*
Y171600D02*
D03*
Y51600D02*
D03*
Y82400D02*
D03*
X328900Y51600D02*
D03*
Y82400D02*
D03*
X332900Y51600D02*
D03*
Y82400D02*
D03*
X336900Y51600D02*
D03*
Y82400D02*
D03*
X340900Y51600D02*
D03*
Y82400D02*
D03*
X344900Y51600D02*
D03*
Y82400D02*
D03*
X348900Y51600D02*
D03*
Y82400D02*
D03*
X352900Y51600D02*
D03*
Y82400D02*
D03*
X356900Y51600D02*
D03*
Y82400D02*
D03*
X360900Y51600D02*
D03*
Y82400D02*
D03*
D24*
X80083Y130419D02*
D03*
X69583Y126419D02*
D03*
Y134419D02*
D03*
D25*
X152830Y57000D02*
D03*
X135330D02*
D03*
X152830Y67000D02*
D03*
X135330D02*
D03*
D26*
X15260Y115000D02*
D03*
Y139000D02*
D03*
D27*
X39760Y95000D02*
D03*
X39760Y159000D02*
D03*
D28*
X42010Y114000D02*
D03*
X42010Y120500D02*
D03*
X42010Y140000D02*
D03*
X42010Y127000D02*
D03*
X42010Y133500D02*
D03*
D29*
X71700Y116840D02*
D03*
X80700D02*
D03*
X63580Y94000D02*
D03*
X72580D02*
D03*
X108500Y59000D02*
D03*
X99500D02*
D03*
X29580Y78000D02*
D03*
X38580D02*
D03*
X114580Y89000D02*
D03*
X123580D02*
D03*
X114580Y80000D02*
D03*
X123580D02*
D03*
X240580Y107000D02*
D03*
X231580D02*
D03*
X240580Y117000D02*
D03*
X231580D02*
D03*
X240580Y127000D02*
D03*
X231580D02*
D03*
X240580Y151000D02*
D03*
X231580D02*
D03*
X240580Y161000D02*
D03*
X231580D02*
D03*
X240580Y171000D02*
D03*
X231580D02*
D03*
X263580Y107000D02*
D03*
X254580D02*
D03*
X263580Y117000D02*
D03*
X254580D02*
D03*
X263580Y127000D02*
D03*
X254580D02*
D03*
X263580Y151000D02*
D03*
X254580D02*
D03*
X263580Y161000D02*
D03*
X254580D02*
D03*
X263580Y171000D02*
D03*
X254580D02*
D03*
X240580Y181000D02*
D03*
X231580D02*
D03*
X263580D02*
D03*
X254580D02*
D03*
X300500Y50000D02*
D03*
X291500D02*
D03*
X240580Y97000D02*
D03*
X231580D02*
D03*
X263580D02*
D03*
X254580D02*
D03*
X71700Y144780D02*
D03*
X80700D02*
D03*
X99500Y69000D02*
D03*
X108500D02*
D03*
X99500Y49000D02*
D03*
X108500D02*
D03*
X291500Y102000D02*
D03*
X300500D02*
D03*
X142580Y89000D02*
D03*
X133580D02*
D03*
Y80000D02*
D03*
X142580D02*
D03*
X231580Y87000D02*
D03*
X240580D02*
D03*
X254580D02*
D03*
X263580D02*
D03*
X291500Y92000D02*
D03*
X300500D02*
D03*
X291500Y82000D02*
D03*
X300500D02*
D03*
X291500Y72000D02*
D03*
X300500D02*
D03*
X291500Y62000D02*
D03*
X300500D02*
D03*
X263580Y191000D02*
D03*
X254580D02*
D03*
D30*
X156080Y208000D02*
D03*
D31*
X108460Y105160D02*
D03*
Y113160D02*
D03*
Y121160D02*
D03*
Y129160D02*
D03*
Y137160D02*
D03*
Y145160D02*
D03*
Y153160D02*
D03*
Y161160D02*
D03*
Y169160D02*
D03*
Y177160D02*
D03*
X116460Y105160D02*
D03*
Y113160D02*
D03*
Y121160D02*
D03*
Y129160D02*
D03*
Y137160D02*
D03*
Y145160D02*
D03*
Y153160D02*
D03*
Y161160D02*
D03*
Y169160D02*
D03*
Y177160D02*
D03*
X124460Y105160D02*
D03*
Y113160D02*
D03*
Y121160D02*
D03*
Y129160D02*
D03*
Y137160D02*
D03*
Y145160D02*
D03*
Y153160D02*
D03*
Y161160D02*
D03*
Y169160D02*
D03*
Y177160D02*
D03*
X132460Y105160D02*
D03*
Y113160D02*
D03*
Y121160D02*
D03*
Y129160D02*
D03*
Y137160D02*
D03*
Y145160D02*
D03*
Y153160D02*
D03*
Y161160D02*
D03*
Y169160D02*
D03*
Y177160D02*
D03*
X140460Y105160D02*
D03*
Y113160D02*
D03*
Y121160D02*
D03*
Y129160D02*
D03*
Y137160D02*
D03*
Y145160D02*
D03*
Y153160D02*
D03*
Y161160D02*
D03*
Y169160D02*
D03*
Y177160D02*
D03*
X148460Y105160D02*
D03*
Y113160D02*
D03*
Y121160D02*
D03*
Y129160D02*
D03*
Y137160D02*
D03*
Y145160D02*
D03*
Y153160D02*
D03*
Y161160D02*
D03*
Y169160D02*
D03*
Y177160D02*
D03*
X156460Y105160D02*
D03*
Y113160D02*
D03*
Y121160D02*
D03*
Y129160D02*
D03*
Y137160D02*
D03*
Y145160D02*
D03*
Y153160D02*
D03*
Y161160D02*
D03*
Y169160D02*
D03*
Y177160D02*
D03*
X164460Y105160D02*
D03*
Y113160D02*
D03*
Y121160D02*
D03*
Y129160D02*
D03*
Y137160D02*
D03*
Y145160D02*
D03*
Y153160D02*
D03*
Y161160D02*
D03*
Y169160D02*
D03*
Y177160D02*
D03*
X172460Y105160D02*
D03*
Y113160D02*
D03*
Y121160D02*
D03*
Y129160D02*
D03*
Y137160D02*
D03*
Y145160D02*
D03*
Y153160D02*
D03*
Y161160D02*
D03*
Y169160D02*
D03*
Y177160D02*
D03*
X180460Y105160D02*
D03*
Y113160D02*
D03*
Y121160D02*
D03*
Y129160D02*
D03*
Y137160D02*
D03*
Y145160D02*
D03*
Y153160D02*
D03*
Y161160D02*
D03*
Y169160D02*
D03*
Y177160D02*
D03*
Y193160D02*
D03*
Y185160D02*
D03*
X172460Y193160D02*
D03*
Y185160D02*
D03*
X164460Y193160D02*
D03*
Y185160D02*
D03*
X156460Y193160D02*
D03*
Y185160D02*
D03*
X148460Y193160D02*
D03*
Y185160D02*
D03*
X140460Y193160D02*
D03*
Y185160D02*
D03*
X132460Y193160D02*
D03*
Y185160D02*
D03*
X124460Y193160D02*
D03*
Y185160D02*
D03*
X116460Y193160D02*
D03*
Y185160D02*
D03*
X108460Y193160D02*
D03*
Y185160D02*
D03*
X188460D02*
D03*
Y193160D02*
D03*
X196460Y185160D02*
D03*
Y193160D02*
D03*
Y177160D02*
D03*
Y169160D02*
D03*
Y161160D02*
D03*
Y153160D02*
D03*
Y145160D02*
D03*
Y137160D02*
D03*
Y129160D02*
D03*
Y121160D02*
D03*
Y113160D02*
D03*
Y105160D02*
D03*
X188460Y177160D02*
D03*
Y169160D02*
D03*
Y161160D02*
D03*
Y153160D02*
D03*
Y145160D02*
D03*
Y137160D02*
D03*
Y129160D02*
D03*
Y121160D02*
D03*
Y113160D02*
D03*
Y105160D02*
D03*
D32*
X64080Y76000D02*
D03*
D33*
X80080D02*
D03*
X64080Y54000D02*
D03*
X80080D02*
D03*
D34*
X321000Y136750D02*
D03*
X317000D02*
D03*
X313000D02*
D03*
X309000D02*
D03*
Y113250D02*
D03*
X313000D02*
D03*
X317000D02*
D03*
X321000D02*
D03*
X363000D02*
D03*
X359000D02*
D03*
X355000D02*
D03*
X351000D02*
D03*
Y136750D02*
D03*
X355000D02*
D03*
X359000D02*
D03*
X363000D02*
D03*
D35*
X322250Y119000D02*
D03*
X364250D02*
D03*
D36*
X322750Y123000D02*
D03*
Y127000D02*
D03*
Y131000D02*
D03*
X307250D02*
D03*
Y127000D02*
D03*
Y123000D02*
D03*
Y119000D02*
D03*
X349250D02*
D03*
Y123000D02*
D03*
Y127000D02*
D03*
Y131000D02*
D03*
X364750D02*
D03*
Y127000D02*
D03*
Y123000D02*
D03*
D37*
X93080Y92500D02*
D03*
Y101500D02*
D03*
X234080Y50500D02*
D03*
Y59500D02*
D03*
X214080Y50500D02*
D03*
Y59500D02*
D03*
X224080Y50500D02*
D03*
Y59500D02*
D03*
X258080Y50500D02*
D03*
Y59500D02*
D03*
X268080Y50500D02*
D03*
Y59500D02*
D03*
X278080Y50500D02*
D03*
Y59500D02*
D03*
X375000Y129500D02*
D03*
Y138500D02*
D03*
X333000Y119500D02*
D03*
Y110500D02*
D03*
X194080Y59500D02*
D03*
Y50500D02*
D03*
X47080Y58500D02*
D03*
Y67500D02*
D03*
X83080Y92500D02*
D03*
Y101500D02*
D03*
X184080Y50500D02*
D03*
Y59500D02*
D03*
X174080Y50500D02*
D03*
Y59500D02*
D03*
X164080Y50500D02*
D03*
Y59500D02*
D03*
X204080D02*
D03*
Y50500D02*
D03*
X333000Y130500D02*
D03*
Y139500D02*
D03*
X375000Y119500D02*
D03*
Y110500D02*
D03*
D38*
X390000Y94500D02*
D03*
Y79500D02*
D03*
Y121500D02*
D03*
Y106500D02*
D03*
Y67500D02*
D03*
Y52500D02*
D03*
D39*
X249330Y49200D02*
D03*
Y58800D02*
D03*
X242830D02*
D03*
Y49200D02*
D03*
D40*
X251080Y49000D02*
D03*
X249780Y50600D02*
D03*
X242380Y57400D02*
D03*
X249780D02*
D03*
X242380Y50600D02*
D03*
D41*
X249210Y50880D02*
D03*
X242950Y57120D02*
D03*
D42*
X250130Y50000D02*
D03*
X242030Y58000D02*
D03*
X250130D02*
D03*
X242030Y50000D02*
D03*
D43*
X250880Y50750D02*
D03*
X241280Y57250D02*
D03*
X250880D02*
D03*
X241280Y50750D02*
D03*
D44*
X246080Y54000D02*
D03*
D45*
X249210Y57120D02*
D03*
X242950Y50880D02*
D03*
D46*
X241880Y142250D02*
D03*
X232280D02*
D03*
Y135750D02*
D03*
X241880D02*
D03*
X264880Y142250D02*
D03*
X255280D02*
D03*
Y135750D02*
D03*
X264880D02*
D03*
D47*
X242080Y144000D02*
D03*
X240480Y142700D02*
D03*
X233680Y135300D02*
D03*
Y142700D02*
D03*
X240480Y135300D02*
D03*
X265080Y144000D02*
D03*
X263480Y142700D02*
D03*
X256680Y135300D02*
D03*
Y142700D02*
D03*
X263480Y135300D02*
D03*
D48*
X240200Y142130D02*
D03*
X233960Y135870D02*
D03*
X263200Y142130D02*
D03*
X256960Y135870D02*
D03*
D49*
X241080Y143050D02*
D03*
X233080Y134950D02*
D03*
Y143050D02*
D03*
X241080Y134950D02*
D03*
X264080Y143050D02*
D03*
X256080Y134950D02*
D03*
Y143050D02*
D03*
X264080Y134950D02*
D03*
D50*
X240330Y143800D02*
D03*
X233830Y134200D02*
D03*
Y143800D02*
D03*
X240330Y134200D02*
D03*
X263330Y143800D02*
D03*
X256830Y134200D02*
D03*
Y143800D02*
D03*
X263330Y134200D02*
D03*
D51*
X237080Y139000D02*
D03*
X260080D02*
D03*
D52*
X233960Y142130D02*
D03*
X240200Y135870D02*
D03*
X256960Y142130D02*
D03*
X263200Y135870D02*
D03*
M02*
