G04*
G04 #@! TF.GenerationSoftware,Altium Limited,Altium Designer,20.1.11 (218)*
G04*
G04 Layer_Color=32896*
%FSLAX44Y44*%
%MOMM*%
G71*
G04*
G04 #@! TF.SameCoordinates,FB7AA9F9-362F-42BE-8F52-ADE0DE83CFEB*
G04*
G04*
G04 #@! TF.FilePolarity,Positive*
G04*
G01*
G75*
%ADD11C,0.1000*%
%ADD22C,0.2540*%
G36*
X77244Y56294D02*
X76635D01*
X76525Y56483D01*
X76395Y56663D01*
X76255Y56843D01*
X76126Y56993D01*
X75996Y57132D01*
X75896Y57232D01*
X75856Y57272D01*
X75826Y57302D01*
X75806Y57312D01*
X75796Y57322D01*
X75567Y57512D01*
X75337Y57681D01*
X75097Y57841D01*
X74888Y57971D01*
X74698Y58071D01*
X74618Y58120D01*
X74549Y58150D01*
X74499Y58180D01*
X74459Y58200D01*
X74429Y58220D01*
X74419D01*
Y59139D01*
X74588Y59069D01*
X74758Y58989D01*
X74928Y58909D01*
X75078Y58829D01*
X75207Y58759D01*
X75317Y58699D01*
X75357Y58679D01*
X75387Y58660D01*
X75397Y58650D01*
X75407D01*
X75607Y58530D01*
X75776Y58410D01*
X75936Y58300D01*
X76066Y58200D01*
X76166Y58120D01*
X76245Y58051D01*
X76285Y58011D01*
X76305Y58001D01*
Y64000D01*
X77244D01*
Y56294D01*
D02*
G37*
G36*
X72871Y63092D02*
X69098D01*
Y56324D01*
X68080D01*
Y64000D01*
X72871D01*
Y63092D01*
D02*
G37*
D11*
X760Y67000D02*
Y187000D01*
D22*
X22860Y254000D02*
G03*
X-10Y231150I-10J-22860D01*
G01*
X10Y22870D02*
G03*
X22860Y0I22860J-10D01*
G01*
X406420Y231150D02*
G03*
X383570Y254020I-22860J10D01*
G01*
X383570Y0D02*
G03*
X406440Y22850I10J22860D01*
G01*
X22860Y254000D02*
X383540Y254000D01*
X406420Y22830D02*
Y231140D01*
X22870Y0D02*
X383540Y0D01*
X0Y22880D02*
Y231120D01*
M02*
