G04*
G04 #@! TF.GenerationSoftware,Altium Limited,Altium Designer,20.1.11 (218)*
G04*
G04 Layer_Physical_Order=4*
G04 Layer_Color=16440176*
%FSLAX44Y44*%
%MOMM*%
G71*
G04*
G04 #@! TF.SameCoordinates,FB7AA9F9-362F-42BE-8F52-ADE0DE83CFEB*
G04*
G04*
G04 #@! TF.FilePolarity,Positive*
G04*
G01*
G75*
%ADD10C,0.2500*%
%ADD11C,0.1000*%
%ADD12C,0.2000*%
%ADD13C,0.1500*%
%ADD16C,0.1200*%
%ADD19C,0.4000*%
%ADD22C,0.2540*%
%ADD83C,0.3000*%
%ADD90C,1.5000*%
%ADD93C,0.6000*%
%ADD94C,0.4800*%
G36*
X380636Y248958D02*
X379851Y248719D01*
X377036Y247215D01*
X374570Y245191D01*
X372545Y242724D01*
X371041Y239909D01*
X370114Y236856D01*
X369802Y233680D01*
X370114Y230504D01*
X371041Y227451D01*
X372545Y224636D01*
X374570Y222169D01*
X377036Y220145D01*
X379851Y218641D01*
X382904Y217714D01*
X386080Y217402D01*
X389256Y217714D01*
X392309Y218641D01*
X395124Y220145D01*
X397590Y222169D01*
X399615Y224636D01*
X401119Y227451D01*
X401357Y228236D01*
X402627Y228048D01*
Y160186D01*
X401357Y159460D01*
X400300Y159670D01*
X398895Y159391D01*
X397867Y158704D01*
X397855Y158700D01*
X397784Y158687D01*
X397749Y158665D01*
X397732Y158659D01*
X397723Y158651D01*
X397696Y158640D01*
X397624Y158620D01*
X397519Y158598D01*
X397397Y158581D01*
X397014Y158552D01*
X396790Y158549D01*
X396673Y158498D01*
X393327D01*
X392042Y159783D01*
X392411Y160998D01*
X392639Y161044D01*
X393500Y161619D01*
X394361Y161044D01*
X396000Y160718D01*
X397639Y161044D01*
X399028Y161972D01*
X399956Y163361D01*
X400282Y165000D01*
X399956Y166639D01*
X399028Y168028D01*
X397639Y168956D01*
X396000Y169282D01*
X394822Y169048D01*
X394609Y169295D01*
X394192Y170217D01*
X394935Y171329D01*
X395361Y171044D01*
X397000Y170718D01*
X398639Y171044D01*
X400028Y171972D01*
X400956Y173361D01*
X401282Y175000D01*
X400956Y176639D01*
X400028Y178028D01*
X398639Y178956D01*
X397000Y179282D01*
X395361Y178956D01*
X393972Y178028D01*
X393065Y176671D01*
X392639Y176956D01*
X391000Y177282D01*
X389361Y176956D01*
X389043Y176744D01*
X387858Y176406D01*
X387316Y177216D01*
X367926Y196607D01*
X368344Y197985D01*
X368639Y198044D01*
X370028Y198972D01*
X370956Y200361D01*
X371282Y202000D01*
X370956Y203639D01*
X370028Y205028D01*
X368639Y205956D01*
X367000Y206282D01*
X365361Y205956D01*
X363972Y205028D01*
X363044Y203639D01*
X362985Y203344D01*
X362253Y202997D01*
X361598Y202879D01*
X360956Y203308D01*
X360000Y203498D01*
X327000D01*
X326044Y203308D01*
X325234Y202766D01*
X324481Y202014D01*
X323181Y202510D01*
X322956Y203639D01*
X322028Y205028D01*
X320639Y205956D01*
X319000Y206282D01*
X317361Y205956D01*
X316668Y205493D01*
X316429Y205477D01*
X315110Y205835D01*
X315093Y205851D01*
X314596Y206595D01*
X313405Y207391D01*
X312000Y207670D01*
X310595Y207391D01*
X309405Y206595D01*
X308609Y205405D01*
X308329Y204000D01*
X308609Y202595D01*
X309405Y201404D01*
X310595Y200609D01*
X312000Y200329D01*
X313405Y200609D01*
X313665Y200783D01*
X315044Y200361D01*
X315972Y198972D01*
X317361Y198044D01*
X318490Y197819D01*
X318986Y196519D01*
X309465Y186998D01*
X293401D01*
X293295Y187048D01*
X292752Y187072D01*
X292559Y187096D01*
X292367Y187130D01*
X292191Y187173D01*
X292031Y187222D01*
X291885Y187278D01*
X291754Y187340D01*
X291634Y187407D01*
X291483Y187508D01*
X291235Y187557D01*
X290638Y187956D01*
X288999Y188282D01*
X287361Y187956D01*
X285971Y187028D01*
X285043Y185638D01*
X284717Y184000D01*
X284928Y182942D01*
X283998Y181852D01*
X283969Y181838D01*
X278219D01*
X277620Y182958D01*
X277756Y183161D01*
X278082Y184800D01*
X277756Y186438D01*
X276828Y187828D01*
X276604Y187977D01*
X276990Y189247D01*
X278985D01*
X280039Y189456D01*
X280932Y190053D01*
X288193Y197314D01*
X288193Y197314D01*
X288790Y198207D01*
X288999Y199261D01*
Y222910D01*
X290269Y223341D01*
X290995Y222395D01*
X292812Y221001D01*
X294929Y220124D01*
X297200Y219825D01*
X299471Y220124D01*
X301588Y221001D01*
X303405Y222395D01*
X304799Y224212D01*
X305676Y226329D01*
X305975Y228600D01*
X305676Y230871D01*
X304799Y232987D01*
X303405Y234805D01*
X301588Y236199D01*
X299471Y237076D01*
X297200Y237375D01*
X294929Y237076D01*
X292812Y236199D01*
X292429Y235905D01*
X291276Y236622D01*
X291480Y237646D01*
X291154Y239285D01*
X290226Y240674D01*
X288837Y241602D01*
X287198Y241928D01*
X285559Y241602D01*
X284170Y240674D01*
X283242Y239285D01*
X282916Y237646D01*
X283242Y236007D01*
X283329Y235876D01*
X283329Y235862D01*
X283324Y235809D01*
X283330Y235790D01*
X283330Y235776D01*
X283344Y235742D01*
X283347Y235732D01*
X283362Y235663D01*
X283375Y235585D01*
X283446Y234407D01*
X283447Y234108D01*
X283493Y233999D01*
Y204417D01*
X282223Y204293D01*
X282103Y204896D01*
X281956Y205638D01*
X281028Y207028D01*
X279638Y207956D01*
X277999Y208282D01*
X276361Y207956D01*
X274971Y207028D01*
X274763Y206716D01*
X273236D01*
X273027Y207028D01*
X271638Y207956D01*
X270000Y208282D01*
X268361Y207956D01*
X266971Y207028D01*
X266043Y205638D01*
X265717Y204000D01*
X266043Y202361D01*
X266971Y200972D01*
X268361Y200043D01*
X270000Y199717D01*
X271638Y200043D01*
X273027Y200972D01*
X273236Y201283D01*
X274763D01*
X274971Y200972D01*
X276361Y200043D01*
X277999Y199717D01*
X279638Y200043D01*
X281028Y200972D01*
X281956Y202361D01*
X282223Y203707D01*
X283493Y203582D01*
Y200401D01*
X277845Y194753D01*
X275545D01*
X275448Y194797D01*
X274868Y194820D01*
X274668Y194841D01*
X274485Y194871D01*
X274336Y194905D01*
X274220Y194941D01*
X274138Y194974D01*
X274089Y194999D01*
X274070Y195013D01*
X274004Y195071D01*
X273918Y195101D01*
X272638Y195956D01*
X271000Y196282D01*
X269361Y195956D01*
X267971Y195028D01*
X267043Y193638D01*
X266717Y192000D01*
X267043Y190361D01*
X267971Y188972D01*
X269361Y188043D01*
X269612Y187993D01*
X270098Y186820D01*
X269843Y186438D01*
X269576Y185097D01*
X268729Y184670D01*
X268281Y184596D01*
X262049Y190828D01*
Y195060D01*
X261898Y195821D01*
X261467Y196466D01*
X239527Y218406D01*
X238882Y218837D01*
X238121Y218988D01*
X223848D01*
X223595Y220258D01*
X225387Y221001D01*
X227205Y222395D01*
X228599Y224212D01*
X229476Y226329D01*
X229775Y228600D01*
X229476Y230871D01*
X228599Y232987D01*
X227205Y234805D01*
X225387Y236199D01*
X223271Y237076D01*
X221000Y237375D01*
X218729Y237076D01*
X216612Y236199D01*
X214795Y234805D01*
X213401Y232987D01*
X212524Y230871D01*
X212225Y228600D01*
X212524Y226329D01*
X213401Y224212D01*
X214795Y222395D01*
X216612Y221001D01*
X218405Y220258D01*
X218152Y218988D01*
X198448D01*
X198195Y220258D01*
X199988Y221001D01*
X201805Y222395D01*
X203199Y224212D01*
X204076Y226329D01*
X204375Y228600D01*
X204076Y230871D01*
X203199Y232987D01*
X201805Y234805D01*
X199988Y236199D01*
X197871Y237076D01*
X195600Y237375D01*
X193329Y237076D01*
X191213Y236199D01*
X189395Y234805D01*
X188001Y232987D01*
X187124Y230871D01*
X186825Y228600D01*
X187124Y226329D01*
X188001Y224212D01*
X189395Y222395D01*
X191213Y221001D01*
X193005Y220258D01*
X192752Y218988D01*
X173048D01*
X172795Y220258D01*
X174587Y221001D01*
X176405Y222395D01*
X177799Y224212D01*
X178676Y226329D01*
X178975Y228600D01*
X178676Y230871D01*
X178122Y232209D01*
X179000Y233330D01*
X180405Y233609D01*
X181595Y234405D01*
X182391Y235595D01*
X182670Y237000D01*
X182391Y238405D01*
X181595Y239596D01*
X180405Y240391D01*
X179000Y240671D01*
X177595Y240391D01*
X176404Y239596D01*
X175609Y238405D01*
X175369Y237200D01*
X175215Y237003D01*
X174849Y236744D01*
X174158Y236377D01*
X172471Y237076D01*
X170200Y237375D01*
X167929Y237076D01*
X165812Y236199D01*
X163995Y234805D01*
X162601Y232987D01*
X161724Y230871D01*
X161425Y228600D01*
X161724Y226329D01*
X162601Y224212D01*
X163995Y222395D01*
X165812Y221001D01*
X167605Y220258D01*
X167352Y218988D01*
X156903D01*
X156775Y219048D01*
X156615Y219055D01*
X156514Y219068D01*
X156416Y219089D01*
X156318Y219121D01*
X156217Y219162D01*
X156112Y219216D01*
X156002Y219284D01*
X155887Y219368D01*
X155766Y219470D01*
X155612Y219617D01*
X155491Y219665D01*
X154404Y220391D01*
X153000Y220670D01*
X151595Y220391D01*
X150404Y219595D01*
X149609Y218404D01*
X149329Y217000D01*
X149609Y215595D01*
X150404Y214404D01*
X151595Y213608D01*
X152639Y213401D01*
X153236Y212479D01*
X153341Y212102D01*
X153273Y211988D01*
X144000D01*
X144000Y211988D01*
X143874Y211963D01*
X143132Y211986D01*
X142498Y212869D01*
X142391Y213405D01*
X141595Y214596D01*
X140405Y215391D01*
X139000Y215671D01*
X137595Y215391D01*
X136405Y214596D01*
X135609Y213405D01*
X135330Y212000D01*
X135609Y210595D01*
X136405Y209405D01*
X137595Y208609D01*
X138260Y208477D01*
X138289Y208457D01*
X138602Y208043D01*
X138739Y207372D01*
X137840Y206413D01*
X137451Y206451D01*
X136326Y207202D01*
X135000Y207466D01*
X133673Y207202D01*
X132549Y206451D01*
X131452D01*
X131451Y206451D01*
X130327Y207203D01*
X129000Y207467D01*
X127673Y207203D01*
X126549Y206451D01*
X126199Y205928D01*
X125946Y205943D01*
X124927Y206310D01*
X124837Y206761D01*
X124406Y207406D01*
X120406Y211406D01*
X119761Y211837D01*
X119000Y211988D01*
X87000D01*
X86239Y211837D01*
X85594Y211406D01*
X76924Y202736D01*
X76493Y202091D01*
X76342Y201330D01*
Y198561D01*
X75072Y197883D01*
X74104Y198529D01*
X71880Y198972D01*
X69656Y198529D01*
X67771Y197269D01*
X66511Y195384D01*
X66068Y193160D01*
X66511Y190936D01*
X67771Y189051D01*
X69656Y187791D01*
X71880Y187348D01*
X74104Y187791D01*
X75072Y188437D01*
X76342Y187759D01*
Y181154D01*
X73594Y178406D01*
X73163Y177761D01*
X73012Y177000D01*
Y144642D01*
X63894Y135524D01*
X63463Y134879D01*
X63312Y134118D01*
Y41123D01*
X59513Y37324D01*
X58135Y37742D01*
X57956Y38639D01*
X57028Y40028D01*
X55639Y40956D01*
X54000Y41282D01*
X52361Y40956D01*
X50972Y40028D01*
X50044Y38639D01*
X49718Y37000D01*
X50044Y35361D01*
X50972Y33972D01*
X52361Y33044D01*
X53258Y32865D01*
X53676Y31487D01*
X53594Y31406D01*
X53163Y30761D01*
X53012Y30000D01*
Y27255D01*
X51742Y27172D01*
X51676Y27671D01*
X50799Y29787D01*
X49405Y31605D01*
X47587Y32999D01*
X45471Y33876D01*
X43200Y34175D01*
X40929Y33876D01*
X38812Y32999D01*
X36995Y31605D01*
X35601Y29787D01*
X34724Y27671D01*
X34425Y25400D01*
X34724Y23129D01*
X35601Y21012D01*
X36995Y19195D01*
X38812Y17801D01*
X40929Y16924D01*
X43200Y16625D01*
X45471Y16924D01*
X47587Y17801D01*
X49405Y19195D01*
X50799Y21012D01*
X51676Y23129D01*
X51742Y23628D01*
X53012Y23545D01*
Y17853D01*
X52929Y17824D01*
X52795Y17704D01*
X52699Y17634D01*
X52583Y17568D01*
X52445Y17504D01*
X52281Y17446D01*
X52090Y17395D01*
X51889Y17356D01*
X51328Y17303D01*
X51012Y17299D01*
X50951Y17273D01*
X49361Y16956D01*
X47972Y16028D01*
X47044Y14639D01*
X46718Y13000D01*
X47044Y11361D01*
X47972Y9972D01*
X49361Y9044D01*
X51000Y8718D01*
X52639Y9044D01*
X54028Y9972D01*
X54956Y11361D01*
X55273Y12951D01*
X55299Y13012D01*
X55303Y13346D01*
X55322Y13622D01*
X55353Y13870D01*
X55395Y14089D01*
X55446Y14281D01*
X55504Y14445D01*
X55568Y14583D01*
X55634Y14699D01*
X55704Y14795D01*
X55824Y14929D01*
X55869Y15057D01*
X56406Y15594D01*
X56837Y16239D01*
X56988Y17000D01*
Y29176D01*
X66706Y38894D01*
X66706Y38894D01*
X67137Y39539D01*
X67288Y40300D01*
X67288Y40300D01*
Y133295D01*
X76406Y142413D01*
X76837Y143057D01*
X76988Y143818D01*
Y176176D01*
X79736Y178924D01*
X80167Y179569D01*
X80318Y180330D01*
X80318Y180330D01*
Y193787D01*
X81588Y194172D01*
X81722Y193972D01*
X83111Y193044D01*
X84750Y192718D01*
X86389Y193044D01*
X87778Y193972D01*
X88706Y195361D01*
X89032Y197000D01*
X88706Y198639D01*
X87778Y200028D01*
X86389Y200956D01*
X84750Y201282D01*
X83111Y200956D01*
X82593Y200610D01*
X81144Y201169D01*
X81111Y201300D01*
X87823Y208012D01*
X118176D01*
X121216Y204972D01*
Y204867D01*
X121169Y204766D01*
X121161Y204596D01*
X121146Y204477D01*
X121120Y204361D01*
X121083Y204244D01*
X121035Y204127D01*
X120972Y204006D01*
X120896Y203882D01*
X120802Y203754D01*
X120691Y203622D01*
X120539Y203463D01*
X120514Y203399D01*
X119797Y202327D01*
X119533Y201000D01*
X119797Y199673D01*
X120549Y198549D01*
X121673Y197797D01*
X123000Y197533D01*
X124327Y197797D01*
X125451Y198549D01*
X126203Y199673D01*
X126304Y200185D01*
X127673Y200797D01*
X129000Y200533D01*
X130327Y200797D01*
X131451Y201549D01*
X132548D01*
X132549Y201548D01*
X133673Y200797D01*
X135000Y200533D01*
X136326Y200797D01*
X137451Y201548D01*
X138006Y202379D01*
X139148Y202852D01*
X139414Y203118D01*
X140792Y202700D01*
X140797Y202673D01*
X141549Y201548D01*
X142673Y200797D01*
X144000Y200533D01*
X145326Y200797D01*
X146384Y201504D01*
X146454Y201530D01*
X146878Y201927D01*
X147041Y202059D01*
X147201Y202173D01*
X147345Y202262D01*
X147471Y202328D01*
X147579Y202372D01*
X147591Y202376D01*
X157000D01*
X158148Y202852D01*
X159994Y204698D01*
X160457Y204658D01*
X161459Y203346D01*
X161433Y203215D01*
X161697Y201888D01*
X162448Y200764D01*
X163573Y200012D01*
X164697Y199789D01*
X165055Y199153D01*
X165221Y198517D01*
X157327Y190624D01*
X121672D01*
X115624Y196672D01*
Y198409D01*
X115627Y198421D01*
X115671Y198528D01*
X115737Y198655D01*
X115826Y198799D01*
X115932Y198947D01*
X116256Y199327D01*
X116453Y199529D01*
X116477Y199587D01*
X117203Y200673D01*
X117467Y202000D01*
X117203Y203327D01*
X116451Y204451D01*
X115327Y205203D01*
X114000Y205467D01*
X112673Y205203D01*
X111549Y204451D01*
X110797Y203327D01*
X110533Y202000D01*
X110797Y200673D01*
X111504Y199616D01*
X111530Y199546D01*
X111928Y199122D01*
X112060Y198958D01*
X112174Y198799D01*
X112263Y198655D01*
X112329Y198528D01*
X112373Y198421D01*
X112376Y198409D01*
Y196000D01*
X112852Y194852D01*
X119852Y187852D01*
X121000Y187376D01*
X158000D01*
X159148Y187852D01*
X171798Y200502D01*
X173176Y200084D01*
X173257Y199673D01*
X174009Y198549D01*
X175133Y197797D01*
X176460Y197533D01*
X177563Y197753D01*
X177747Y197691D01*
X178293Y197321D01*
X178736Y196905D01*
Y185139D01*
X177466Y184426D01*
X176460Y184627D01*
X175133Y184363D01*
X174009Y183611D01*
X173257Y182487D01*
X172993Y181160D01*
X173257Y179833D01*
X174009Y178709D01*
X175133Y177957D01*
X175887Y177807D01*
Y176513D01*
X175133Y176363D01*
X174009Y175611D01*
X173257Y174487D01*
X173107Y173733D01*
X171813D01*
X171663Y174487D01*
X170911Y175611D01*
X169787Y176363D01*
X169205Y176478D01*
Y177773D01*
X169327Y177797D01*
X170451Y178549D01*
X171203Y179673D01*
X171467Y181000D01*
X171203Y182327D01*
X170451Y183451D01*
X169327Y184203D01*
X168000Y184467D01*
X166673Y184203D01*
X165549Y183451D01*
X165261Y183020D01*
X163739Y183020D01*
X163451Y183451D01*
X162326Y184202D01*
X161000Y184466D01*
X159673Y184202D01*
X158548Y183451D01*
X157797Y182326D01*
X157752Y182099D01*
X156457D01*
X156380Y182487D01*
X155628Y183611D01*
X154503Y184363D01*
X153177Y184627D01*
X151850Y184363D01*
X150726Y183611D01*
X149974Y182487D01*
X149710Y181160D01*
X149974Y179833D01*
X150726Y178709D01*
X151850Y177957D01*
X153177Y177693D01*
X154503Y177957D01*
X155628Y178709D01*
X156380Y179833D01*
X156425Y180061D01*
X157720D01*
X157797Y179673D01*
X158548Y178548D01*
X159673Y177797D01*
X161000Y177533D01*
X162326Y177797D01*
X163451Y178548D01*
X163739Y178979D01*
X165261Y178980D01*
X165549Y178549D01*
X166673Y177797D01*
X167255Y177682D01*
Y176387D01*
X167133Y176363D01*
X166009Y175611D01*
X165257Y174487D01*
X164993Y173160D01*
X165257Y171833D01*
X166009Y170709D01*
X167133Y169957D01*
X167887Y169807D01*
Y168512D01*
X167133Y168363D01*
X166009Y167611D01*
X165257Y166487D01*
X165126Y165829D01*
X165119Y165824D01*
X163771Y165525D01*
X159088Y170208D01*
X157940Y170684D01*
X125232D01*
X124147Y171769D01*
X124142Y171779D01*
X124097Y171887D01*
X124054Y172023D01*
X124015Y172188D01*
X123985Y172367D01*
X123945Y172865D01*
X123942Y173147D01*
X123918Y173205D01*
X123663Y174487D01*
X122911Y175611D01*
X121787Y176363D01*
X120460Y176627D01*
X119133Y176363D01*
X118009Y175611D01*
X117257Y174487D01*
X116993Y173160D01*
X117257Y171833D01*
X118009Y170709D01*
X119133Y169957D01*
X120381Y169709D01*
X120449Y169678D01*
X121030Y169660D01*
X121238Y169637D01*
X121432Y169605D01*
X121597Y169566D01*
X121733Y169523D01*
X121840Y169478D01*
X121851Y169473D01*
X123412Y167912D01*
X124407Y167500D01*
X124706Y167143D01*
X125194Y166166D01*
X124993Y165160D01*
X125194Y164154D01*
X124706Y163177D01*
X124407Y162820D01*
X123412Y162408D01*
X121851Y160847D01*
X121840Y160842D01*
X121733Y160797D01*
X121597Y160754D01*
X121432Y160715D01*
X121253Y160685D01*
X120755Y160645D01*
X120473Y160642D01*
X120415Y160618D01*
X119133Y160363D01*
X118009Y159611D01*
X117257Y158487D01*
X116993Y157160D01*
X117196Y156144D01*
X116487Y154874D01*
X111216D01*
X110794Y155469D01*
X110593Y156047D01*
X114148Y159602D01*
X114624Y160750D01*
Y161569D01*
X114627Y161581D01*
X114671Y161688D01*
X114737Y161815D01*
X114826Y161959D01*
X114932Y162107D01*
X115256Y162487D01*
X115453Y162689D01*
X115477Y162747D01*
X116203Y163833D01*
X116467Y165160D01*
X116203Y166487D01*
X115451Y167611D01*
X114327Y168363D01*
X113475Y168532D01*
X113356Y169549D01*
X113395Y169843D01*
X114451Y170549D01*
X115203Y171673D01*
X115467Y173000D01*
X115203Y174327D01*
X114451Y175451D01*
X113327Y176203D01*
X112000Y176467D01*
X110673Y176203D01*
X110574Y176136D01*
X110482Y176133D01*
X110281Y176043D01*
X110142Y175993D01*
X110030Y175966D01*
X109946Y175955D01*
X109888Y175955D01*
X109851Y175960D01*
X107763Y178048D01*
X106615Y178523D01*
X103384D01*
X102236Y178048D01*
X98812Y174624D01*
X96160D01*
X95841Y174837D01*
X95080Y174988D01*
X92596D01*
X92070Y176258D01*
X96486Y180674D01*
X96917Y181319D01*
X96921Y181340D01*
X97826Y182283D01*
X97876Y182409D01*
X98028Y182445D01*
X98207Y182475D01*
X98705Y182515D01*
X98987Y182518D01*
X99045Y182542D01*
X100327Y182797D01*
X101451Y183549D01*
X102203Y184673D01*
X102467Y186000D01*
X102203Y187327D01*
X101451Y188451D01*
X100327Y189203D01*
X99000Y189467D01*
X97673Y189203D01*
X96549Y188451D01*
X95797Y187327D01*
X95549Y186079D01*
X95518Y186011D01*
X95500Y185430D01*
X95477Y185222D01*
X95445Y185028D01*
X95408Y184871D01*
X95272Y184816D01*
X94384Y183943D01*
X94365Y183926D01*
X94319Y183917D01*
X93674Y183486D01*
X79594Y169406D01*
X79163Y168761D01*
X79012Y168000D01*
Y129592D01*
X69594Y120174D01*
X69163Y119529D01*
X69012Y118768D01*
Y51000D01*
X69163Y50239D01*
X69594Y49594D01*
X77012Y42176D01*
Y30815D01*
X75742Y30384D01*
X74805Y31605D01*
X72987Y32999D01*
X70871Y33876D01*
X68600Y34175D01*
X66329Y33876D01*
X64212Y32999D01*
X62395Y31605D01*
X61001Y29787D01*
X60124Y27671D01*
X59825Y25400D01*
X60124Y23129D01*
X61001Y21012D01*
X62395Y19195D01*
X64212Y17801D01*
X66329Y16924D01*
X68600Y16625D01*
X70871Y16924D01*
X72987Y17801D01*
X73745Y18382D01*
X74050Y18377D01*
X75302Y17975D01*
X75972Y16972D01*
X77361Y16044D01*
X79000Y15718D01*
X80639Y16044D01*
X80892Y16213D01*
X82012Y15614D01*
Y15000D01*
X82163Y14239D01*
X82594Y13594D01*
X90594Y5594D01*
X91239Y5163D01*
X91846Y5042D01*
X91721Y3772D01*
X21628D01*
X9970Y15430D01*
X10496Y16700D01*
X26500D01*
Y34100D01*
X9100D01*
Y18096D01*
X7830Y17570D01*
X4852Y20547D01*
Y92999D01*
X6122Y93124D01*
X6391Y91776D01*
X7650Y89890D01*
X9536Y88631D01*
X11760Y88188D01*
X18760D01*
X20984Y88631D01*
X22869Y89890D01*
X24129Y91776D01*
X24572Y94000D01*
X24129Y96224D01*
X22869Y98109D01*
X20984Y99369D01*
X18760Y99812D01*
X11760D01*
X9536Y99369D01*
X7650Y98109D01*
X6391Y96224D01*
X6122Y94876D01*
X4852Y95001D01*
Y159000D01*
X6122Y159125D01*
X6391Y157776D01*
X7651Y155891D01*
X9536Y154631D01*
X11760Y154188D01*
X18760D01*
X20984Y154631D01*
X22870Y155891D01*
X24129Y157776D01*
X24572Y160000D01*
X24129Y162224D01*
X22870Y164109D01*
X20984Y165369D01*
X18760Y165812D01*
X11760D01*
X9536Y165369D01*
X7651Y164109D01*
X6391Y162224D01*
X6122Y160875D01*
X4852Y161000D01*
Y233452D01*
X7830Y236430D01*
X9100Y235904D01*
Y219900D01*
X26500D01*
Y237300D01*
X10496D01*
X9970Y238570D01*
X21628Y250228D01*
X165562Y250228D01*
X165947Y248958D01*
X165404Y248595D01*
X164608Y247404D01*
X164329Y246000D01*
X164608Y244595D01*
X165404Y243404D01*
X166595Y242608D01*
X168000Y242329D01*
X169404Y242608D01*
X170595Y243404D01*
X171391Y244595D01*
X171670Y246000D01*
X171391Y247404D01*
X170595Y248595D01*
X170053Y248958D01*
X170438Y250228D01*
X341561Y250228D01*
X341946Y248958D01*
X341404Y248595D01*
X340608Y247404D01*
X340329Y246000D01*
X340608Y244595D01*
X341404Y243404D01*
X342595Y242608D01*
X343999Y242329D01*
X345404Y242608D01*
X346595Y243404D01*
X347390Y244595D01*
X347670Y246000D01*
X347390Y247404D01*
X346595Y248595D01*
X346052Y248958D01*
X346437Y250228D01*
X380448D01*
X380636Y248958D01*
D02*
G37*
G36*
X288510Y234948D02*
X288365Y234861D01*
X288235Y234747D01*
X288120Y234607D01*
X288021Y234442D01*
X287937Y234249D01*
X287868Y234031D01*
X287815Y233787D01*
X287777Y233516D01*
X287754Y233219D01*
X287746Y232896D01*
X284746Y234117D01*
X284744Y234450D01*
X284667Y235728D01*
X284639Y235905D01*
X284606Y236056D01*
X284569Y236181D01*
X284527Y236280D01*
X288510Y234948D01*
D02*
G37*
G36*
X154897Y218503D02*
X155085Y218345D01*
X155277Y218206D01*
X155472Y218085D01*
X155671Y217983D01*
X155873Y217899D01*
X156079Y217834D01*
X156289Y217787D01*
X156502Y217759D01*
X156719Y217750D01*
X156720Y216250D01*
X156503Y216241D01*
X156289Y216213D01*
X156080Y216166D01*
X155873Y216101D01*
X155671Y216017D01*
X155472Y215915D01*
X155277Y215794D01*
X155086Y215655D01*
X154898Y215497D01*
X154714Y215320D01*
X154713Y218680D01*
X154897Y218503D01*
D02*
G37*
G36*
X161000Y207250D02*
X160982Y207239D01*
X160942Y207208D01*
X160803Y207080D01*
X159898Y206190D01*
X159191Y206898D01*
X160250Y208001D01*
X161000Y207250D01*
D02*
G37*
G36*
X142001D02*
X141982Y207239D01*
X141943Y207208D01*
X141803Y207080D01*
X140898Y206190D01*
X140190Y206898D01*
X141250Y208001D01*
X142001Y207250D01*
D02*
G37*
G36*
X137313Y204662D02*
X137343Y204627D01*
X137384Y204597D01*
X137437Y204571D01*
X137502Y204550D01*
X137578Y204532D01*
X137666Y204518D01*
X137766Y204508D01*
X138000Y204500D01*
Y203500D01*
X137877Y203498D01*
X137666Y203482D01*
X137578Y203468D01*
X137502Y203450D01*
X137437Y203428D01*
X137384Y203402D01*
X137343Y203372D01*
X137313Y203338D01*
X137295Y203300D01*
Y204699D01*
X137313Y204662D01*
D02*
G37*
G36*
X123759Y204503D02*
X123787Y204289D01*
X123834Y204080D01*
X123899Y203874D01*
X123982Y203671D01*
X124085Y203472D01*
X124206Y203277D01*
X124345Y203086D01*
X124503Y202898D01*
X124680Y202714D01*
X121320D01*
X121497Y202898D01*
X121655Y203086D01*
X121794Y203277D01*
X121915Y203472D01*
X122017Y203671D01*
X122101Y203874D01*
X122166Y204080D01*
X122213Y204289D01*
X122241Y204503D01*
X122250Y204720D01*
X123750D01*
X123759Y204503D01*
D02*
G37*
G36*
X145943Y205455D02*
X146386Y205078D01*
X146601Y204924D01*
X146810Y204795D01*
X147015Y204688D01*
X147215Y204606D01*
X147411Y204547D01*
X147601Y204511D01*
X147787Y204500D01*
Y203500D01*
X147601Y203488D01*
X147411Y203452D01*
X147215Y203393D01*
X147015Y203311D01*
X146810Y203205D01*
X146601Y203075D01*
X146386Y202921D01*
X146167Y202744D01*
X145714Y202320D01*
Y205680D01*
X145943Y205455D01*
D02*
G37*
G36*
X115456Y200057D02*
X115078Y199614D01*
X114925Y199399D01*
X114795Y199189D01*
X114689Y198985D01*
X114606Y198784D01*
X114547Y198589D01*
X114512Y198398D01*
X114500Y198213D01*
X113500D01*
X113488Y198398D01*
X113453Y198589D01*
X113394Y198784D01*
X113311Y198985D01*
X113205Y199189D01*
X113075Y199399D01*
X112922Y199614D01*
X112745Y199833D01*
X112320Y200286D01*
X115680D01*
X115456Y200057D01*
D02*
G37*
G36*
X205403Y197656D02*
X205450Y197075D01*
X205493Y196815D01*
X205550Y196575D01*
X205619Y196355D01*
X205702Y196155D01*
X205799Y195975D01*
X205909Y195815D01*
X206032Y195676D01*
X205324Y194968D01*
X205185Y195091D01*
X205025Y195201D01*
X204845Y195298D01*
X204645Y195381D01*
X204425Y195450D01*
X204185Y195507D01*
X203925Y195550D01*
X203645Y195580D01*
X203024Y195600D01*
X205400Y197976D01*
X205403Y197656D01*
D02*
G37*
G36*
X210550Y194469D02*
X210529Y194475D01*
X210479Y194480D01*
X210291Y194489D01*
X209021Y194500D01*
Y195500D01*
X210550Y195531D01*
Y194469D01*
D02*
G37*
G36*
X273270Y193986D02*
X273420Y193884D01*
X273592Y193794D01*
X273785Y193716D01*
X274000Y193650D01*
X274236Y193596D01*
X274494Y193554D01*
X274774Y193524D01*
X275397Y193500D01*
Y190500D01*
X275075Y190494D01*
X274494Y190446D01*
X274236Y190404D01*
X274000Y190350D01*
X273785Y190284D01*
X273592Y190206D01*
X273420Y190116D01*
X273270Y190014D01*
X273142Y189900D01*
Y194100D01*
X273270Y193986D01*
D02*
G37*
G36*
X210550Y184469D02*
X210529Y184475D01*
X210479Y184480D01*
X210291Y184489D01*
X209021Y184500D01*
Y185500D01*
X210550Y185531D01*
Y184469D01*
D02*
G37*
G36*
X290954Y186299D02*
X291159Y186184D01*
X291376Y186082D01*
X291605Y185994D01*
X291847Y185919D01*
X292100Y185858D01*
X292366Y185811D01*
X292644Y185777D01*
X293236Y185750D01*
X293704Y183250D01*
X293399Y183240D01*
X293112Y183211D01*
X292842Y183163D01*
X292591Y183096D01*
X292358Y183009D01*
X292143Y182903D01*
X291945Y182778D01*
X291766Y182633D01*
X291605Y182470D01*
X291462Y182286D01*
X290762Y186427D01*
X290954Y186299D01*
D02*
G37*
G36*
X98976Y183600D02*
X98656Y183597D01*
X98075Y183550D01*
X97815Y183507D01*
X97575Y183451D01*
X97355Y183381D01*
X97155Y183298D01*
X96975Y183201D01*
X96815Y183091D01*
X96730Y183017D01*
X95830Y182080D01*
X95079Y182830D01*
X95098Y182841D01*
X95138Y182872D01*
X95277Y182999D01*
X95993Y183703D01*
X96091Y183815D01*
X96201Y183975D01*
X96298Y184155D01*
X96381Y184355D01*
X96451Y184575D01*
X96507Y184815D01*
X96550Y185075D01*
X96580Y185355D01*
X96600Y185976D01*
X98976Y183600D01*
D02*
G37*
G36*
X346503Y182102D02*
X346345Y181914D01*
X346206Y181723D01*
X346085Y181528D01*
X345983Y181329D01*
X345899Y181126D01*
X345834Y180920D01*
X345787Y180711D01*
X345759Y180497D01*
X345750Y180280D01*
X344250D01*
X344241Y180497D01*
X344213Y180711D01*
X344166Y180920D01*
X344101Y181126D01*
X344017Y181329D01*
X343915Y181528D01*
X343794Y181723D01*
X343655Y181914D01*
X343497Y182102D01*
X343320Y182286D01*
X346680D01*
X346503Y182102D01*
D02*
G37*
G36*
X205943Y182616D02*
X206386Y182238D01*
X206601Y182085D01*
X206811Y181955D01*
X207015Y181849D01*
X207216Y181766D01*
X207411Y181707D01*
X207602Y181672D01*
X207787Y181660D01*
Y180660D01*
X207602Y180648D01*
X207411Y180613D01*
X207216Y180554D01*
X207015Y180471D01*
X206811Y180365D01*
X206601Y180235D01*
X206386Y180082D01*
X206167Y179905D01*
X205714Y179480D01*
Y182840D01*
X205943Y182616D01*
D02*
G37*
G36*
X357388Y194308D02*
X356862Y193038D01*
X340050D01*
X339289Y192887D01*
X338644Y192456D01*
X322876Y176688D01*
X315296D01*
X314770Y177958D01*
X329455Y192644D01*
X329456Y192645D01*
X332623Y195812D01*
X355884D01*
X357388Y194308D01*
D02*
G37*
G36*
X179492Y175485D02*
X179369Y175345D01*
X179259Y175185D01*
X179163Y175005D01*
X179079Y174805D01*
X179009Y174585D01*
X178953Y174345D01*
X178910Y174085D01*
X178880Y173805D01*
X178860Y173184D01*
X176484Y175560D01*
X176804Y175563D01*
X177385Y175610D01*
X177645Y175653D01*
X177885Y175709D01*
X178105Y175779D01*
X178305Y175863D01*
X178485Y175959D01*
X178645Y176069D01*
X178785Y176192D01*
X179492Y175485D01*
D02*
G37*
G36*
X95631Y173525D02*
X95681Y173520D01*
X95869Y173511D01*
X97139Y173500D01*
Y172500D01*
X95610Y172469D01*
Y173531D01*
X95631Y173525D01*
D02*
G37*
G36*
X109096Y175145D02*
X109261Y175035D01*
X109435Y174954D01*
X109619Y174899D01*
X109813Y174872D01*
X110017Y174873D01*
X110230Y174900D01*
X110453Y174955D01*
X110686Y175038D01*
X110928Y175147D01*
X109813Y172012D01*
X109655Y172357D01*
X108874Y173846D01*
X108771Y173997D01*
X108677Y174121D01*
X108590Y174218D01*
X108941Y175281D01*
X109096Y175145D01*
D02*
G37*
G36*
X122863Y172816D02*
X122910Y172235D01*
X122953Y171975D01*
X123010Y171735D01*
X123079Y171515D01*
X123162Y171315D01*
X123259Y171135D01*
X123369Y170975D01*
X123492Y170835D01*
X122785Y170128D01*
X122645Y170251D01*
X122485Y170361D01*
X122305Y170457D01*
X122105Y170541D01*
X121885Y170610D01*
X121645Y170667D01*
X121385Y170710D01*
X121105Y170740D01*
X120484Y170760D01*
X122860Y173136D01*
X122863Y172816D01*
D02*
G37*
G36*
X104976Y170600D02*
X104655Y170596D01*
X104075Y170550D01*
X103815Y170507D01*
X103574Y170450D01*
X103355Y170380D01*
X103155Y170297D01*
X102975Y170201D01*
X102815Y170091D01*
X102675Y169968D01*
X101968Y170675D01*
X102091Y170815D01*
X102201Y170975D01*
X102297Y171154D01*
X102380Y171354D01*
X102450Y171574D01*
X102507Y171814D01*
X102550Y172075D01*
X102580Y172355D01*
X102600Y172976D01*
X104976Y170600D01*
D02*
G37*
G36*
X195376Y196327D02*
Y180000D01*
X195852Y178852D01*
X205588Y169116D01*
X205663Y168739D01*
X206094Y168094D01*
X206739Y167663D01*
X207500Y167512D01*
X212335D01*
X213377Y166242D01*
X213329Y166000D01*
X213608Y164595D01*
X214404Y163404D01*
X215595Y162609D01*
X217000Y162329D01*
X218404Y162609D01*
X219595Y163404D01*
X220391Y164595D01*
X220670Y166000D01*
X220391Y167404D01*
X220165Y167742D01*
X220844Y169012D01*
X225257D01*
X227462Y166806D01*
X227624Y166564D01*
X241974Y152214D01*
X242619Y151783D01*
X243380Y151632D01*
X247508D01*
X255828Y143312D01*
X255342Y142138D01*
X231184D01*
X231036Y142237D01*
X230275Y142388D01*
X227271D01*
X221754Y147905D01*
X221743Y147964D01*
X221653Y148025D01*
X221617Y148126D01*
X221509Y148245D01*
X221457Y148314D01*
X221419Y148378D01*
X221390Y148440D01*
X221369Y148504D01*
X221353Y148575D01*
X221344Y148658D01*
X221343Y148755D01*
X221352Y148870D01*
X221382Y149053D01*
X221328Y149285D01*
X221420Y149750D01*
X221141Y151155D01*
X220345Y152345D01*
X219947Y152612D01*
X219601Y153885D01*
X219759Y154149D01*
X220391Y155095D01*
X220671Y156500D01*
X220391Y157905D01*
X219595Y159095D01*
X218405Y159891D01*
X217000Y160170D01*
X215595Y159891D01*
X214405Y159095D01*
X213609Y157905D01*
X213330Y156500D01*
X213609Y155095D01*
X214405Y153904D01*
X214803Y153638D01*
X215149Y152365D01*
X214991Y152101D01*
X214359Y151155D01*
X214079Y149750D01*
X214359Y148345D01*
X215155Y147155D01*
X216345Y146359D01*
X216825Y146264D01*
X217018Y146125D01*
X217480Y146018D01*
X217637Y145969D01*
X217794Y145910D01*
X217936Y145848D01*
X218064Y145782D01*
X218179Y145714D01*
X218282Y145642D01*
X218375Y145568D01*
X218493Y145458D01*
X218627Y145408D01*
X223857Y140179D01*
X223470Y138770D01*
X223311Y138729D01*
X223281Y138742D01*
X220267Y141756D01*
X219622Y142187D01*
X218861Y142338D01*
X214473D01*
X212166Y144646D01*
X212118Y144778D01*
X212009Y144897D01*
X211947Y144977D01*
X211893Y145062D01*
X211846Y145153D01*
X211804Y145254D01*
X211768Y145366D01*
X211738Y145492D01*
X211716Y145633D01*
X211703Y145790D01*
X211698Y146003D01*
X211504Y146446D01*
X211318Y146894D01*
X211305Y146900D01*
X211299Y146913D01*
X211284Y146919D01*
X211203Y147327D01*
X210451Y148451D01*
X209327Y149203D01*
X208000Y149467D01*
X206673Y149203D01*
X205549Y148451D01*
X204797Y147327D01*
X204533Y146000D01*
X204797Y144673D01*
X204872Y144562D01*
X204030Y143536D01*
X203818Y143624D01*
X199000D01*
X197852Y143148D01*
X195852Y141148D01*
X195376Y140000D01*
Y137166D01*
X194106Y136462D01*
X193080Y136667D01*
X191753Y136403D01*
X190629Y135651D01*
X189877Y134527D01*
X189613Y133200D01*
X189877Y131873D01*
X190629Y130749D01*
X191753Y129997D01*
X192714Y129806D01*
X193184Y128788D01*
X193214Y128510D01*
X191488Y126784D01*
X188051D01*
X188039Y126787D01*
X187932Y126831D01*
X187805Y126897D01*
X187661Y126986D01*
X187513Y127092D01*
X187133Y127416D01*
X186931Y127613D01*
X186873Y127637D01*
X185787Y128363D01*
X185233Y128473D01*
X184933Y128533D01*
Y129827D01*
X185233Y129887D01*
X185787Y129997D01*
X186911Y130749D01*
X187663Y131873D01*
X187927Y133200D01*
X187663Y134527D01*
X186911Y135651D01*
X185787Y136403D01*
X185134Y136532D01*
Y137827D01*
X185787Y137957D01*
X186911Y138709D01*
X187663Y139833D01*
X187927Y141160D01*
X187663Y142487D01*
X186911Y143611D01*
X185787Y144363D01*
X184460Y144627D01*
X183133Y144363D01*
X182009Y143611D01*
X181257Y142487D01*
X181130Y141847D01*
X181107Y141733D01*
X179813D01*
X179790Y141847D01*
X179663Y142487D01*
X178911Y143611D01*
X177787Y144363D01*
X176460Y144627D01*
X175133Y144363D01*
X174009Y143611D01*
X173257Y142487D01*
X172993Y141160D01*
X173257Y139833D01*
X174009Y138709D01*
X175133Y137957D01*
X176460Y137693D01*
X177787Y137957D01*
X178911Y138709D01*
X179663Y139833D01*
X179790Y140473D01*
X179813Y140587D01*
X181107D01*
X181130Y140473D01*
X181257Y139833D01*
X182009Y138709D01*
X183133Y137957D01*
X183786Y137827D01*
Y136532D01*
X183133Y136403D01*
X182009Y135651D01*
X181257Y134527D01*
X180993Y133200D01*
X181257Y131873D01*
X182009Y130749D01*
X183133Y129997D01*
X183687Y129887D01*
X183987Y129827D01*
Y128533D01*
X183687Y128473D01*
X183133Y128363D01*
X182009Y127611D01*
X181257Y126487D01*
X181107Y125733D01*
X179813D01*
X179663Y126487D01*
X178911Y127611D01*
X177787Y128363D01*
X176460Y128627D01*
X175133Y128363D01*
X174009Y127611D01*
X173257Y126487D01*
X172993Y125160D01*
X173257Y123833D01*
X174009Y122709D01*
X175133Y121957D01*
X175887Y121807D01*
Y120513D01*
X175133Y120363D01*
X174009Y119611D01*
X173257Y118487D01*
X173166Y118027D01*
X171871D01*
X171711Y118832D01*
X170959Y119957D01*
X169835Y120708D01*
X169831Y120709D01*
X169413Y122087D01*
X170623Y123297D01*
X171286Y124290D01*
X171519Y125460D01*
Y131618D01*
X171663Y131833D01*
X171927Y133160D01*
X171663Y134487D01*
X170911Y135611D01*
X169787Y136363D01*
X168460Y136627D01*
X167133Y136363D01*
X166009Y135611D01*
X165257Y134487D01*
X164993Y133160D01*
X165257Y131833D01*
X165401Y131618D01*
Y126727D01*
X159587Y120913D01*
X158924Y119921D01*
X158691Y118750D01*
X158691Y118750D01*
Y113401D01*
X158337Y113122D01*
X157483Y112813D01*
X154624Y115673D01*
Y145328D01*
X158897Y149601D01*
X159098Y149584D01*
X160193Y149101D01*
X160377Y148173D01*
X161129Y147049D01*
X162253Y146297D01*
X163580Y146033D01*
X164907Y146297D01*
X166031Y147049D01*
X166783Y148173D01*
X167047Y149500D01*
X166783Y150827D01*
X166031Y151951D01*
X164907Y152703D01*
X163979Y152887D01*
X163496Y153982D01*
X163479Y154183D01*
X164128Y154832D01*
X164604Y155980D01*
Y162526D01*
X165874Y162911D01*
X166009Y162709D01*
X167133Y161957D01*
X168460Y161693D01*
X169787Y161957D01*
X170911Y162709D01*
X171663Y163833D01*
X171927Y165160D01*
X171663Y166487D01*
X170911Y167611D01*
X169787Y168363D01*
X169033Y168512D01*
Y169807D01*
X169787Y169957D01*
X170911Y170709D01*
X171663Y171833D01*
X171813Y172587D01*
X173107D01*
X173257Y171833D01*
X174009Y170709D01*
X175133Y169957D01*
X176460Y169693D01*
X177787Y169957D01*
X178911Y170709D01*
X179663Y171833D01*
X179813Y172587D01*
X181107D01*
X181257Y171833D01*
X182009Y170709D01*
X183133Y169957D01*
X184460Y169693D01*
X185787Y169957D01*
X186911Y170709D01*
X187663Y171833D01*
X187927Y173160D01*
X187663Y174487D01*
X186911Y175611D01*
X185787Y176363D01*
X184460Y176627D01*
X183133Y176363D01*
X183045Y176304D01*
X182200Y176905D01*
X181984Y177122D01*
Y196688D01*
X182673Y197376D01*
X194328D01*
X195376Y196327D01*
D02*
G37*
G36*
X207500Y170250D02*
X206750Y169499D01*
X206739Y169518D01*
X206708Y169557D01*
X206581Y169697D01*
X205690Y170602D01*
X206398Y171310D01*
X207500Y170250D01*
D02*
G37*
G36*
X95631Y170025D02*
X95681Y170020D01*
X95869Y170011D01*
X97139Y170000D01*
Y169000D01*
X95610Y168969D01*
Y170031D01*
X95631Y170025D01*
D02*
G37*
G36*
X292726Y164600D02*
X292471Y164595D01*
X292226Y164574D01*
X291992Y164537D01*
X291769Y164485D01*
X291556Y164416D01*
X291354Y164333D01*
X291162Y164233D01*
X290981Y164117D01*
X290810Y163986D01*
X290650Y163839D01*
X289589Y164900D01*
X289736Y165060D01*
X289867Y165231D01*
X289983Y165412D01*
X290082Y165604D01*
X290166Y165806D01*
X290235Y166019D01*
X290287Y166242D01*
X290324Y166476D01*
X290345Y166721D01*
X290350Y166976D01*
X292726Y164600D01*
D02*
G37*
G36*
X305012Y167274D02*
Y142000D01*
X305163Y141239D01*
X305594Y140594D01*
X311838Y134351D01*
X312482Y133920D01*
X313243Y133768D01*
X322113D01*
X322240Y133709D01*
X322401Y133702D01*
X322501Y133689D01*
X322599Y133667D01*
X322698Y133636D01*
X322798Y133595D01*
X322903Y133541D01*
X323013Y133472D01*
X323128Y133389D01*
X323249Y133287D01*
X323403Y133139D01*
X323524Y133092D01*
X324611Y132366D01*
X326016Y132086D01*
X327421Y132366D01*
X327990Y132746D01*
X328799Y131759D01*
X318713Y121673D01*
X317314Y122070D01*
X316695Y122996D01*
X315505Y123791D01*
X314100Y124071D01*
X312695Y123791D01*
X311608Y123064D01*
X311487Y123017D01*
X311333Y122870D01*
X311212Y122768D01*
X311097Y122684D01*
X310987Y122616D01*
X310882Y122562D01*
X310782Y122521D01*
X310683Y122489D01*
X310585Y122468D01*
X310485Y122455D01*
X310325Y122448D01*
X310197Y122388D01*
X302831D01*
X302070Y122237D01*
X301455Y123311D01*
X301595Y123405D01*
X302391Y124595D01*
X302670Y126000D01*
X302391Y127405D01*
X301595Y128596D01*
X300405Y129391D01*
X299000Y129670D01*
X297595Y129391D01*
X296405Y128596D01*
X295609Y127405D01*
X295329Y126000D01*
X295557Y124854D01*
X295242Y124185D01*
X294735Y123618D01*
X293595Y123391D01*
X292404Y122595D01*
X291608Y121404D01*
X291329Y120000D01*
X291608Y118595D01*
X292067Y117908D01*
X291439Y116638D01*
X290174D01*
X286549Y120263D01*
X287175Y121433D01*
X287696Y121329D01*
X289101Y121609D01*
X290292Y122404D01*
X291087Y123595D01*
X291367Y125000D01*
X291087Y126405D01*
X291081Y126414D01*
X291685Y127796D01*
X292596Y128405D01*
X293391Y129595D01*
X293671Y131000D01*
X293391Y132405D01*
X292596Y133595D01*
X292385Y133736D01*
Y135264D01*
X292595Y135404D01*
X293391Y136595D01*
X293670Y138000D01*
X293391Y139404D01*
X292664Y140492D01*
X292617Y140613D01*
X292469Y140766D01*
X292367Y140887D01*
X292284Y141003D01*
X292215Y141112D01*
X292162Y141217D01*
X292120Y141318D01*
X292089Y141417D01*
X292067Y141514D01*
X292054Y141615D01*
X292047Y141775D01*
X291988Y141903D01*
Y146001D01*
X291836Y146761D01*
X291405Y147406D01*
X285088Y153723D01*
Y155730D01*
X286358Y155856D01*
X286609Y154595D01*
X287405Y153405D01*
X288595Y152609D01*
X290000Y152330D01*
X291405Y152609D01*
X292596Y153405D01*
X293391Y154595D01*
X293671Y156000D01*
X293391Y157405D01*
X292596Y158595D01*
X291405Y159391D01*
X290000Y159670D01*
X289873Y159645D01*
X289377Y160842D01*
X289456Y160894D01*
X291396Y162834D01*
X291528Y162882D01*
X291647Y162991D01*
X291727Y163053D01*
X291812Y163107D01*
X291903Y163154D01*
X292004Y163196D01*
X292116Y163232D01*
X292242Y163262D01*
X292383Y163284D01*
X292540Y163297D01*
X292753Y163302D01*
X292872Y163354D01*
X294155Y163609D01*
X295345Y164405D01*
X295611Y164802D01*
X297139D01*
X297405Y164405D01*
X298595Y163609D01*
X300000Y163330D01*
X301405Y163609D01*
X302596Y164405D01*
X303391Y165595D01*
X303599Y166640D01*
X304520Y167237D01*
X304897Y167342D01*
X305012Y167274D01*
D02*
G37*
G36*
X114456Y163217D02*
X114078Y162774D01*
X113925Y162559D01*
X113795Y162349D01*
X113689Y162145D01*
X113606Y161944D01*
X113547Y161749D01*
X113512Y161558D01*
X113500Y161373D01*
X112500D01*
X112488Y161558D01*
X112453Y161749D01*
X112394Y161944D01*
X112311Y162145D01*
X112205Y162349D01*
X112075Y162559D01*
X111922Y162774D01*
X111745Y162993D01*
X111320Y163446D01*
X114680D01*
X114456Y163217D01*
D02*
G37*
G36*
X123492Y159485D02*
X123369Y159345D01*
X123259Y159185D01*
X123162Y159005D01*
X123079Y158805D01*
X123010Y158585D01*
X122953Y158345D01*
X122910Y158085D01*
X122880Y157805D01*
X122860Y157184D01*
X120484Y159560D01*
X120804Y159563D01*
X121385Y159610D01*
X121645Y159653D01*
X121885Y159710D01*
X122105Y159779D01*
X122305Y159862D01*
X122485Y159959D01*
X122645Y160069D01*
X122785Y160192D01*
X123492Y159485D01*
D02*
G37*
G36*
X242476Y168894D02*
X243121Y168463D01*
X243882Y168312D01*
X245730D01*
X245981Y168362D01*
X251981D01*
X262149Y158194D01*
X262794Y157763D01*
X263555Y157612D01*
X273523D01*
X274248Y156342D01*
X274039Y155988D01*
X252824D01*
X249406Y159406D01*
X248761Y159837D01*
X248000Y159988D01*
X243824D01*
X228706Y175106D01*
X228321Y175363D01*
X227946Y176147D01*
X227808Y176882D01*
X227967Y177120D01*
X228293Y178759D01*
X227967Y180397D01*
X227717Y180772D01*
X228097Y181621D01*
X229496Y181874D01*
X242476Y168894D01*
D02*
G37*
G36*
X398586Y154320D02*
X398493Y154402D01*
X398380Y154475D01*
X398249Y154539D01*
X398100Y154595D01*
X397932Y154642D01*
X397745Y154681D01*
X397539Y154711D01*
X397073Y154746D01*
X396811Y154750D01*
Y157250D01*
X397073Y157254D01*
X397539Y157289D01*
X397745Y157319D01*
X397932Y157358D01*
X398100Y157405D01*
X398249Y157461D01*
X398380Y157525D01*
X398493Y157598D01*
X398586Y157680D01*
Y154320D01*
D02*
G37*
G36*
X128436Y154760D02*
X128116Y154757D01*
X127535Y154710D01*
X127275Y154667D01*
X127035Y154610D01*
X126815Y154541D01*
X126615Y154458D01*
X126435Y154361D01*
X126275Y154251D01*
X126136Y154128D01*
X125428Y154836D01*
X125551Y154975D01*
X125661Y155135D01*
X125758Y155315D01*
X125841Y155515D01*
X125911Y155735D01*
X125967Y155975D01*
X126010Y156235D01*
X126040Y156515D01*
X126060Y157136D01*
X128436Y154760D01*
D02*
G37*
G36*
X139376Y153492D02*
Y152000D01*
X139852Y150852D01*
X147376Y143328D01*
Y128298D01*
X146106Y127735D01*
X145407Y128203D01*
X144080Y128467D01*
X142753Y128203D01*
X141629Y127451D01*
X140964Y126456D01*
X140380Y126412D01*
X139625Y126543D01*
X138911Y127611D01*
X137787Y128363D01*
X136460Y128627D01*
X135254Y128387D01*
X135045Y128421D01*
X133984Y129122D01*
Y153198D01*
X135045Y153899D01*
X135254Y153933D01*
X136460Y153693D01*
X137787Y153957D01*
X138106Y154171D01*
X139376Y153492D01*
D02*
G37*
G36*
X278037Y152958D02*
X277848Y153014D01*
X277258Y153145D01*
X277055Y153177D01*
X276423Y153238D01*
X276205Y153247D01*
X275983Y153250D01*
X274963Y154750D01*
X275195Y154760D01*
X275407Y154792D01*
X275600Y154844D01*
X275774Y154917D01*
X275929Y155010D01*
X276064Y155125D01*
X276180Y155260D01*
X276277Y155416D01*
X276354Y155594D01*
X276412Y155792D01*
X278037Y152958D01*
D02*
G37*
G36*
X369759Y154503D02*
X369787Y154289D01*
X369834Y154080D01*
X369899Y153874D01*
X369982Y153671D01*
X370085Y153472D01*
X370206Y153277D01*
X370345Y153086D01*
X370503Y152898D01*
X370680Y152714D01*
X367320D01*
X367497Y152898D01*
X367655Y153086D01*
X367794Y153277D01*
X367915Y153472D01*
X368018Y153671D01*
X368101Y153874D01*
X368166Y154080D01*
X368213Y154289D01*
X368241Y154503D01*
X368250Y154720D01*
X369750D01*
X369759Y154503D01*
D02*
G37*
G36*
X357976Y153600D02*
X357852Y153592D01*
X357721Y153564D01*
X357583Y153517D01*
X357438Y153451D01*
X357285Y153365D01*
X357126Y153261D01*
X356959Y153137D01*
X356605Y152831D01*
X356417Y152649D01*
X354649Y154417D01*
X354831Y154605D01*
X355137Y154959D01*
X355261Y155126D01*
X355365Y155285D01*
X355451Y155437D01*
X355517Y155583D01*
X355564Y155721D01*
X355592Y155852D01*
X355600Y155976D01*
X357976Y153600D01*
D02*
G37*
G36*
X220061Y149027D02*
X220043Y148798D01*
X220046Y148576D01*
X220070Y148363D01*
X220115Y148158D01*
X220181Y147960D01*
X220268Y147771D01*
X220377Y147590D01*
X220506Y147416D01*
X220657Y147251D01*
X219377Y146410D01*
X219224Y146552D01*
X219060Y146684D01*
X218883Y146806D01*
X218694Y146919D01*
X218494Y147022D01*
X218281Y147115D01*
X218057Y147198D01*
X217821Y147272D01*
X217312Y147390D01*
X220100Y149265D01*
X220061Y149027D01*
D02*
G37*
G36*
X380012Y171684D02*
Y160000D01*
X380163Y159239D01*
X380594Y158594D01*
X387012Y152177D01*
Y142000D01*
X387163Y141239D01*
X387594Y140594D01*
X388763Y139425D01*
X388138Y138254D01*
X387999Y138282D01*
X386361Y137956D01*
X384971Y137028D01*
X384043Y135639D01*
X383717Y134000D01*
X384043Y132361D01*
X384971Y130972D01*
X385800Y130418D01*
X385717Y130000D01*
X386043Y128361D01*
X386971Y126972D01*
X388360Y126043D01*
X389999Y125717D01*
X391638Y126043D01*
X393027Y126972D01*
X393742Y128041D01*
X395012Y127657D01*
Y91824D01*
X392425Y89236D01*
X391254Y89862D01*
X391282Y90000D01*
X390956Y91639D01*
X390046Y93000D01*
X390956Y94361D01*
X391282Y96000D01*
X390956Y97639D01*
X390027Y99028D01*
X388638Y99956D01*
X386999Y100282D01*
X385360Y99956D01*
X383971Y99028D01*
X383774Y98732D01*
X382048Y98405D01*
X381843Y98546D01*
Y107150D01*
X381672Y108008D01*
X381186Y108736D01*
X371336Y118586D01*
X370608Y119072D01*
X369750Y119243D01*
X365000D01*
X364142Y119072D01*
X363414Y118586D01*
X362071Y117243D01*
X360048D01*
X359369Y118513D01*
X359491Y118695D01*
X359771Y120100D01*
X359491Y121505D01*
X358695Y122695D01*
X357505Y123491D01*
X356100Y123771D01*
X354695Y123491D01*
X354258Y123199D01*
X352988Y123878D01*
Y135725D01*
X358406Y141143D01*
X358406Y141143D01*
X358837Y141788D01*
X358988Y142549D01*
X358988Y142549D01*
Y145161D01*
X359229Y145352D01*
X360594Y145594D01*
X363837Y142351D01*
X363837Y142351D01*
X364482Y141920D01*
X365243Y141769D01*
X365243Y141769D01*
X365615D01*
X365743Y141709D01*
X365903Y141702D01*
X366004Y141689D01*
X366101Y141668D01*
X366200Y141636D01*
X366301Y141595D01*
X366405Y141541D01*
X366515Y141473D01*
X366630Y141389D01*
X366751Y141287D01*
X366905Y141140D01*
X367026Y141093D01*
X368113Y140366D01*
X369518Y140086D01*
X370923Y140366D01*
X372113Y141162D01*
X372909Y142352D01*
X373189Y143757D01*
X372909Y145162D01*
X372113Y146352D01*
X372192Y147486D01*
X373405Y147405D01*
X374595Y146609D01*
X376000Y146329D01*
X377405Y146609D01*
X378596Y147405D01*
X379391Y148595D01*
X379670Y150000D01*
X379391Y151405D01*
X378596Y152596D01*
X377405Y153391D01*
X376000Y153671D01*
X374595Y153391D01*
X373591Y152720D01*
X373247Y152630D01*
X372070Y152885D01*
X371664Y153492D01*
X371617Y153613D01*
X371470Y153767D01*
X371368Y153888D01*
X371284Y154003D01*
X371216Y154113D01*
X371162Y154217D01*
X371120Y154318D01*
X371089Y154417D01*
X371068Y154514D01*
X371055Y154615D01*
X371048Y154775D01*
X370988Y154903D01*
Y158735D01*
X373406Y161152D01*
X373837Y161797D01*
X373988Y162558D01*
Y175912D01*
X375258Y176438D01*
X380012Y171684D01*
D02*
G37*
G36*
X323351Y147583D02*
X323169Y147395D01*
X322863Y147041D01*
X322739Y146874D01*
X322635Y146715D01*
X322549Y146562D01*
X322483Y146417D01*
X322436Y146279D01*
X322408Y146148D01*
X322400Y146024D01*
X320024Y148400D01*
X320148Y148408D01*
X320279Y148436D01*
X320417Y148483D01*
X320563Y148549D01*
X320715Y148635D01*
X320874Y148739D01*
X321041Y148863D01*
X321395Y149169D01*
X321583Y149351D01*
X323351Y147583D01*
D02*
G37*
G36*
X210405Y145721D02*
X210426Y145476D01*
X210463Y145242D01*
X210515Y145019D01*
X210584Y144806D01*
X210667Y144604D01*
X210767Y144412D01*
X210883Y144231D01*
X211014Y144060D01*
X211161Y143900D01*
X210100Y142839D01*
X209940Y142986D01*
X209769Y143117D01*
X209588Y143233D01*
X209396Y143333D01*
X209194Y143416D01*
X208981Y143485D01*
X208758Y143537D01*
X208524Y143574D01*
X208279Y143595D01*
X208024Y143600D01*
X210400Y145976D01*
X210405Y145721D01*
D02*
G37*
G36*
X367804Y142077D02*
X367620Y142254D01*
X367432Y142412D01*
X367241Y142551D01*
X367046Y142672D01*
X366847Y142774D01*
X366644Y142858D01*
X366438Y142923D01*
X366229Y142970D01*
X366015Y142998D01*
X365798Y143007D01*
Y144507D01*
X366015Y144516D01*
X366229Y144544D01*
X366438Y144591D01*
X366644Y144656D01*
X366847Y144740D01*
X367046Y144842D01*
X367241Y144963D01*
X367432Y145102D01*
X367620Y145260D01*
X367804Y145437D01*
Y142077D01*
D02*
G37*
G36*
X328411Y144100D02*
X328264Y143940D01*
X328133Y143769D01*
X328017Y143588D01*
X327918Y143396D01*
X327834Y143194D01*
X327765Y142981D01*
X327713Y142758D01*
X327676Y142524D01*
X327655Y142279D01*
X327650Y142024D01*
X325274Y144400D01*
X325529Y144405D01*
X325774Y144426D01*
X326008Y144463D01*
X326231Y144515D01*
X326444Y144584D01*
X326646Y144668D01*
X326838Y144767D01*
X327019Y144883D01*
X327190Y145014D01*
X327350Y145161D01*
X328411Y144100D01*
D02*
G37*
G36*
X401874Y151472D02*
X402627Y150760D01*
Y25952D01*
X401357Y25764D01*
X401119Y26549D01*
X399615Y29364D01*
X397590Y31830D01*
X395124Y33855D01*
X392309Y35359D01*
X389256Y36286D01*
X386080Y36598D01*
X382904Y36286D01*
X379851Y35359D01*
X377036Y33855D01*
X374570Y31830D01*
X372545Y29364D01*
X371041Y26549D01*
X370114Y23496D01*
X369802Y20320D01*
X370114Y17144D01*
X371041Y14090D01*
X372545Y11276D01*
X374570Y8809D01*
X377036Y6785D01*
X379851Y5281D01*
X380636Y5042D01*
X380448Y3772D01*
X253679D01*
X253554Y5042D01*
X254161Y5163D01*
X254806Y5594D01*
X264586Y15374D01*
X264697Y15408D01*
X264972Y15634D01*
X265261Y15802D01*
X265673Y15974D01*
X266206Y16138D01*
X266856Y16283D01*
X267590Y16400D01*
X270557Y16598D01*
X271729Y16602D01*
X271789Y16626D01*
X271800Y16625D01*
X274071Y16924D01*
X276187Y17801D01*
X278005Y19195D01*
X279399Y21012D01*
X280276Y23129D01*
X280575Y25400D01*
X280276Y27671D01*
X279399Y29787D01*
X278005Y31605D01*
X276187Y32999D01*
X274071Y33876D01*
X271800Y34175D01*
X269529Y33876D01*
X267412Y32999D01*
X265595Y31605D01*
X264201Y29787D01*
X263324Y27671D01*
X263025Y25400D01*
X263026Y25389D01*
X263001Y25329D01*
X262998Y24135D01*
X262964Y23071D01*
X262802Y21202D01*
X262683Y20456D01*
X262538Y19806D01*
X262374Y19273D01*
X262201Y18861D01*
X262034Y18572D01*
X261808Y18297D01*
X261774Y18186D01*
X252577Y8988D01*
X234596D01*
X234070Y10258D01*
X239186Y15374D01*
X239297Y15408D01*
X239572Y15634D01*
X239861Y15802D01*
X240273Y15974D01*
X240806Y16138D01*
X241455Y16283D01*
X242190Y16400D01*
X245157Y16598D01*
X246329Y16602D01*
X246388Y16626D01*
X246400Y16625D01*
X248671Y16924D01*
X250788Y17801D01*
X252605Y19195D01*
X253999Y21012D01*
X254876Y23129D01*
X255175Y25400D01*
X254876Y27671D01*
X253999Y29787D01*
X252605Y31605D01*
X252227Y31895D01*
X252658Y33165D01*
X254052D01*
X254176Y33104D01*
X254324Y33094D01*
X254410Y33078D01*
X254523Y33043D01*
X254661Y32985D01*
X254824Y32899D01*
X255011Y32782D01*
X255202Y32643D01*
X255689Y32227D01*
X255948Y31973D01*
X256006Y31949D01*
X257361Y31044D01*
X259000Y30718D01*
X260639Y31044D01*
X262028Y31972D01*
X262956Y33361D01*
X263282Y35000D01*
X262956Y36639D01*
X262028Y38028D01*
X260639Y38956D01*
X259000Y39282D01*
X257361Y38956D01*
X256040Y38074D01*
X255968Y38046D01*
X255427Y37538D01*
X255216Y37366D01*
X255010Y37218D01*
X254825Y37101D01*
X254661Y37015D01*
X254523Y36957D01*
X254410Y36922D01*
X254324Y36906D01*
X254176Y36896D01*
X254052Y36835D01*
X250760D01*
X247835Y39760D01*
Y45000D01*
X247696Y45702D01*
X247298Y46298D01*
X243757Y49839D01*
X244243Y51012D01*
X273176D01*
X280012Y44177D01*
Y40600D01*
X280163Y39839D01*
X280594Y39194D01*
X287174Y32614D01*
X287208Y32503D01*
X287434Y32228D01*
X287602Y31939D01*
X287774Y31527D01*
X287938Y30994D01*
X288083Y30345D01*
X288200Y29610D01*
X288398Y26643D01*
X288402Y25471D01*
X288426Y25412D01*
X288425Y25400D01*
X288724Y23129D01*
X289601Y21012D01*
X290995Y19195D01*
X292812Y17801D01*
X294929Y16924D01*
X297200Y16625D01*
X299471Y16924D01*
X301588Y17801D01*
X303405Y19195D01*
X304799Y21012D01*
X305676Y23129D01*
X305975Y25400D01*
X305676Y27671D01*
X304799Y29787D01*
X303405Y31605D01*
X301588Y32999D01*
X299471Y33876D01*
X297200Y34175D01*
X297188Y34174D01*
X297129Y34199D01*
X295935Y34202D01*
X294871Y34236D01*
X293002Y34398D01*
X292255Y34517D01*
X291606Y34662D01*
X291073Y34826D01*
X290661Y34999D01*
X290372Y35166D01*
X290097Y35392D01*
X289986Y35426D01*
X287102Y38310D01*
X287911Y39297D01*
X288972Y38588D01*
X290611Y38262D01*
X292250Y38588D01*
X293222Y39238D01*
X294195Y38588D01*
X295834Y38262D01*
X297473Y38588D01*
X298862Y39516D01*
X299790Y40905D01*
X300116Y42544D01*
X299935Y43457D01*
X301105Y44083D01*
X312574Y32614D01*
X312608Y32503D01*
X312834Y32228D01*
X313001Y31939D01*
X313174Y31527D01*
X313338Y30994D01*
X313483Y30345D01*
X313600Y29610D01*
X313798Y26643D01*
X313801Y25471D01*
X313826Y25412D01*
X313825Y25400D01*
X314124Y23129D01*
X315001Y21012D01*
X316395Y19195D01*
X318213Y17801D01*
X320329Y16924D01*
X322600Y16625D01*
X324871Y16924D01*
X326987Y17801D01*
X328805Y19195D01*
X330199Y21012D01*
X331076Y23129D01*
X331375Y25400D01*
X331076Y27671D01*
X330199Y29787D01*
X328805Y31605D01*
X327323Y32742D01*
X327743Y34012D01*
X339176D01*
X339219Y33969D01*
X339224Y33935D01*
X339310Y33871D01*
X339341Y33769D01*
X339603Y33454D01*
X339765Y33167D01*
X339903Y32799D01*
X340006Y32337D01*
X340065Y31780D01*
X340072Y31129D01*
X340022Y30405D01*
X339728Y28623D01*
X339485Y27616D01*
X339502Y27506D01*
X339225Y25400D01*
X339504Y23278D01*
X339185Y22798D01*
X338545Y22174D01*
X338000Y22282D01*
X336361Y21956D01*
X334972Y21028D01*
X334044Y19639D01*
X333718Y18000D01*
X334023Y16464D01*
X333855Y16173D01*
X333128Y15446D01*
X332000Y15670D01*
X330595Y15391D01*
X329404Y14595D01*
X328609Y13405D01*
X328330Y12000D01*
X328609Y10595D01*
X329404Y9405D01*
X330595Y8609D01*
X332000Y8329D01*
X333405Y8609D01*
X334595Y9405D01*
X335391Y10595D01*
X335671Y12000D01*
X335446Y13128D01*
X336173Y13855D01*
X336464Y14023D01*
X338000Y13718D01*
X339639Y14044D01*
X341028Y14972D01*
X341956Y16361D01*
X342148Y17324D01*
X343501Y17886D01*
X343613Y17801D01*
X345729Y16924D01*
X348000Y16625D01*
X350271Y16924D01*
X352388Y17801D01*
X354205Y19195D01*
X355599Y21012D01*
X356476Y23129D01*
X356775Y25400D01*
X356476Y27671D01*
X356090Y28604D01*
X357000Y29718D01*
X358639Y30044D01*
X359498Y30618D01*
X359501Y30618D01*
X360361Y30044D01*
X362000Y29718D01*
X363639Y30044D01*
X365028Y30972D01*
X365956Y32361D01*
X366158Y33375D01*
X367234Y34571D01*
X367260Y34646D01*
X389840Y57226D01*
X389909Y57249D01*
X389930Y57290D01*
X389972Y57307D01*
X390202Y57534D01*
X390585Y57890D01*
X390691Y57978D01*
X392000Y57718D01*
X393639Y58044D01*
X395028Y58972D01*
X395956Y60361D01*
X396282Y62000D01*
X395956Y63639D01*
X395028Y65028D01*
X393639Y65956D01*
X392000Y66282D01*
X390361Y65956D01*
X389313Y65256D01*
X388639Y65706D01*
X387000Y66032D01*
X385904Y65814D01*
X385177Y65924D01*
X384535Y66682D01*
X384391Y67405D01*
X383595Y68595D01*
X382405Y69391D01*
X381000Y69671D01*
X379595Y69391D01*
X378508Y68664D01*
X378387Y68617D01*
X378233Y68470D01*
X378112Y68368D01*
X377997Y68284D01*
X377887Y68216D01*
X377783Y68162D01*
X377682Y68120D01*
X377583Y68089D01*
X377486Y68068D01*
X377385Y68055D01*
X377225Y68048D01*
X377097Y67988D01*
X364035D01*
X355535Y76488D01*
X356021Y77662D01*
X360650D01*
X361411Y77813D01*
X362056Y78244D01*
X364646Y80834D01*
X364778Y80882D01*
X364897Y80991D01*
X364977Y81053D01*
X365062Y81107D01*
X365153Y81154D01*
X365254Y81196D01*
X365366Y81232D01*
X365492Y81262D01*
X365633Y81284D01*
X365790Y81297D01*
X366003Y81301D01*
X366122Y81354D01*
X367405Y81609D01*
X368596Y82405D01*
X368692Y82549D01*
X370327Y82710D01*
X372442Y80594D01*
X373087Y80163D01*
X373848Y80012D01*
X388000D01*
X388761Y80163D01*
X389406Y80594D01*
X398406Y89594D01*
X398837Y90239D01*
X398988Y91000D01*
X398988Y91000D01*
Y134000D01*
X398988Y134000D01*
X398837Y134761D01*
X398406Y135406D01*
X393656Y140156D01*
X394466Y141142D01*
X395361Y140544D01*
X397000Y140218D01*
X398639Y140544D01*
X400028Y141472D01*
X400956Y142861D01*
X401282Y144500D01*
X400956Y146139D01*
X400225Y147233D01*
X400956Y148328D01*
X401282Y149966D01*
X401023Y151268D01*
X401357Y151588D01*
X401874Y151472D01*
D02*
G37*
G36*
X323799Y140088D02*
X323586Y140242D01*
X323159Y140502D01*
X322946Y140608D01*
X322734Y140697D01*
X322522Y140770D01*
X322310Y140827D01*
X322099Y140868D01*
X321888Y140892D01*
X321677Y140900D01*
X321444Y142400D01*
X321665Y142410D01*
X321880Y142441D01*
X322086Y142491D01*
X322284Y142562D01*
X322475Y142653D01*
X322657Y142764D01*
X322832Y142896D01*
X322999Y143048D01*
X323158Y143220D01*
X323309Y143412D01*
X323799Y140088D01*
D02*
G37*
G36*
X290759Y141503D02*
X290787Y141289D01*
X290833Y141079D01*
X290898Y140873D01*
X290982Y140671D01*
X291084Y140472D01*
X291205Y140277D01*
X291345Y140086D01*
X291503Y139898D01*
X291679Y139714D01*
X288319D01*
X288496Y139898D01*
X288654Y140086D01*
X288794Y140277D01*
X288915Y140472D01*
X289017Y140671D01*
X289101Y140873D01*
X289166Y141079D01*
X289212Y141289D01*
X289240Y141503D01*
X289249Y141720D01*
X290749D01*
X290759Y141503D01*
D02*
G37*
G36*
X118746Y139480D02*
X118517Y139704D01*
X118074Y140082D01*
X117859Y140235D01*
X117649Y140365D01*
X117444Y140471D01*
X117244Y140554D01*
X117049Y140613D01*
X116858Y140648D01*
X116673Y140660D01*
Y141660D01*
X116858Y141672D01*
X117049Y141707D01*
X117244Y141766D01*
X117444Y141849D01*
X117649Y141955D01*
X117859Y142085D01*
X118074Y142238D01*
X118293Y142415D01*
X118746Y142840D01*
Y139480D01*
D02*
G37*
G36*
X275741Y151974D02*
X275857Y151998D01*
X275966Y151951D01*
X276170Y151948D01*
X276334Y151942D01*
X276891Y151888D01*
X277016Y151868D01*
X277524Y151755D01*
X277672Y151712D01*
X277686Y151713D01*
X277697Y151705D01*
X277954Y151738D01*
X278750Y151580D01*
X280155Y151859D01*
X280175Y151869D01*
X280982Y151937D01*
X281694Y151494D01*
X281779Y151409D01*
X288011Y145177D01*
Y141903D01*
X287952Y141775D01*
X287945Y141615D01*
X287932Y141514D01*
X287910Y141416D01*
X287879Y141318D01*
X287837Y141217D01*
X287783Y141112D01*
X287715Y141003D01*
X287631Y140887D01*
X287530Y140766D01*
X287382Y140613D01*
X287335Y140492D01*
X286608Y139404D01*
X286541Y139067D01*
X286036Y138773D01*
X285149Y138577D01*
X284761Y138837D01*
X284000Y138988D01*
X283762D01*
X283376Y140258D01*
X283595Y140404D01*
X284391Y141595D01*
X284670Y143000D01*
X284391Y144404D01*
X283595Y145595D01*
X282404Y146391D01*
X280999Y146670D01*
X279595Y146391D01*
X278404Y145595D01*
X277608Y144404D01*
X277329Y143000D01*
X277608Y141595D01*
X278404Y140404D01*
X278623Y140258D01*
X278237Y138988D01*
X265775D01*
X253925Y150838D01*
X254411Y152012D01*
X275683D01*
X275741Y151974D01*
D02*
G37*
G36*
X335012Y181404D02*
Y173824D01*
X312594Y151406D01*
X312163Y150761D01*
X312012Y150000D01*
Y143000D01*
X312163Y142239D01*
X312594Y141594D01*
X313944Y140244D01*
X313944Y140244D01*
X314589Y139813D01*
X315350Y139662D01*
X321497D01*
X321627Y139602D01*
X321743Y139598D01*
X322033Y139390D01*
X322277Y138992D01*
X322366Y138796D01*
X322397Y138575D01*
X322395Y138358D01*
X322370Y138169D01*
X321998Y137745D01*
X314067D01*
X308988Y142824D01*
Y169000D01*
X308837Y169761D01*
X308406Y170406D01*
X307273Y171539D01*
X307759Y172712D01*
X323700D01*
X324461Y172863D01*
X325106Y173294D01*
X333742Y181930D01*
X335012Y181404D01*
D02*
G37*
G36*
X125257Y139833D02*
X126009Y138709D01*
X127133Y137957D01*
X128460Y137693D01*
X129466Y137894D01*
X130736Y137181D01*
Y129139D01*
X129466Y128426D01*
X128460Y128627D01*
X127133Y128363D01*
X126009Y127611D01*
X125257Y126487D01*
X125107Y125733D01*
X123813D01*
X123663Y126487D01*
X122911Y127611D01*
X121787Y128363D01*
X120460Y128627D01*
X119133Y128363D01*
X118009Y127611D01*
X117257Y126487D01*
X116993Y125160D01*
X117257Y123833D01*
X118009Y122709D01*
X118439Y122421D01*
Y120899D01*
X118009Y120611D01*
X117257Y119487D01*
X117192Y119156D01*
X115897D01*
X115863Y119327D01*
X115111Y120451D01*
X113987Y121203D01*
X112660Y121467D01*
X111654Y121266D01*
X110384Y121979D01*
Y134087D01*
X115833Y139536D01*
X116869D01*
X116881Y139533D01*
X116988Y139489D01*
X117115Y139423D01*
X117259Y139334D01*
X117407Y139228D01*
X117787Y138904D01*
X117989Y138707D01*
X118047Y138683D01*
X119133Y137957D01*
X120460Y137693D01*
X121787Y137957D01*
X122911Y138709D01*
X123663Y139833D01*
X123813Y140587D01*
X125107D01*
X125257Y139833D01*
D02*
G37*
G36*
X204413Y137586D02*
X204435Y137568D01*
X204468Y137552D01*
X204511Y137538D01*
X204566Y137527D01*
X204631Y137517D01*
X204794Y137504D01*
X205000Y137500D01*
Y136500D01*
X204891Y136499D01*
X204566Y136473D01*
X204511Y136462D01*
X204468Y136448D01*
X204435Y136432D01*
X204413Y136414D01*
X204402Y136393D01*
Y136480D01*
X204399Y136480D01*
X204211Y136489D01*
X202941Y136500D01*
Y137500D01*
X204402Y137529D01*
Y137607D01*
X204413Y137586D01*
D02*
G37*
G36*
X211080Y135488D02*
X210330Y134738D01*
X210319Y134757D01*
X210288Y134796D01*
X210161Y134935D01*
X209270Y135841D01*
X209978Y136548D01*
X211080Y135488D01*
D02*
G37*
G36*
X324302Y134077D02*
X324118Y134253D01*
X323930Y134411D01*
X323739Y134551D01*
X323544Y134672D01*
X323345Y134774D01*
X323142Y134858D01*
X322936Y134923D01*
X322727Y134969D01*
X322513Y134997D01*
X322296Y135007D01*
Y136507D01*
X322513Y136516D01*
X322727Y136544D01*
X322936Y136590D01*
X323142Y136655D01*
X323345Y136739D01*
X323544Y136841D01*
X323739Y136962D01*
X323930Y137102D01*
X324118Y137260D01*
X324302Y137437D01*
Y134077D01*
D02*
G37*
G36*
X288060Y134014D02*
X288231Y133883D01*
X288412Y133767D01*
X288604Y133667D01*
X288806Y133583D01*
X289019Y133515D01*
X289242Y133463D01*
X289476Y133426D01*
X289721Y133405D01*
X289976Y133400D01*
X287600Y131024D01*
X287595Y131279D01*
X287574Y131524D01*
X287537Y131758D01*
X287485Y131981D01*
X287416Y132194D01*
X287333Y132396D01*
X287233Y132588D01*
X287118Y132769D01*
X286986Y132940D01*
X286839Y133100D01*
X287900Y134161D01*
X288060Y134014D01*
D02*
G37*
G36*
X186403Y126616D02*
X186846Y126238D01*
X187061Y126085D01*
X187271Y125955D01*
X187475Y125849D01*
X187676Y125766D01*
X187871Y125707D01*
X188062Y125672D01*
X188247Y125660D01*
Y124660D01*
X188062Y124648D01*
X187871Y124613D01*
X187676Y124554D01*
X187475Y124471D01*
X187271Y124365D01*
X187061Y124235D01*
X186846Y124082D01*
X186627Y123905D01*
X186174Y123480D01*
Y126840D01*
X186403Y126616D01*
D02*
G37*
G36*
X203216Y123563D02*
X202838Y123120D01*
X202685Y122905D01*
X202555Y122696D01*
X202449Y122491D01*
X202366Y122290D01*
X202307Y122095D01*
X202272Y121905D01*
X202260Y121719D01*
X201260D01*
X201248Y121905D01*
X201213Y122095D01*
X201154Y122290D01*
X201071Y122491D01*
X200965Y122696D01*
X200835Y122905D01*
X200682Y123120D01*
X200505Y123339D01*
X200080Y123792D01*
X203440D01*
X203216Y123563D01*
D02*
G37*
G36*
X312386Y118720D02*
X312202Y118897D01*
X312014Y119055D01*
X311823Y119194D01*
X311628Y119315D01*
X311429Y119417D01*
X311226Y119501D01*
X311020Y119566D01*
X310811Y119613D01*
X310597Y119641D01*
X310380Y119650D01*
Y121150D01*
X310597Y121159D01*
X310811Y121187D01*
X311020Y121234D01*
X311226Y121299D01*
X311429Y121383D01*
X311628Y121485D01*
X311823Y121606D01*
X312014Y121745D01*
X312202Y121903D01*
X312386Y122080D01*
Y118720D01*
D02*
G37*
G36*
X186403Y118616D02*
X186846Y118238D01*
X187061Y118085D01*
X187271Y117955D01*
X187475Y117849D01*
X187676Y117766D01*
X187871Y117707D01*
X188062Y117672D01*
X188247Y117660D01*
Y116660D01*
X188062Y116648D01*
X187871Y116613D01*
X187676Y116554D01*
X187475Y116471D01*
X187271Y116365D01*
X187061Y116235D01*
X186846Y116082D01*
X186627Y115905D01*
X186174Y115480D01*
Y118840D01*
X186403Y118616D01*
D02*
G37*
G36*
X347745Y116684D02*
X347593Y116517D01*
X347464Y116343D01*
X347359Y116164D01*
X347277Y115977D01*
X347220Y115785D01*
X347186Y115586D01*
X347175Y115382D01*
X347188Y115170D01*
X347225Y114953D01*
X347286Y114729D01*
X344315Y116300D01*
X344572Y116382D01*
X345050Y116563D01*
X345270Y116663D01*
X345674Y116883D01*
X345858Y117002D01*
X346030Y117127D01*
X346189Y117259D01*
X346336Y117397D01*
X347745Y116684D01*
D02*
G37*
G36*
X145536Y115217D02*
X145158Y114774D01*
X145005Y114559D01*
X144875Y114349D01*
X144769Y114144D01*
X144686Y113944D01*
X144627Y113749D01*
X144592Y113558D01*
X144580Y113373D01*
X143580D01*
X143568Y113558D01*
X143533Y113749D01*
X143474Y113944D01*
X143391Y114144D01*
X143285Y114349D01*
X143155Y114559D01*
X143002Y114774D01*
X142825Y114993D01*
X142400Y115446D01*
X145760D01*
X145536Y115217D01*
D02*
G37*
G36*
X251012Y126177D02*
Y103232D01*
X249742Y102553D01*
X249139Y102956D01*
X247500Y103282D01*
X245861Y102956D01*
X244472Y102028D01*
X243544Y100639D01*
X243218Y99000D01*
X243544Y97361D01*
X244365Y96131D01*
X244092Y94755D01*
X244371Y93350D01*
X245167Y92159D01*
X246357Y91363D01*
X247762Y91084D01*
X249167Y91363D01*
X249742Y91748D01*
X251012Y91069D01*
Y90181D01*
X251163Y89420D01*
X251594Y88775D01*
X255825Y84544D01*
X256470Y84113D01*
X257231Y83962D01*
X268581D01*
X269179Y82842D01*
X269044Y82639D01*
X268718Y81000D01*
X269044Y79361D01*
X269972Y77972D01*
X271361Y77044D01*
X273000Y76718D01*
X274639Y77044D01*
X276028Y77972D01*
X276796Y79122D01*
X277389Y79236D01*
X277611D01*
X278204Y79122D01*
X278972Y77972D01*
X280361Y77044D01*
X282000Y76718D01*
X283639Y77044D01*
X285028Y77972D01*
X285956Y79361D01*
X286282Y81000D01*
X285956Y82639D01*
X285821Y82842D01*
X286419Y83962D01*
X290754D01*
X299204Y75511D01*
X298718Y74338D01*
X224474D01*
X217488Y81324D01*
Y83606D01*
X217611Y83713D01*
X218758Y84168D01*
X219595Y83609D01*
X221000Y83329D01*
X222405Y83609D01*
X223595Y84405D01*
X224391Y85595D01*
X224671Y87000D01*
X224391Y88405D01*
X224217Y88665D01*
X224639Y90044D01*
X226028Y90972D01*
X226956Y92361D01*
X227282Y94000D01*
X226956Y95639D01*
X226381Y96500D01*
X226956Y97361D01*
X227282Y99000D01*
X226956Y100639D01*
X226028Y102028D01*
X224638Y102956D01*
X223000Y103282D01*
X221361Y102956D01*
X219972Y102028D01*
X219043Y100639D01*
X218758Y99205D01*
X217488Y99331D01*
Y101500D01*
X217337Y102261D01*
X216906Y102906D01*
X211934Y107878D01*
Y110100D01*
X211798Y110783D01*
X211774Y110820D01*
Y112747D01*
X213044Y113520D01*
X214000Y113329D01*
X215405Y113609D01*
X216595Y114404D01*
X217391Y115595D01*
X217670Y117000D01*
X217391Y118405D01*
X217357Y118455D01*
X217905Y119859D01*
X219095Y120654D01*
X219891Y121845D01*
X220170Y123250D01*
X219891Y124655D01*
X219292Y125551D01*
X219656Y126565D01*
X219855Y126821D01*
X221407D01*
X222168Y126972D01*
X222813Y127403D01*
X223022Y127612D01*
X249576D01*
X251012Y126177D01*
D02*
G37*
G36*
X327853Y115551D02*
X328004Y115435D01*
X328166Y115333D01*
X328339Y115245D01*
X328524Y115170D01*
X328721Y115109D01*
X328929Y115061D01*
X329148Y115027D01*
X329379Y115007D01*
X329622Y115000D01*
Y113000D01*
X329379Y112993D01*
X329148Y112973D01*
X328929Y112939D01*
X328721Y112891D01*
X328524Y112830D01*
X328339Y112755D01*
X328166Y112667D01*
X328004Y112565D01*
X327853Y112449D01*
X327714Y112320D01*
Y115680D01*
X327853Y115551D01*
D02*
G37*
G36*
X298417Y111107D02*
X298282Y110964D01*
X298151Y110810D01*
X297901Y110464D01*
X297781Y110274D01*
X297554Y109856D01*
X297445Y109629D01*
X297240Y109139D01*
X295906Y112223D01*
X296117Y112148D01*
X296324Y112099D01*
X296526Y112075D01*
X296723Y112077D01*
X296916Y112104D01*
X297104Y112156D01*
X297286Y112233D01*
X297465Y112337D01*
X297638Y112465D01*
X297807Y112618D01*
X298417Y111107D01*
D02*
G37*
G36*
X210681Y110630D02*
X209619D01*
X209625Y110651D01*
X209630Y110701D01*
X209639Y110889D01*
X209650Y112159D01*
X210650D01*
X210681Y110630D01*
D02*
G37*
G36*
X366285Y110320D02*
X366101Y110497D01*
X365913Y110655D01*
X365722Y110794D01*
X365527Y110915D01*
X365328Y111017D01*
X365126Y111101D01*
X364920Y111166D01*
X364710Y111213D01*
X364496Y111241D01*
X364280Y111250D01*
Y112750D01*
X364496Y112759D01*
X364710Y112787D01*
X364920Y112833D01*
X365126Y112899D01*
X365328Y112982D01*
X365527Y113085D01*
X365722Y113205D01*
X365913Y113345D01*
X366101Y113503D01*
X366285Y113680D01*
Y110320D01*
D02*
G37*
G36*
X329396Y109336D02*
X329258Y109189D01*
X329127Y109029D01*
X329001Y108858D01*
X328882Y108674D01*
X328769Y108478D01*
X328563Y108049D01*
X328469Y107817D01*
X328300Y107315D01*
X326730Y110286D01*
X326953Y110225D01*
X327171Y110189D01*
X327382Y110175D01*
X327587Y110186D01*
X327785Y110220D01*
X327977Y110277D01*
X328163Y110359D01*
X328343Y110464D01*
X328517Y110592D01*
X328684Y110745D01*
X329396Y109336D01*
D02*
G37*
G36*
X264231Y130594D02*
X264876Y130163D01*
X265637Y130012D01*
X271176D01*
X287944Y113244D01*
X288589Y112813D01*
X289350Y112662D01*
X290921D01*
X291609Y111405D01*
X291329Y110000D01*
X291509Y109099D01*
X290338Y108474D01*
X290256Y108556D01*
X289611Y108987D01*
X288850Y109138D01*
X269853D01*
X268118Y110873D01*
Y114870D01*
X268118Y114870D01*
X267967Y115631D01*
X267536Y116276D01*
X267536Y116276D01*
X261586Y122226D01*
Y130402D01*
X261434Y131163D01*
X261003Y131808D01*
X256882Y135929D01*
X257300Y137307D01*
X257482Y137343D01*
X264231Y130594D01*
D02*
G37*
G36*
X303207Y109599D02*
X303344Y109421D01*
X303492Y109263D01*
X303651Y109127D01*
X303821Y109012D01*
X304002Y108918D01*
X304194Y108844D01*
X304397Y108792D01*
X304611Y108760D01*
X304836Y108750D01*
X304425Y107250D01*
X304220Y107243D01*
X304013Y107222D01*
X303802Y107186D01*
X303588Y107137D01*
X303371Y107073D01*
X303151Y106996D01*
X302702Y106798D01*
X302473Y106679D01*
X302240Y106545D01*
X303081Y109798D01*
X303207Y109599D01*
D02*
G37*
G36*
X324285Y106320D02*
X324101Y106496D01*
X323913Y106655D01*
X323722Y106794D01*
X323527Y106915D01*
X323328Y107017D01*
X323126Y107101D01*
X322920Y107166D01*
X322710Y107213D01*
X322497Y107240D01*
X322280Y107250D01*
Y108750D01*
X322497Y108759D01*
X322710Y108787D01*
X322920Y108834D01*
X323126Y108899D01*
X323328Y108982D01*
X323527Y109085D01*
X323722Y109206D01*
X323913Y109345D01*
X324101Y109503D01*
X324285Y109680D01*
Y106320D01*
D02*
G37*
G36*
X300694Y106220D02*
X300448Y106243D01*
X300211Y106246D01*
X299984Y106231D01*
X299765Y106196D01*
X299556Y106142D01*
X299356Y106070D01*
X299165Y105978D01*
X298984Y105867D01*
X298811Y105737D01*
X298648Y105587D01*
X297720Y106781D01*
X297864Y106937D01*
X297996Y107104D01*
X298116Y107283D01*
X298223Y107474D01*
X298319Y107676D01*
X298403Y107889D01*
X298474Y108115D01*
X298533Y108351D01*
X298580Y108600D01*
X298615Y108860D01*
X300694Y106220D01*
D02*
G37*
G36*
X132891Y97170D02*
X131829D01*
X131835Y97191D01*
X131840Y97241D01*
X131849Y97429D01*
X131860Y98699D01*
X132860D01*
X132891Y97170D01*
D02*
G37*
G36*
X149531Y95530D02*
X148469D01*
X148475Y95551D01*
X148480Y95601D01*
X148489Y95789D01*
X148500Y97059D01*
X149500D01*
X149531Y95530D01*
D02*
G37*
G36*
X285405Y94721D02*
X285426Y94476D01*
X285463Y94242D01*
X285515Y94019D01*
X285584Y93806D01*
X285667Y93604D01*
X285767Y93412D01*
X285883Y93231D01*
X286014Y93060D01*
X286161Y92900D01*
X285100Y91839D01*
X284940Y91986D01*
X284769Y92117D01*
X284588Y92233D01*
X284396Y92332D01*
X284194Y92416D01*
X283981Y92485D01*
X283758Y92537D01*
X283524Y92574D01*
X283279Y92595D01*
X283024Y92600D01*
X285400Y94976D01*
X285405Y94721D01*
D02*
G37*
G36*
X306742Y90187D02*
X306657Y90389D01*
X306557Y90570D01*
X306440Y90729D01*
X306307Y90867D01*
X306158Y90984D01*
X305993Y91080D01*
X305812Y91154D01*
X305615Y91208D01*
X305402Y91239D01*
X305173Y91250D01*
X305918Y92750D01*
X306116Y92755D01*
X306526Y92793D01*
X306739Y92827D01*
X307180Y92924D01*
X307407Y92986D01*
X308120Y93233D01*
X306742Y90187D01*
D02*
G37*
G36*
X357595Y97609D02*
X359000Y97330D01*
X359968Y96227D01*
X360094Y95595D01*
X360890Y94404D01*
X362080Y93609D01*
X363485Y93329D01*
X364890Y93609D01*
X366081Y94404D01*
X366586Y95160D01*
X367983Y95472D01*
X368662Y94922D01*
Y89079D01*
X367405Y88391D01*
X366000Y88671D01*
X364595Y88391D01*
X363405Y87596D01*
X362609Y86405D01*
X362354Y85122D01*
X362301Y85003D01*
X362297Y84790D01*
X362284Y84633D01*
X362262Y84492D01*
X362232Y84366D01*
X362196Y84254D01*
X362154Y84153D01*
X362107Y84062D01*
X362053Y83977D01*
X361991Y83897D01*
X361882Y83778D01*
X361834Y83646D01*
X359826Y81638D01*
X342178D01*
X342153Y81669D01*
X341720Y82908D01*
X350932Y92120D01*
X351685Y91859D01*
X352171Y91563D01*
X352423Y90295D01*
X353218Y89104D01*
X354409Y88309D01*
X355814Y88029D01*
X357219Y88309D01*
X358409Y89104D01*
X359205Y90295D01*
X359484Y91700D01*
X359205Y93105D01*
X358409Y94295D01*
X357219Y95091D01*
X355951Y95343D01*
X355655Y95829D01*
X355393Y96582D01*
X355756Y96944D01*
X355756Y96944D01*
X356187Y97589D01*
X357499Y97674D01*
X357595Y97609D01*
D02*
G37*
G36*
X264142Y114046D02*
Y110050D01*
X264293Y109289D01*
X264724Y108644D01*
X267624Y105744D01*
X268269Y105313D01*
X269030Y105162D01*
X269030Y105162D01*
X288026D01*
X289594Y103594D01*
X290239Y103163D01*
X291000Y103012D01*
X297000D01*
X297761Y103163D01*
X298406Y103594D01*
X299346Y104535D01*
X299445Y104562D01*
X299472Y104609D01*
X299524Y104628D01*
X299642Y104736D01*
X299715Y104791D01*
X299788Y104836D01*
X299862Y104871D01*
X299941Y104900D01*
X300029Y104923D01*
X300130Y104939D01*
X300245Y104947D01*
X300378Y104944D01*
X300574Y104926D01*
X300747Y104980D01*
X301001Y104929D01*
X302406Y105209D01*
X302680Y105392D01*
X302889Y105420D01*
X303098Y105540D01*
X303265Y105627D01*
X303629Y105787D01*
X303770Y105837D01*
X303917Y105880D01*
X304056Y105912D01*
X304186Y105934D01*
X304309Y105946D01*
X304470Y105952D01*
X304601Y106012D01*
X322096D01*
X322224Y105952D01*
X322384Y105945D01*
X322485Y105932D01*
X322583Y105910D01*
X322681Y105879D01*
X322782Y105838D01*
X322887Y105784D01*
X322997Y105716D01*
X323112Y105632D01*
X323233Y105530D01*
X323386Y105383D01*
X323507Y105335D01*
X324595Y104609D01*
X325999Y104329D01*
X327404Y104609D01*
X328595Y105404D01*
X329390Y106595D01*
X329428Y106783D01*
X329530Y106901D01*
X329687Y107366D01*
X329751Y107523D01*
X329919Y107871D01*
X329991Y107996D01*
X330071Y108121D01*
X330153Y108232D01*
X330234Y108330D01*
X330264Y108362D01*
X334827D01*
X338244Y104944D01*
X338889Y104513D01*
X339650Y104362D01*
X345837D01*
X346547Y103092D01*
X346329Y102000D01*
X346609Y100595D01*
X347405Y99405D01*
X348595Y98609D01*
X349768Y98376D01*
X350145Y97683D01*
X350278Y97090D01*
X339176Y85988D01*
X317903D01*
X317775Y86047D01*
X317614Y86054D01*
X317514Y86067D01*
X317416Y86089D01*
X317318Y86120D01*
X317217Y86162D01*
X317112Y86216D01*
X317002Y86284D01*
X316887Y86368D01*
X316766Y86470D01*
X316613Y86617D01*
X316492Y86664D01*
X315404Y87391D01*
X313999Y87670D01*
X312595Y87391D01*
X311404Y86595D01*
X310831Y85738D01*
X309409Y85388D01*
X309404Y85391D01*
X307999Y85670D01*
X306595Y85391D01*
X305404Y84595D01*
X304608Y83405D01*
X304329Y82000D01*
X304422Y81531D01*
X303252Y80906D01*
X295319Y88839D01*
X295805Y90012D01*
X304987D01*
X305113Y89952D01*
X305276Y89945D01*
X305349Y89934D01*
X305395Y89922D01*
X305418Y89912D01*
X305428Y89907D01*
X305433Y89902D01*
X305443Y89892D01*
X305461Y89867D01*
X305487Y89820D01*
X305544Y89685D01*
X305603Y89627D01*
X305609Y89595D01*
X306404Y88405D01*
X307595Y87609D01*
X309000Y87330D01*
X310405Y87609D01*
X311595Y88405D01*
X312391Y89595D01*
X312670Y91000D01*
X312391Y92405D01*
X311595Y93595D01*
X310405Y94391D01*
X310092Y95147D01*
X310391Y95595D01*
X310671Y97000D01*
X310391Y98405D01*
X309595Y99595D01*
X308405Y100391D01*
X307000Y100670D01*
X305595Y100391D01*
X304405Y99595D01*
X303609Y98405D01*
X303330Y97000D01*
X303609Y95595D01*
X303834Y95258D01*
X303155Y93988D01*
X286940D01*
X286893Y94062D01*
X286846Y94153D01*
X286804Y94254D01*
X286768Y94366D01*
X286738Y94492D01*
X286716Y94633D01*
X286703Y94790D01*
X286698Y95003D01*
X286646Y95122D01*
X286391Y96405D01*
X285595Y97595D01*
X284405Y98391D01*
X283000Y98671D01*
X281595Y98391D01*
X280404Y97595D01*
X279609Y96405D01*
X279329Y95000D01*
X279609Y93595D01*
X280404Y92404D01*
X281147Y91908D01*
X280762Y90638D01*
X275372D01*
X274694Y91908D01*
X275036Y92421D01*
X275362Y94060D01*
X275036Y95699D01*
X274441Y96590D01*
X274956Y97361D01*
X275282Y99000D01*
X274956Y100639D01*
X274028Y102028D01*
X272639Y102956D01*
X271000Y103282D01*
X269361Y102956D01*
X267972Y102028D01*
X267044Y100639D01*
X266718Y99000D01*
X267044Y97361D01*
X267639Y96470D01*
X267124Y95699D01*
X266798Y94060D01*
X267124Y92421D01*
X267467Y91908D01*
X266788Y90638D01*
X259173D01*
X257988Y91823D01*
Y118404D01*
X259258Y118930D01*
X264142Y114046D01*
D02*
G37*
G36*
X315898Y85503D02*
X316085Y85345D01*
X316277Y85205D01*
X316472Y85085D01*
X316671Y84982D01*
X316873Y84899D01*
X317079Y84833D01*
X317289Y84787D01*
X317502Y84759D01*
X317719Y84750D01*
Y83250D01*
X317502Y83240D01*
X317289Y83213D01*
X317079Y83166D01*
X316873Y83101D01*
X316671Y83017D01*
X316472Y82915D01*
X316277Y82794D01*
X316085Y82655D01*
X315898Y82497D01*
X315713Y82320D01*
Y85680D01*
X315898Y85503D01*
D02*
G37*
G36*
X365976Y82600D02*
X365721Y82595D01*
X365476Y82574D01*
X365242Y82537D01*
X365019Y82485D01*
X364806Y82416D01*
X364604Y82332D01*
X364412Y82233D01*
X364231Y82117D01*
X364060Y81986D01*
X363900Y81839D01*
X362839Y82900D01*
X362986Y83060D01*
X363117Y83231D01*
X363233Y83412D01*
X363332Y83604D01*
X363416Y83806D01*
X363485Y84019D01*
X363537Y84242D01*
X363574Y84476D01*
X363595Y84721D01*
X363600Y84976D01*
X365976Y82600D01*
D02*
G37*
G36*
X379286Y64320D02*
X379102Y64497D01*
X378914Y64655D01*
X378723Y64794D01*
X378528Y64915D01*
X378329Y65017D01*
X378126Y65101D01*
X377920Y65166D01*
X377711Y65213D01*
X377497Y65241D01*
X377280Y65250D01*
Y66750D01*
X377497Y66759D01*
X377711Y66787D01*
X377920Y66834D01*
X378126Y66899D01*
X378329Y66982D01*
X378528Y67085D01*
X378723Y67206D01*
X378914Y67345D01*
X379102Y67503D01*
X379286Y67680D01*
Y64320D01*
D02*
G37*
G36*
X390559Y59369D02*
X390502Y59380D01*
X390424Y59364D01*
X390326Y59320D01*
X390207Y59248D01*
X390068Y59149D01*
X389727Y58866D01*
X389304Y58471D01*
X389061Y58232D01*
X386442Y61271D01*
X389296Y63300D01*
X390559Y59369D01*
D02*
G37*
G36*
X178070Y48198D02*
X178111Y47832D01*
X177648Y46855D01*
X177151Y46824D01*
X177023Y46869D01*
X169436Y54456D01*
X168791Y54887D01*
X168030Y55038D01*
X133773D01*
X129070Y59742D01*
X129596Y61012D01*
X165256D01*
X178070Y48198D01*
D02*
G37*
G36*
X184469Y45691D02*
X184675Y45542D01*
X184900Y45412D01*
X185147Y45299D01*
X185413Y45205D01*
X185700Y45128D01*
X186007Y45069D01*
X186334Y45028D01*
X186682Y45005D01*
X187050Y45000D01*
X184080Y42030D01*
X184075Y42398D01*
X184011Y43073D01*
X183952Y43380D01*
X183875Y43667D01*
X183781Y43933D01*
X183668Y44180D01*
X183538Y44405D01*
X183389Y44611D01*
X183223Y44796D01*
X184284Y45857D01*
X184469Y45691D01*
D02*
G37*
G36*
X176469D02*
X176675Y45542D01*
X176901Y45412D01*
X177147Y45299D01*
X177413Y45205D01*
X177700Y45128D01*
X178007Y45069D01*
X178335Y45028D01*
X178682Y45005D01*
X179050Y45000D01*
X176080Y42030D01*
X176075Y42398D01*
X176011Y43073D01*
X175952Y43380D01*
X175875Y43667D01*
X175781Y43933D01*
X175668Y44180D01*
X175538Y44405D01*
X175389Y44611D01*
X175223Y44796D01*
X176284Y45857D01*
X176469Y45691D01*
D02*
G37*
G36*
X169189Y43491D02*
X169395Y43342D01*
X169621Y43212D01*
X169867Y43099D01*
X170133Y43005D01*
X170420Y42928D01*
X170727Y42869D01*
X171055Y42828D01*
X171402Y42805D01*
X171770Y42800D01*
X168800Y39830D01*
X168795Y40198D01*
X168731Y40873D01*
X168672Y41180D01*
X168596Y41467D01*
X168501Y41733D01*
X168388Y41979D01*
X168258Y42205D01*
X168109Y42411D01*
X167943Y42596D01*
X169004Y43657D01*
X169189Y43491D01*
D02*
G37*
G36*
X213663Y79739D02*
X214094Y79094D01*
X222244Y70944D01*
X222244Y70944D01*
X222889Y70513D01*
X223650Y70362D01*
X223650Y70362D01*
X301837D01*
X302546Y69092D01*
X302329Y68000D01*
X302608Y66595D01*
X303404Y65404D01*
X303453Y65371D01*
X303764Y63637D01*
X303608Y63404D01*
X303329Y62000D01*
X303608Y60595D01*
X304404Y59404D01*
X305595Y58609D01*
X306999Y58329D01*
X308404Y58609D01*
X309595Y59404D01*
X310390Y60595D01*
X310670Y62000D01*
X310608Y62312D01*
X311688Y63391D01*
X312000Y63330D01*
X313405Y63609D01*
X314596Y64405D01*
X315391Y65595D01*
X315455Y65915D01*
X315781Y66985D01*
X316835Y66837D01*
X317438Y66717D01*
X319077Y67043D01*
X320466Y67971D01*
X321394Y69361D01*
X321720Y70999D01*
X321394Y72638D01*
X320983Y73253D01*
X321662Y74524D01*
X351876D01*
X361805Y64594D01*
X361805Y64594D01*
X362450Y64163D01*
X363211Y64012D01*
X377097D01*
X377225Y63952D01*
X377385Y63945D01*
X377486Y63932D01*
X377583Y63911D01*
X377682Y63879D01*
X377783Y63838D01*
X377887Y63784D01*
X377997Y63716D01*
X378112Y63632D01*
X378233Y63530D01*
X378387Y63383D01*
X378508Y63336D01*
X379595Y62609D01*
X381000Y62330D01*
X381560Y62441D01*
X381952Y62207D01*
X382778Y61447D01*
X383044Y60111D01*
X383225Y59839D01*
X362611Y39225D01*
X362524Y39189D01*
X362291Y38958D01*
X361581Y38280D01*
X361458Y38174D01*
X360361Y37956D01*
X359502Y37382D01*
X359499Y37382D01*
X358639Y37956D01*
X357000Y38282D01*
X355361Y37956D01*
X353972Y37028D01*
X353044Y35639D01*
X352761Y34219D01*
X352046Y33622D01*
X351553Y33345D01*
X350271Y33876D01*
X350162Y33890D01*
X350084Y33948D01*
X350081Y33948D01*
X350078Y33950D01*
X348732Y34283D01*
X345432Y35192D01*
X343880Y35710D01*
X343322Y35931D01*
X342904Y36124D01*
X342657Y36266D01*
X342476Y36409D01*
X342374Y36438D01*
X341406Y37406D01*
X340761Y37837D01*
X340000Y37988D01*
X319727D01*
X319658Y38102D01*
X319763Y38479D01*
X320361Y39401D01*
X321404Y39609D01*
X322595Y40405D01*
X323391Y41595D01*
X323670Y43000D01*
X323391Y44405D01*
X322595Y45595D01*
X322093Y45930D01*
X322085Y47452D01*
X322478Y47715D01*
X323406Y49104D01*
X323732Y50743D01*
X323406Y52382D01*
X322478Y53771D01*
X321089Y54699D01*
X319450Y55025D01*
X317811Y54699D01*
X316422Y53771D01*
X315494Y52382D01*
X315168Y50743D01*
X315494Y49104D01*
X316422Y47715D01*
X317356Y47091D01*
X317483Y45747D01*
X317443Y45622D01*
X317404Y45595D01*
X316608Y44405D01*
X316329Y43000D01*
X316508Y42100D01*
X315337Y41474D01*
X295406Y61406D01*
X294761Y61837D01*
X294000Y61988D01*
X217824D01*
X212538Y67274D01*
Y74450D01*
X212387Y75211D01*
X212385Y75213D01*
Y79654D01*
X213655Y79779D01*
X213663Y79739D01*
D02*
G37*
G36*
X359858Y36021D02*
X360694Y36001D01*
X361036Y36000D01*
Y32000D01*
X359858Y31938D01*
Y31900D01*
X359821Y31919D01*
X359764Y31933D01*
X359142Y31900D01*
Y31979D01*
X358306Y31999D01*
X357964Y32000D01*
Y36000D01*
X359142Y36062D01*
Y36100D01*
X359179Y36081D01*
X359236Y36067D01*
X359858Y36100D01*
Y36021D01*
D02*
G37*
G36*
X92041Y155044D02*
X93680Y154718D01*
X95319Y155044D01*
X95817Y154837D01*
X96453Y154274D01*
X97260Y153066D01*
X98583Y152182D01*
X100049Y151891D01*
X100362Y151503D01*
X100771Y150701D01*
X100376Y149750D01*
Y110000D01*
X100852Y108852D01*
X113467Y96237D01*
Y64545D01*
X113618Y63784D01*
X114050Y63139D01*
X128244Y48944D01*
X128889Y48513D01*
X129650Y48362D01*
X160427D01*
X166931Y41857D01*
X166976Y41729D01*
X167097Y41595D01*
X167166Y41499D01*
X167233Y41383D01*
X167296Y41245D01*
X167354Y41081D01*
X167405Y40889D01*
X167444Y40689D01*
X167497Y40127D01*
X167502Y39812D01*
X167528Y39751D01*
X167844Y38161D01*
X168772Y36772D01*
X170161Y35844D01*
X171800Y35518D01*
X173439Y35844D01*
X174828Y36772D01*
X175756Y38161D01*
X177076Y38287D01*
X177441Y38044D01*
X179080Y37718D01*
X180719Y38044D01*
X182108Y38972D01*
X182316Y39284D01*
X183844D01*
X184052Y38972D01*
X185441Y38044D01*
X187080Y37718D01*
X188719Y38044D01*
X190108Y38972D01*
X191036Y40361D01*
X191362Y42000D01*
X191036Y43639D01*
X190108Y45028D01*
X188719Y45956D01*
X187129Y46273D01*
X187068Y46299D01*
X186734Y46303D01*
X186458Y46322D01*
X186210Y46353D01*
X185991Y46395D01*
X185800Y46446D01*
X185635Y46504D01*
X185497Y46568D01*
X185381Y46634D01*
X185285Y46704D01*
X185151Y46824D01*
X185023Y46869D01*
X167486Y64406D01*
X166841Y64837D01*
X166080Y64988D01*
X128823D01*
X122844Y70968D01*
Y97509D01*
X122692Y98270D01*
X122261Y98914D01*
X121616Y99345D01*
X121240Y99420D01*
X110384Y110276D01*
Y114021D01*
X111654Y114734D01*
X112660Y114533D01*
X113987Y114797D01*
X115111Y115549D01*
X115863Y116673D01*
X115928Y117004D01*
X117223D01*
X117257Y116833D01*
X118009Y115709D01*
X119133Y114957D01*
X120460Y114693D01*
X121787Y114957D01*
X122911Y115709D01*
X123073Y115951D01*
X124421Y115682D01*
X124488Y115348D01*
X125239Y114223D01*
X126364Y113471D01*
X127690Y113208D01*
X129017Y113471D01*
X129466Y113772D01*
X130736Y113093D01*
Y97720D01*
X130523Y97401D01*
X130372Y96640D01*
X130523Y95879D01*
X130954Y95234D01*
X146103Y80085D01*
X145839Y78554D01*
X145052Y78028D01*
X144124Y76639D01*
X143798Y75000D01*
X144124Y73361D01*
X145052Y71972D01*
X146441Y71044D01*
X148080Y70718D01*
X149719Y71044D01*
X150540Y71592D01*
X151361Y71044D01*
X153000Y70718D01*
X154639Y71044D01*
X154836Y71175D01*
X154972Y70972D01*
X156361Y70044D01*
X158000Y69718D01*
X159638Y70044D01*
X161028Y70972D01*
X161956Y72361D01*
X162004Y72600D01*
X163219Y72969D01*
X183594Y52594D01*
X184239Y52163D01*
X185000Y52012D01*
X202177D01*
X207012Y47177D01*
Y37400D01*
X207163Y36639D01*
X207298Y36437D01*
X206935Y35239D01*
X206757Y35035D01*
X206361Y34956D01*
X204972Y34028D01*
X204044Y32639D01*
X203749Y31157D01*
X203263Y30901D01*
X202477Y30729D01*
X201805Y31605D01*
X199988Y32999D01*
X197871Y33876D01*
X195600Y34175D01*
X193329Y33876D01*
X191213Y32999D01*
X189395Y31605D01*
X188001Y29787D01*
X187124Y27671D01*
X186825Y25400D01*
X187124Y23129D01*
X188001Y21012D01*
X189395Y19195D01*
X191213Y17801D01*
X193329Y16924D01*
X195600Y16625D01*
X197871Y16924D01*
X199988Y17801D01*
X201805Y19195D01*
X203199Y21012D01*
X203794Y22449D01*
X204151Y22607D01*
X205249Y22787D01*
X206361Y22044D01*
X208000Y21718D01*
X209639Y22044D01*
X211028Y22972D01*
X211225Y23267D01*
X212118Y23172D01*
X212576Y23003D01*
X213401Y21012D01*
X214795Y19195D01*
X216612Y17801D01*
X218729Y16924D01*
X221000Y16625D01*
X223271Y16924D01*
X225387Y17801D01*
X227205Y19195D01*
X228599Y21012D01*
X229476Y23129D01*
X229775Y25400D01*
X229476Y27671D01*
X228599Y29787D01*
X227205Y31605D01*
X225387Y32999D01*
X223271Y33876D01*
X221000Y34175D01*
X220989Y34174D01*
X220929Y34199D01*
X219735Y34202D01*
X218671Y34236D01*
X216802Y34398D01*
X216056Y34517D01*
X215406Y34662D01*
X214873Y34826D01*
X214461Y34999D01*
X214172Y35166D01*
X213897Y35392D01*
X213786Y35426D01*
X210988Y38224D01*
Y48000D01*
X211492Y48615D01*
X239790D01*
X244165Y44240D01*
Y39000D01*
X244304Y38298D01*
X244702Y37702D01*
X247110Y35295D01*
X246548Y34155D01*
X246400Y34175D01*
X244129Y33876D01*
X242013Y32999D01*
X240195Y31605D01*
X238801Y29787D01*
X237924Y27671D01*
X237625Y25400D01*
X237626Y25389D01*
X237602Y25329D01*
X237598Y24135D01*
X237564Y23071D01*
X237402Y21202D01*
X237283Y20456D01*
X237138Y19806D01*
X236974Y19273D01*
X236801Y18861D01*
X236634Y18572D01*
X236408Y18297D01*
X236374Y18186D01*
X231176Y12988D01*
X114824D01*
X107988Y19823D01*
Y31500D01*
X107837Y32261D01*
X107406Y32906D01*
X84988Y55324D01*
Y112177D01*
X88906Y116094D01*
X89337Y116739D01*
X89488Y117500D01*
Y155428D01*
X90238Y155779D01*
X90758Y155901D01*
X92041Y155044D01*
D02*
G37*
G36*
X366268Y35440D02*
X365000Y34030D01*
X362030Y37000D01*
X362069Y37012D01*
X362131Y37050D01*
X362216Y37113D01*
X362453Y37316D01*
X363197Y38027D01*
X363440Y38268D01*
X366268Y35440D01*
D02*
G37*
G36*
X256858Y32900D02*
X256567Y33185D01*
X256006Y33665D01*
X255736Y33860D01*
X255473Y34025D01*
X255217Y34160D01*
X254967Y34265D01*
X254725Y34340D01*
X254489Y34385D01*
X254261Y34400D01*
Y35600D01*
X254489Y35615D01*
X254725Y35660D01*
X254967Y35735D01*
X255217Y35840D01*
X255473Y35975D01*
X255736Y36140D01*
X256006Y36335D01*
X256283Y36560D01*
X256858Y37100D01*
Y32900D01*
D02*
G37*
G36*
X341928Y35187D02*
X342307Y34969D01*
X342809Y34737D01*
X343435Y34489D01*
X345054Y33949D01*
X348403Y33027D01*
X349766Y32689D01*
X340748Y27311D01*
X341002Y28364D01*
X341314Y30254D01*
X341371Y31091D01*
X341363Y31856D01*
X341290Y32549D01*
X341151Y33169D01*
X340946Y33718D01*
X340676Y34194D01*
X340340Y34599D01*
X341671Y35390D01*
X341928Y35187D01*
D02*
G37*
G36*
X315030Y34095D02*
X315483Y33833D01*
X316030Y33603D01*
X316673Y33406D01*
X317411Y33240D01*
X318244Y33108D01*
X320195Y32939D01*
X321312Y32903D01*
X322525Y32900D01*
X315100Y25475D01*
X315097Y26688D01*
X314892Y29756D01*
X314760Y30589D01*
X314594Y31327D01*
X314397Y31970D01*
X314167Y32517D01*
X313905Y32970D01*
X313611Y33328D01*
X314672Y34389D01*
X315030Y34095D01*
D02*
G37*
G36*
X289630D02*
X290082Y33833D01*
X290630Y33603D01*
X291273Y33406D01*
X292011Y33240D01*
X292844Y33108D01*
X294795Y32939D01*
X295912Y32903D01*
X297125Y32900D01*
X289700Y25475D01*
X289697Y26688D01*
X289492Y29756D01*
X289359Y30589D01*
X289194Y31327D01*
X288997Y31970D01*
X288767Y32517D01*
X288505Y32970D01*
X288211Y33328D01*
X289272Y34389D01*
X289630Y34095D01*
D02*
G37*
G36*
X213430D02*
X213883Y33833D01*
X214430Y33603D01*
X215073Y33406D01*
X215811Y33240D01*
X216644Y33108D01*
X218595Y32939D01*
X219712Y32903D01*
X220925Y32900D01*
X213500Y25475D01*
X213497Y26688D01*
X213292Y29756D01*
X213160Y30589D01*
X212994Y31327D01*
X212797Y31970D01*
X212567Y32517D01*
X212305Y32970D01*
X212011Y33328D01*
X213072Y34389D01*
X213430Y34095D01*
D02*
G37*
G36*
X79763Y24456D02*
X79804Y24206D01*
X79872Y23954D01*
X79966Y23700D01*
X80087Y23445D01*
X80236Y23188D01*
X80412Y22929D01*
X80614Y22668D01*
X80843Y22406D01*
X81100Y22142D01*
X76900D01*
X77157Y22406D01*
X77589Y22929D01*
X77764Y23188D01*
X77913Y23445D01*
X78034Y23700D01*
X78128Y23954D01*
X78196Y24206D01*
X78236Y24456D01*
X78250Y24705D01*
X79750D01*
X79763Y24456D01*
D02*
G37*
G36*
X271725Y17900D02*
X270512Y17897D01*
X267444Y17692D01*
X266611Y17559D01*
X265873Y17394D01*
X265230Y17197D01*
X264683Y16967D01*
X264230Y16705D01*
X263872Y16411D01*
X262811Y17472D01*
X263105Y17830D01*
X263367Y18283D01*
X263597Y18830D01*
X263794Y19473D01*
X263960Y20211D01*
X264092Y21044D01*
X264261Y22995D01*
X264297Y24112D01*
X264300Y25325D01*
X271725Y17900D01*
D02*
G37*
G36*
X246325D02*
X245112Y17897D01*
X242044Y17692D01*
X241211Y17559D01*
X240473Y17394D01*
X239830Y17197D01*
X239282Y16967D01*
X238830Y16705D01*
X238472Y16411D01*
X237411Y17472D01*
X237705Y17830D01*
X237967Y18283D01*
X238197Y18830D01*
X238394Y19473D01*
X238559Y20211D01*
X238692Y21044D01*
X238861Y22995D01*
X238897Y24112D01*
X238900Y25325D01*
X246325Y17900D01*
D02*
G37*
G36*
X54857Y15796D02*
X54691Y15611D01*
X54542Y15405D01*
X54412Y15180D01*
X54299Y14933D01*
X54205Y14667D01*
X54128Y14380D01*
X54069Y14073D01*
X54028Y13745D01*
X54005Y13398D01*
X54000Y13030D01*
X51030Y16000D01*
X51398Y16005D01*
X52073Y16069D01*
X52380Y16128D01*
X52667Y16205D01*
X52933Y16299D01*
X53179Y16412D01*
X53405Y16542D01*
X53611Y16691D01*
X53796Y16857D01*
X54857Y15796D01*
D02*
G37*
%LPC*%
G36*
X137000Y242670D02*
X135595Y242391D01*
X134405Y241595D01*
X133609Y240405D01*
X133329Y239000D01*
X133609Y237595D01*
X134405Y236405D01*
X135595Y235609D01*
X137000Y235329D01*
X137468Y235423D01*
X138185Y234270D01*
X137201Y232987D01*
X136324Y230871D01*
X136025Y228600D01*
X136324Y226329D01*
X137201Y224212D01*
X138595Y222395D01*
X140413Y221001D01*
X142529Y220124D01*
X144800Y219825D01*
X147071Y220124D01*
X149187Y221001D01*
X151005Y222395D01*
X152399Y224212D01*
X153276Y226329D01*
X153575Y228600D01*
X153276Y230871D01*
X153224Y230997D01*
X154250Y231839D01*
X154595Y231608D01*
X156000Y231329D01*
X157404Y231608D01*
X158595Y232404D01*
X159391Y233595D01*
X159670Y235000D01*
X159391Y236404D01*
X158595Y237595D01*
X157404Y238391D01*
X156000Y238670D01*
X154595Y238391D01*
X153404Y237595D01*
X152609Y236404D01*
X152355Y235131D01*
X151932Y234898D01*
X151097Y234685D01*
X151005Y234805D01*
X149187Y236199D01*
X147071Y237076D01*
X144800Y237375D01*
X142529Y237076D01*
X141205Y236528D01*
X140363Y237554D01*
X140391Y237595D01*
X140670Y239000D01*
X140391Y240405D01*
X139595Y241595D01*
X138405Y242391D01*
X137000Y242670D01*
D02*
G37*
G36*
X348000Y237375D02*
X345729Y237076D01*
X343613Y236199D01*
X341795Y234805D01*
X340401Y232987D01*
X339524Y230871D01*
X339225Y228600D01*
X339524Y226329D01*
X340401Y224212D01*
X341795Y222395D01*
X343613Y221001D01*
X345729Y220124D01*
X348000Y219825D01*
X350271Y220124D01*
X352388Y221001D01*
X354205Y222395D01*
X355599Y224212D01*
X356476Y226329D01*
X356775Y228600D01*
X356476Y230871D01*
X355599Y232987D01*
X354205Y234805D01*
X352388Y236199D01*
X350271Y237076D01*
X348000Y237375D01*
D02*
G37*
G36*
X322600D02*
X320329Y237076D01*
X318213Y236199D01*
X316395Y234805D01*
X315001Y232987D01*
X314124Y230871D01*
X313825Y228600D01*
X314124Y226329D01*
X315001Y224212D01*
X316395Y222395D01*
X318213Y221001D01*
X320329Y220124D01*
X322600Y219825D01*
X324871Y220124D01*
X326987Y221001D01*
X328805Y222395D01*
X330199Y224212D01*
X331076Y226329D01*
X331375Y228600D01*
X331076Y230871D01*
X330199Y232987D01*
X328805Y234805D01*
X326987Y236199D01*
X324871Y237076D01*
X322600Y237375D01*
D02*
G37*
G36*
X271800D02*
X269529Y237076D01*
X267412Y236199D01*
X265595Y234805D01*
X264201Y232987D01*
X263324Y230871D01*
X263025Y228600D01*
X263324Y226329D01*
X264201Y224212D01*
X265595Y222395D01*
X267412Y221001D01*
X269529Y220124D01*
X271800Y219825D01*
X274071Y220124D01*
X276187Y221001D01*
X278005Y222395D01*
X279399Y224212D01*
X280276Y226329D01*
X280575Y228600D01*
X280276Y230871D01*
X279399Y232987D01*
X278005Y234805D01*
X276187Y236199D01*
X274071Y237076D01*
X271800Y237375D01*
D02*
G37*
G36*
X246400D02*
X244129Y237076D01*
X242013Y236199D01*
X240195Y234805D01*
X238801Y232987D01*
X237924Y230871D01*
X237625Y228600D01*
X237924Y226329D01*
X238801Y224212D01*
X240195Y222395D01*
X242013Y221001D01*
X244129Y220124D01*
X246400Y219825D01*
X248671Y220124D01*
X250788Y221001D01*
X252605Y222395D01*
X253999Y224212D01*
X254876Y226329D01*
X255175Y228600D01*
X254876Y230871D01*
X253999Y232987D01*
X252605Y234805D01*
X250788Y236199D01*
X248671Y237076D01*
X246400Y237375D01*
D02*
G37*
G36*
X119400D02*
X117129Y237076D01*
X115013Y236199D01*
X113195Y234805D01*
X111801Y232987D01*
X110924Y230871D01*
X110625Y228600D01*
X110924Y226329D01*
X111801Y224212D01*
X113195Y222395D01*
X115013Y221001D01*
X117129Y220124D01*
X119400Y219825D01*
X121671Y220124D01*
X123787Y221001D01*
X125605Y222395D01*
X126999Y224212D01*
X127876Y226329D01*
X128175Y228600D01*
X127876Y230871D01*
X126999Y232987D01*
X125605Y234805D01*
X123787Y236199D01*
X121671Y237076D01*
X119400Y237375D01*
D02*
G37*
G36*
X68600D02*
X66329Y237076D01*
X64212Y236199D01*
X62395Y234805D01*
X61001Y232987D01*
X60124Y230871D01*
X59825Y228600D01*
X60124Y226329D01*
X61001Y224212D01*
X62395Y222395D01*
X64212Y221001D01*
X66329Y220124D01*
X68600Y219825D01*
X70871Y220124D01*
X72987Y221001D01*
X74805Y222395D01*
X76199Y224212D01*
X77076Y226329D01*
X77375Y228600D01*
X77076Y230871D01*
X76199Y232987D01*
X74805Y234805D01*
X72987Y236199D01*
X70871Y237076D01*
X68600Y237375D01*
D02*
G37*
G36*
X43200D02*
X40929Y237076D01*
X38812Y236199D01*
X36995Y234805D01*
X35601Y232987D01*
X34724Y230871D01*
X34425Y228600D01*
X34724Y226329D01*
X35601Y224212D01*
X36995Y222395D01*
X38812Y221001D01*
X40929Y220124D01*
X43200Y219825D01*
X45471Y220124D01*
X47587Y221001D01*
X49405Y222395D01*
X50799Y224212D01*
X51676Y226329D01*
X51975Y228600D01*
X51676Y230871D01*
X50799Y232987D01*
X49405Y234805D01*
X47587Y236199D01*
X45471Y237076D01*
X43200Y237375D01*
D02*
G37*
G36*
X349000Y215671D02*
X347595Y215391D01*
X347000Y214993D01*
X346405Y215391D01*
X345000Y215671D01*
X343595Y215391D01*
X342405Y214596D01*
X341609Y213405D01*
X341329Y212000D01*
X341609Y210595D01*
X342405Y209405D01*
X343595Y208609D01*
X345000Y208330D01*
X346405Y208609D01*
X347000Y209007D01*
X347595Y208609D01*
X349000Y208330D01*
X350405Y208609D01*
X351595Y209405D01*
X352391Y210595D01*
X352671Y212000D01*
X352391Y213405D01*
X351595Y214596D01*
X350405Y215391D01*
X349000Y215671D01*
D02*
G37*
G36*
X393000Y211282D02*
X391361Y210956D01*
X390000Y210047D01*
X388639Y210956D01*
X387000Y211282D01*
X385361Y210956D01*
X383972Y210028D01*
X383044Y208639D01*
X382718Y207000D01*
X383044Y205361D01*
X383972Y203972D01*
X385361Y203044D01*
X387000Y202718D01*
X388639Y203044D01*
X390000Y203953D01*
X391361Y203044D01*
X393000Y202718D01*
X394639Y203044D01*
X396028Y203972D01*
X396956Y205361D01*
X397282Y207000D01*
X396956Y208639D01*
X396028Y210028D01*
X394639Y210956D01*
X393000Y211282D01*
D02*
G37*
G36*
X37080Y214282D02*
X35441Y213956D01*
X34052Y213028D01*
X33124Y211639D01*
X32798Y210000D01*
X33124Y208361D01*
X34052Y206972D01*
X35441Y206044D01*
X37080Y205718D01*
X38719Y206044D01*
X40108Y206972D01*
X41036Y208361D01*
X41362Y210000D01*
X41036Y211639D01*
X40108Y213028D01*
X38719Y213956D01*
X37080Y214282D01*
D02*
G37*
G36*
X58080Y218282D02*
X56441Y217956D01*
X55052Y217028D01*
X54124Y215639D01*
X53798Y214000D01*
X54124Y212361D01*
X55052Y210972D01*
X56441Y210044D01*
X58080Y209718D01*
X59719Y210044D01*
X60251Y210399D01*
X61394Y209636D01*
X61218Y208750D01*
X61544Y207111D01*
X62472Y205722D01*
X63861Y204794D01*
X65500Y204468D01*
X67139Y204794D01*
X68528Y205722D01*
X69456Y207111D01*
X69667Y208173D01*
X70962D01*
X71124Y207361D01*
X72052Y205972D01*
X73441Y205044D01*
X75080Y204718D01*
X76719Y205044D01*
X78108Y205972D01*
X79036Y207361D01*
X79362Y209000D01*
X79036Y210639D01*
X78108Y212028D01*
X76719Y212956D01*
X75080Y213282D01*
X73441Y212956D01*
X72052Y212028D01*
X71124Y210639D01*
X70913Y209577D01*
X69618D01*
X69456Y210389D01*
X68528Y211778D01*
X67139Y212706D01*
X65500Y213032D01*
X63861Y212706D01*
X63329Y212351D01*
X62186Y213114D01*
X62362Y214000D01*
X62036Y215639D01*
X61108Y217028D01*
X59719Y217956D01*
X58080Y218282D01*
D02*
G37*
G36*
X21080Y209132D02*
X18856Y208689D01*
X16970Y207430D01*
X15711Y205544D01*
X15268Y203320D01*
X15711Y201096D01*
X16970Y199210D01*
X18856Y197951D01*
X21080Y197508D01*
X23304Y197951D01*
X25189Y199210D01*
X26449Y201096D01*
X26892Y203320D01*
X26449Y205544D01*
X25189Y207430D01*
X23304Y208689D01*
X21080Y209132D01*
D02*
G37*
G36*
X103080Y202467D02*
X101753Y202203D01*
X100629Y201451D01*
X99877Y200327D01*
X99613Y199000D01*
X99877Y197673D01*
X100629Y196549D01*
X101753Y195797D01*
X103080Y195533D01*
X104407Y195797D01*
X105531Y196549D01*
X106283Y197673D01*
X106547Y199000D01*
X106283Y200327D01*
X105531Y201451D01*
X104407Y202203D01*
X103080Y202467D01*
D02*
G37*
G36*
X145000Y184467D02*
X143673Y184203D01*
X142549Y183451D01*
X141797Y182327D01*
X141533Y181000D01*
X141797Y179673D01*
X142549Y178549D01*
X143673Y177797D01*
X145000Y177533D01*
X146327Y177797D01*
X147451Y178549D01*
X148203Y179673D01*
X148467Y181000D01*
X148203Y182327D01*
X147451Y183451D01*
X146327Y184203D01*
X145000Y184467D01*
D02*
G37*
G36*
X136000D02*
X134673Y184203D01*
X133549Y183451D01*
X132797Y182327D01*
X132533Y181000D01*
X132797Y179673D01*
X133549Y178549D01*
X134673Y177797D01*
X136000Y177533D01*
X137327Y177797D01*
X138451Y178549D01*
X139203Y179673D01*
X139467Y181000D01*
X139203Y182327D01*
X138451Y183451D01*
X137327Y184203D01*
X136000Y184467D01*
D02*
G37*
G36*
X21080Y188812D02*
X18856Y188369D01*
X16970Y187110D01*
X15711Y185224D01*
X15268Y183000D01*
X15711Y180776D01*
X16970Y178890D01*
X18856Y177631D01*
X21080Y177188D01*
X23304Y177631D01*
X25189Y178890D01*
X26449Y180776D01*
X26892Y183000D01*
X26449Y185224D01*
X25189Y187110D01*
X23304Y188369D01*
X21080Y188812D01*
D02*
G37*
G36*
X53080Y104282D02*
X51441Y103956D01*
X50052Y103028D01*
X49124Y101639D01*
X48798Y100000D01*
X49124Y98361D01*
X50033Y97000D01*
X49124Y95639D01*
X48798Y94000D01*
X49124Y92361D01*
X50033Y91000D01*
X49124Y89639D01*
X48798Y88000D01*
X49124Y86361D01*
X50052Y84972D01*
X50062Y84965D01*
X49566Y83769D01*
X48243Y84032D01*
X46604Y83706D01*
X45215Y82778D01*
X44287Y81389D01*
X43961Y79750D01*
X44287Y78111D01*
X44858Y77257D01*
X44287Y76403D01*
X43961Y74764D01*
X44287Y73125D01*
X45215Y71736D01*
X46604Y70808D01*
X48243Y70482D01*
X49882Y70808D01*
X51271Y71736D01*
X52200Y73125D01*
X52525Y74764D01*
X52459Y75098D01*
X53212Y75851D01*
X53578Y75983D01*
X55139Y76294D01*
X56528Y77222D01*
X57456Y78611D01*
X57782Y80250D01*
X57456Y81889D01*
X56528Y83278D01*
X56193Y83502D01*
X56108Y84972D01*
X57036Y86361D01*
X57362Y88000D01*
X57036Y89639D01*
X56127Y91000D01*
X57036Y92361D01*
X57362Y94000D01*
X57036Y95639D01*
X56127Y97000D01*
X57036Y98361D01*
X57362Y100000D01*
X57036Y101639D01*
X56108Y103028D01*
X54719Y103956D01*
X53080Y104282D01*
D02*
G37*
G36*
X22860Y72158D02*
X19684Y71846D01*
X16631Y70919D01*
X13816Y69415D01*
X11350Y67390D01*
X9325Y64924D01*
X7821Y62109D01*
X6894Y59056D01*
X6582Y55880D01*
X6894Y52704D01*
X7821Y49651D01*
X9325Y46836D01*
X11350Y44370D01*
X13816Y42345D01*
X16631Y40841D01*
X19684Y39914D01*
X22860Y39602D01*
X26036Y39914D01*
X29090Y40841D01*
X31904Y42345D01*
X34371Y44370D01*
X36395Y46836D01*
X37899Y49651D01*
X38826Y52704D01*
X39138Y55880D01*
X38826Y59056D01*
X37899Y62109D01*
X36395Y64924D01*
X34371Y67390D01*
X31904Y69415D01*
X29090Y70919D01*
X26036Y71846D01*
X22860Y72158D01*
D02*
G37*
G36*
X205000Y164527D02*
X203673Y164263D01*
X202548Y163511D01*
X201797Y162387D01*
X201533Y161060D01*
X201797Y159733D01*
X202548Y158609D01*
X203673Y157857D01*
X205000Y157593D01*
X206326Y157857D01*
X207451Y158609D01*
X208202Y159733D01*
X208466Y161060D01*
X208202Y162387D01*
X207451Y163511D01*
X206326Y164263D01*
X205000Y164527D01*
D02*
G37*
G36*
X184460Y160627D02*
X183133Y160363D01*
X182009Y159611D01*
X181257Y158487D01*
X180993Y157160D01*
X181257Y155833D01*
X182009Y154709D01*
X183133Y153957D01*
X184460Y153693D01*
X185787Y153957D01*
X186911Y154709D01*
X187663Y155833D01*
X187927Y157160D01*
X187663Y158487D01*
X186911Y159611D01*
X185787Y160363D01*
X184460Y160627D01*
D02*
G37*
G36*
X192080Y152467D02*
X190753Y152203D01*
X189629Y151451D01*
X188877Y150327D01*
X188613Y149000D01*
X188877Y147673D01*
X189629Y146549D01*
X190753Y145797D01*
X192080Y145533D01*
X193407Y145797D01*
X194531Y146549D01*
X195283Y147673D01*
X195547Y149000D01*
X195283Y150327D01*
X194531Y151451D01*
X193407Y152203D01*
X192080Y152467D01*
D02*
G37*
G36*
X384300Y119170D02*
X382895Y118891D01*
X381704Y118095D01*
X380909Y116904D01*
X380629Y115500D01*
X380909Y114095D01*
X381704Y112904D01*
X382895Y112109D01*
X384300Y111829D01*
X385192Y112007D01*
X385424Y111660D01*
X386614Y110864D01*
X388019Y110585D01*
X389424Y110864D01*
X390614Y111660D01*
X391410Y112851D01*
X391689Y114256D01*
X391410Y115660D01*
X390614Y116851D01*
X389424Y117647D01*
X388019Y117926D01*
X387127Y117749D01*
X386895Y118095D01*
X385705Y118891D01*
X384300Y119170D01*
D02*
G37*
G36*
X358566Y19670D02*
X357161Y19391D01*
X355971Y18595D01*
X355175Y17405D01*
X354896Y16000D01*
X355175Y14595D01*
X355971Y13405D01*
X357161Y12609D01*
X358566Y12329D01*
X359971Y12609D01*
X361161Y13405D01*
X361957Y14595D01*
X362237Y16000D01*
X361957Y17405D01*
X361161Y18595D01*
X359971Y19391D01*
X358566Y19670D01*
D02*
G37*
G36*
X285000Y19737D02*
X283361Y19411D01*
X281972Y18483D01*
X281044Y17094D01*
X280718Y15455D01*
X281044Y13816D01*
X281972Y12427D01*
X283361Y11499D01*
X285000Y11173D01*
X286639Y11499D01*
X288028Y12427D01*
X288956Y13816D01*
X289282Y15455D01*
X288956Y17094D01*
X288028Y18483D01*
X286639Y19411D01*
X285000Y19737D01*
D02*
G37*
G36*
X336999Y95670D02*
X335595Y95391D01*
X334404Y94595D01*
X333608Y93405D01*
X333329Y92000D01*
X333608Y90595D01*
X334404Y89404D01*
X335595Y88609D01*
X336999Y88329D01*
X338404Y88609D01*
X339595Y89404D01*
X340391Y90595D01*
X340670Y92000D01*
X340391Y93405D01*
X339595Y94595D01*
X338404Y95391D01*
X336999Y95670D01*
D02*
G37*
G36*
X333999Y66282D02*
X332361Y65956D01*
X330971Y65028D01*
X330043Y63639D01*
X329717Y62000D01*
X330043Y60361D01*
X330971Y58972D01*
X332361Y58044D01*
X333999Y57718D01*
X335638Y58044D01*
X337027Y58972D01*
X337956Y60361D01*
X338282Y62000D01*
X337956Y63639D01*
X337027Y65028D01*
X335638Y65956D01*
X333999Y66282D01*
D02*
G37*
G36*
X367000Y56282D02*
X365361Y55956D01*
X363972Y55028D01*
X363044Y53639D01*
X362718Y52000D01*
X363044Y50361D01*
X363972Y48972D01*
X365361Y48044D01*
X367000Y47718D01*
X368639Y48044D01*
X370028Y48972D01*
X370956Y50361D01*
X371282Y52000D01*
X370956Y53639D01*
X370028Y55028D01*
X368639Y55956D01*
X367000Y56282D01*
D02*
G37*
G36*
X131080Y88671D02*
X129675Y88391D01*
X128485Y87596D01*
X127689Y86405D01*
X127409Y85000D01*
X127689Y83595D01*
X128485Y82405D01*
X129675Y81609D01*
X131080Y81329D01*
X132485Y81609D01*
X133675Y82405D01*
X134471Y83595D01*
X134750Y85000D01*
X134471Y86405D01*
X133675Y87596D01*
X132485Y88391D01*
X131080Y88671D01*
D02*
G37*
G36*
X91004Y85925D02*
X89600Y85645D01*
X88409Y84850D01*
X87613Y83659D01*
X87334Y82254D01*
X87613Y80849D01*
X88409Y79659D01*
X89600Y78863D01*
X90590Y78666D01*
X91143Y78252D01*
X91506Y77388D01*
X91329Y76500D01*
X91466Y75814D01*
X90595Y75641D01*
X89404Y74845D01*
X88609Y73655D01*
X88329Y72250D01*
X88609Y70845D01*
X89090Y70125D01*
X88609Y69405D01*
X88329Y68000D01*
X88609Y66595D01*
X89404Y65405D01*
X90595Y64609D01*
X92000Y64330D01*
X93405Y64609D01*
X94595Y65405D01*
X95391Y66595D01*
X95670Y68000D01*
X95391Y69405D01*
X94910Y70125D01*
X95391Y70845D01*
X95670Y72250D01*
X95534Y72936D01*
X96405Y73109D01*
X97595Y73905D01*
X98391Y75095D01*
X98671Y76500D01*
X98391Y77905D01*
X97595Y79095D01*
X96405Y79891D01*
X95414Y80088D01*
X94861Y80502D01*
X94498Y81366D01*
X94675Y82254D01*
X94396Y83659D01*
X93600Y84850D01*
X92409Y85645D01*
X91004Y85925D01*
D02*
G37*
G36*
X170200Y34175D02*
X167929Y33876D01*
X165812Y32999D01*
X163995Y31605D01*
X162601Y29787D01*
X161724Y27671D01*
X161425Y25400D01*
X161724Y23129D01*
X162601Y21012D01*
X163995Y19195D01*
X165812Y17801D01*
X167929Y16924D01*
X170200Y16625D01*
X172471Y16924D01*
X174587Y17801D01*
X176405Y19195D01*
X177799Y21012D01*
X178676Y23129D01*
X178975Y25400D01*
X178676Y27671D01*
X177799Y29787D01*
X176405Y31605D01*
X174587Y32999D01*
X172471Y33876D01*
X170200Y34175D01*
D02*
G37*
G36*
X144800D02*
X142529Y33876D01*
X140413Y32999D01*
X138595Y31605D01*
X137201Y29787D01*
X136324Y27671D01*
X136025Y25400D01*
X136324Y23129D01*
X137201Y21012D01*
X138595Y19195D01*
X140413Y17801D01*
X142529Y16924D01*
X144800Y16625D01*
X147071Y16924D01*
X149187Y17801D01*
X151005Y19195D01*
X152399Y21012D01*
X153276Y23129D01*
X153575Y25400D01*
X153276Y27671D01*
X152399Y29787D01*
X151005Y31605D01*
X149187Y32999D01*
X147071Y33876D01*
X144800Y34175D01*
D02*
G37*
G36*
X119400D02*
X117129Y33876D01*
X115013Y32999D01*
X113195Y31605D01*
X111801Y29787D01*
X110924Y27671D01*
X110625Y25400D01*
X110924Y23129D01*
X111801Y21012D01*
X113195Y19195D01*
X115013Y17801D01*
X117129Y16924D01*
X119400Y16625D01*
X121671Y16924D01*
X123787Y17801D01*
X125605Y19195D01*
X126999Y21012D01*
X127876Y23129D01*
X128175Y25400D01*
X127876Y27671D01*
X126999Y29787D01*
X125605Y31605D01*
X123787Y32999D01*
X121671Y33876D01*
X119400Y34175D01*
D02*
G37*
%LPD*%
D10*
X287530Y184500D02*
X310500D01*
X357000Y155000D02*
X358000D01*
X357000Y156000D02*
X358000Y155000D01*
X288031Y184000D02*
X288999D01*
X287530Y184500D02*
X288031Y184000D01*
X324000Y150000D02*
X352000D01*
X320000Y146000D02*
X324000Y150000D01*
X392293Y156000D02*
X400300D01*
X360000Y201000D02*
X385550Y175450D01*
X327000Y201000D02*
X360000D01*
X310500Y184500D02*
X327000Y201000D01*
X352000Y150000D02*
X357000Y155000D01*
X385550Y162743D02*
Y175450D01*
Y162743D02*
X392293Y156000D01*
D11*
X132360Y96640D02*
Y158975D01*
X102000Y110000D02*
X115455Y96545D01*
X106000Y109182D02*
X118155Y97027D01*
X108760Y109604D02*
X120855Y97509D01*
X197000Y180000D02*
X207500Y169500D01*
X203818Y142000D02*
X211080Y134738D01*
X199000Y142000D02*
X203818D01*
X202080Y137000D02*
X205000D01*
X135000Y204000D02*
X138000D01*
X142000Y208000D01*
X144000Y204000D02*
X157000D01*
X161000Y208000D01*
X114000Y196000D02*
Y202000D01*
Y196000D02*
X121000Y189000D01*
X158000D01*
X173900Y204900D01*
X191928D01*
X199000Y197828D01*
Y186000D02*
Y197828D01*
Y186000D02*
X200000Y185000D01*
X202325D01*
X202385Y185060D01*
X205615D01*
X205675Y185000D01*
X211080D01*
X182000Y199000D02*
X195000D01*
X180360Y197360D02*
X182000Y199000D01*
X180360Y177060D02*
Y197360D01*
X176460Y173160D02*
X180360Y177060D01*
X197000Y130000D02*
Y140000D01*
X199000Y142000D01*
X197000Y180000D02*
Y197000D01*
X195000Y199000D02*
X197000Y197000D01*
X166000Y92000D02*
Y98000D01*
X163250Y100750D02*
X166000Y98000D01*
X163250Y100750D02*
Y104750D01*
X200738Y130000D02*
X207000D01*
X197860Y123860D02*
Y127121D01*
X191160Y117160D02*
X197860Y123860D01*
Y127121D02*
X200738Y130000D01*
X201760Y108240D02*
Y125506D01*
X192160Y125160D02*
X197000Y130000D01*
X153000Y115000D02*
X163250Y104750D01*
X207000Y130000D02*
X210150Y126850D01*
Y118665D02*
Y126850D01*
X210100Y118615D02*
X210150Y118665D01*
X210100Y115385D02*
Y118615D01*
Y115385D02*
X210150Y115335D01*
Y110100D02*
Y115335D01*
X111000Y153250D02*
X124550D01*
X106000Y148250D02*
X111000Y153250D01*
X106000Y109182D02*
Y148250D01*
X124550Y153250D02*
X128460Y157160D01*
X113000Y160750D02*
Y165160D01*
X102000Y149750D02*
X113000Y160750D01*
X102000Y110000D02*
Y149750D01*
X101500Y169500D02*
X105000Y173000D01*
X95080Y169500D02*
X101500D01*
X149000Y95000D02*
Y144000D01*
X153000Y115000D02*
Y146000D01*
X144080Y92000D02*
Y117160D01*
X203000Y198000D02*
X206000Y195000D01*
X211080D01*
X108760Y134760D02*
X115160Y141160D01*
X108760Y109604D02*
Y134760D01*
X204000Y181160D02*
X209840D01*
X210000Y181000D01*
X106615Y176900D02*
X110515Y173000D01*
X99485D02*
X103384Y176900D01*
X95080Y173000D02*
X99485D01*
X110515D02*
X112000D01*
X103384Y176900D02*
X106615D01*
X157940Y169060D02*
X162980Y164020D01*
X153000Y146000D02*
X162980Y155980D01*
Y164020D01*
X95080Y182080D02*
X99000Y186000D01*
X184460Y125160D02*
X192160D01*
X184460Y117160D02*
X191160D01*
X153000Y146000D02*
X153000D01*
X124560Y169060D02*
X157940D01*
X120460Y173160D02*
X124560Y169060D01*
X130075Y161260D02*
X132360Y158975D01*
X128460Y165160D02*
X130945D01*
X124560Y161260D02*
X130075D01*
X120460Y157160D02*
X124560Y161260D01*
X138075D02*
X141000Y158335D01*
Y152000D02*
Y158335D01*
Y152000D02*
X149000Y144000D01*
X134845Y161260D02*
X138075D01*
X130945Y165160D02*
X134845Y161260D01*
X115160Y141160D02*
X120460D01*
D12*
X347076Y109400D02*
X352676Y115000D01*
X337000Y114000D02*
X341600Y109400D01*
X347076D01*
X369750Y117000D02*
X379600Y107150D01*
X378000Y93000D02*
X379600Y94600D01*
Y107150D01*
X365000Y117000D02*
X369750D01*
X352676Y115000D02*
X363000D01*
X375000Y93000D02*
X378000D01*
X363000Y115000D02*
X365000Y117000D01*
X326000Y114000D02*
X337000D01*
D13*
X317438Y71562D02*
X317826Y71174D01*
X301001Y108600D02*
Y108999D01*
Y108600D02*
X301400D01*
X299199Y112950D02*
X312802D01*
X250400Y129600D02*
X253000Y127000D01*
X222198Y129600D02*
X250400D01*
X221407Y128809D02*
X222198Y129600D01*
X230275Y140400D02*
X230525Y140150D01*
X215500Y80500D02*
X223650Y72350D01*
X115455Y64545D02*
X129650Y50350D01*
X118155Y67845D02*
Y97027D01*
Y67845D02*
X132950Y53050D01*
X120855Y70145D02*
Y97509D01*
Y70145D02*
X128000Y63000D01*
X132360Y96640D02*
X149050Y79950D01*
X185000Y54000D02*
X203000D01*
X158950Y85050D02*
X161827D01*
X160050Y78950D02*
X185000Y54000D01*
X160031Y78950D02*
X160050D01*
X159031Y79950D02*
X160031Y78950D01*
X149050Y79950D02*
X159031D01*
X186877Y60000D02*
X207818D01*
X161827Y85050D02*
X186877Y60000D01*
X207850Y65150D02*
Y73867D01*
X199867Y81850D02*
X207850Y73867D01*
X176150Y81850D02*
X199867D01*
X363211Y66000D02*
X381000D01*
X352700Y76512D02*
X363211Y66000D01*
X315388Y76512D02*
X352700D01*
X316087Y72350D02*
X317438Y70999D01*
X223650Y72350D02*
X316087D01*
X360650Y79650D02*
X366000Y85000D01*
X314650Y79650D02*
X360650D01*
X313926Y75050D02*
X315388Y76512D01*
X313000Y78000D02*
X314650Y79650D01*
X317438Y70999D02*
Y71561D01*
X370650Y85198D02*
Y96198D01*
X363848Y103000D02*
X370650Y96198D01*
X297000Y105000D02*
X301000Y109000D01*
X354833Y112000D02*
X367999D01*
X349183Y106350D02*
X354833Y112000D01*
X339650Y106350D02*
X349183D01*
X335650Y110350D02*
X339650Y106350D01*
X362350Y154198D02*
Y160062D01*
X345000Y177412D02*
X362350Y160062D01*
X345000Y177412D02*
Y184000D01*
X382000Y160000D02*
Y172508D01*
X356708Y197800D02*
X382000Y172508D01*
X331799Y197800D02*
X356708D01*
X260061Y190004D02*
X270215Y179850D01*
X269097Y177150D02*
X282850D01*
X276848Y165000D02*
X283198Y171350D01*
X265819Y165000D02*
X276848D01*
X264673Y162300D02*
X288050D01*
X280552Y159600D02*
X283100Y157052D01*
X263555Y159600D02*
X280552D01*
X277500Y154000D02*
X278750Y155250D01*
X283100Y152900D02*
X289999Y146001D01*
X283100Y152900D02*
Y157052D01*
X283969Y179850D02*
X285509Y178309D01*
X270215Y179850D02*
X283969D01*
X282850Y177150D02*
X285300Y174700D01*
X257361Y188886D02*
X269097Y177150D01*
X257361Y188886D02*
Y193942D01*
X260061Y190004D02*
Y195060D01*
X254661Y176158D02*
X265819Y165000D01*
X254661Y176158D02*
Y192823D01*
X283198Y171350D02*
X304650D01*
X288050Y162300D02*
X292750Y167000D01*
X252805Y170350D02*
X263555Y159600D01*
X253923Y173050D02*
X264673Y162300D01*
X244950Y173050D02*
X253923D01*
X245780Y170350D02*
X252805D01*
X238121Y217000D02*
X260061Y195060D01*
X237253Y214050D02*
X257361Y193942D01*
X236135Y211350D02*
X254661Y192823D01*
X302477Y75050D02*
X313926D01*
X313999Y84000D02*
X340000D01*
X318000Y36000D02*
X340000D01*
X294000Y60000D02*
X318000Y36000D01*
X340000Y84000D02*
X354350Y98350D01*
X285509Y178309D02*
X312309D01*
X285300Y174700D02*
X323700D01*
X340050Y191050D01*
X312309Y178309D02*
X328049Y194049D01*
X153000Y217000D02*
X238121D01*
X159050Y214050D02*
X237253D01*
X164350Y211350D02*
X236135D01*
X359000Y101000D02*
X361000Y103000D01*
X366000Y107000D02*
X368000Y105000D01*
X328250Y145000D02*
X334000D01*
X336000Y143000D01*
Y136148D02*
Y143000D01*
X312802Y112950D02*
X336000Y136148D01*
X115455Y64545D02*
Y96545D01*
X106000Y19000D02*
Y31500D01*
X83000Y54500D02*
X106000Y31500D01*
X83000Y54500D02*
Y113000D01*
X214348Y169500D02*
X215848Y171000D01*
X207500Y169500D02*
X214348D01*
X362000Y147000D02*
X365243Y143757D01*
X369518D01*
X79000Y20000D02*
Y43000D01*
X84000Y15000D02*
Y47000D01*
X71000Y51000D02*
X79000Y43000D01*
X65300Y40300D02*
Y134118D01*
X55000Y30000D02*
X65300Y40300D01*
X55000Y17000D02*
Y30000D01*
X329350Y110350D02*
X335650D01*
X382000Y160000D02*
X389000Y153000D01*
Y142000D02*
Y153000D01*
Y142000D02*
X397000Y134000D01*
X373848Y82000D02*
X388000D01*
X370650Y85198D02*
X373848Y82000D01*
X215500Y80500D02*
Y101500D01*
X252000Y154000D02*
X277500D01*
X248000Y158000D02*
X252000Y154000D01*
X243000Y158000D02*
X248000D01*
X215848Y171000D02*
X226080D01*
X369000Y151000D02*
Y159558D01*
X360000Y168818D02*
X365050Y163768D01*
Y153950D02*
Y163768D01*
X360000Y168818D02*
Y184000D01*
X208000Y146000D02*
X213650Y140350D01*
X155000Y210000D02*
X159050Y214050D01*
X161000Y208000D02*
X164350Y211350D01*
X325250Y142000D02*
X328250Y145000D01*
X324900Y141650D02*
X325250Y142000D01*
X313243Y135757D02*
X326016D01*
X361000Y103000D02*
X363848D01*
X203000Y54000D02*
X209000Y48000D01*
Y37400D02*
Y48000D01*
Y37400D02*
X221000Y25400D01*
X210550Y66450D02*
X217000Y60000D01*
X210550Y66450D02*
Y74450D01*
X217000Y60000D02*
X294000D01*
X142000Y208000D02*
X144000Y210000D01*
X155000D01*
X357000Y148848D02*
X362350Y154198D01*
X369000Y159558D02*
X372000Y162558D01*
Y177000D01*
X344999Y114000D02*
Y114999D01*
X354350Y104350D02*
X357000Y107000D01*
X354350Y98350D02*
Y104350D01*
X357000Y107000D02*
X366000D01*
X226061Y189200D02*
X228961Y186300D01*
X215000Y185000D02*
X219200Y189200D01*
X226061D01*
X211080Y185000D02*
X215000D01*
X228961Y185221D02*
Y186300D01*
Y185221D02*
X243882Y170300D01*
X211080Y195000D02*
X224080D01*
X231661Y187419D01*
Y186339D02*
X244950Y173050D01*
X231661Y186339D02*
Y187419D01*
X227300Y173700D02*
X243000Y158000D01*
X218300Y173700D02*
X227300D01*
X211000Y181000D02*
X218300Y173700D01*
X226080Y171000D02*
X229030Y168050D01*
X243882Y170300D02*
X245730D01*
X245780Y170350D01*
X289999Y138000D02*
Y146001D01*
X328049Y194050D02*
X331799Y197800D01*
X328049Y194049D02*
Y194050D01*
X304650Y171350D02*
X307000Y169000D01*
X357950Y191050D02*
X372000Y177000D01*
X340050Y191050D02*
X357950D01*
X291577Y85950D02*
X302477Y75050D01*
X308000Y92000D02*
X309000Y91000D01*
X286000Y92000D02*
X308000D01*
X283000Y95000D02*
X286000Y92000D01*
X292696Y88650D02*
X303346Y78000D01*
X258350Y88650D02*
X292696D01*
X253000Y90181D02*
X257231Y85950D01*
X256000Y91000D02*
X258350Y88650D01*
X257231Y85950D02*
X291577D01*
X397000Y91000D02*
Y134000D01*
X388000Y82000D02*
X397000Y91000D01*
X87000Y210000D02*
X119000D01*
X123000Y201000D02*
Y206000D01*
X119000Y210000D02*
X123000Y206000D01*
X327000Y108000D02*
X329350Y110350D01*
X325999Y108000D02*
X327000D01*
X362000Y147000D02*
Y150030D01*
X355650Y188350D02*
X360000Y184000D01*
X342350Y188350D02*
X355650D01*
X337000Y183000D02*
X342350Y188350D01*
X337000Y173000D02*
Y183000D01*
X314000Y150000D02*
X337000Y173000D01*
X314000Y143000D02*
Y150000D01*
Y143000D02*
X315350Y141650D01*
X324900D01*
X357000Y142549D02*
Y148848D01*
X351000Y136549D02*
X357000Y142549D01*
X307000Y142000D02*
X313243Y135757D01*
X307000Y142000D02*
Y169000D01*
X317438Y71561D02*
X317438Y71562D01*
X253000Y90181D02*
Y127000D01*
X256000Y91000D02*
Y129000D01*
X292000Y56000D02*
X322600Y25400D01*
X340000Y36000D02*
X348000Y28000D01*
X296249Y110000D02*
X299199Y112950D01*
X295000Y110000D02*
X296249D01*
X302831Y120400D02*
X314100D01*
X297080Y114650D02*
X302831Y120400D01*
X289350Y114650D02*
X297080D01*
X301400Y108600D02*
X302000Y108000D01*
X301000Y109000D02*
X301001Y108999D01*
X291000Y105000D02*
X297000D01*
X288850Y107150D02*
X291000Y105000D01*
X269030Y107150D02*
X288850D01*
X272000Y132000D02*
X289350Y114650D01*
X302000Y108000D02*
X325999D01*
X213191Y128809D02*
X221407D01*
X205000Y137000D02*
X213191Y128809D01*
X252700Y132300D02*
X256000Y129000D01*
X219452Y132300D02*
X252700D01*
X218802Y131650D02*
X219452Y132300D01*
X218861Y140350D02*
X223211Y136000D01*
X254000D02*
X259597Y130402D01*
X223211Y136000D02*
X254000D01*
X211080Y134738D02*
X214168Y131650D01*
X218802D01*
X217750Y149097D02*
X226448Y140400D01*
X230275D01*
X230525Y140150D02*
X257487D01*
X265637Y132000D01*
X272000D01*
X217750Y149097D02*
Y149750D01*
X213650Y140350D02*
X218861D01*
X351000Y121000D02*
Y136549D01*
X344999Y114999D02*
X351000Y121000D01*
X284000Y137000D02*
X290000Y131000D01*
X264951Y137000D02*
X284000D01*
X248331Y153620D02*
X264951Y137000D01*
X348000Y25400D02*
Y28000D01*
X207850Y65150D02*
X217000Y56000D01*
X176000Y82000D02*
X176150Y81850D01*
X266130Y110050D02*
Y114870D01*
Y110050D02*
X269030Y107150D01*
X243380Y153620D02*
X248331D01*
X229030Y167970D02*
X243380Y153620D01*
X229030Y167970D02*
Y168050D01*
X259597Y121403D02*
Y130402D01*
Y121403D02*
X266130Y114870D01*
X210150Y106850D02*
Y110100D01*
Y106850D02*
X215500Y101500D01*
X83000Y113000D02*
X87500Y117500D01*
X93500Y169500D02*
X95080D01*
X87500Y163500D02*
X93500Y169500D01*
X87500Y117500D02*
Y163500D01*
X210000Y181000D02*
X211000D01*
X78330Y201330D02*
X87000Y210000D01*
X78330Y180330D02*
Y201330D01*
X75000Y177000D02*
X78330Y180330D01*
X81000Y168000D02*
X95080Y182080D01*
X75000Y143818D02*
Y177000D01*
X65300Y134118D02*
X75000Y143818D01*
X51000Y13000D02*
X55000Y17000D01*
X71000Y51000D02*
Y118768D01*
X81000Y128768D02*
Y168000D01*
X71000Y118768D02*
X81000Y128768D01*
X149000Y95000D02*
X158950Y85050D01*
X274000Y53000D02*
X282000Y45000D01*
X214818Y53000D02*
X274000D01*
X207818Y60000D02*
X214818Y53000D01*
X76000Y55000D02*
X84000Y47000D01*
Y15000D02*
X92000Y7000D01*
X92000Y173000D02*
X95080D01*
X84000Y165000D02*
X92000Y173000D01*
X217000Y56000D02*
X292000D01*
X282000Y40600D02*
X297200Y25400D01*
X282000Y40600D02*
Y45000D01*
X84000Y126000D02*
Y165000D01*
X76000Y118000D02*
X84000Y126000D01*
X76000Y55000D02*
Y118000D01*
X92000Y7000D02*
X253400D01*
X271800Y25400D01*
X106000Y19000D02*
X114000Y11000D01*
X232000D01*
X246400Y25400D01*
X128000Y63000D02*
X166080D01*
X187080Y42000D01*
X168030Y53050D02*
X179080Y42000D01*
X132950Y53050D02*
X168030D01*
X161250Y50350D02*
X171800Y39800D01*
X129650Y50350D02*
X161250D01*
D16*
X186721Y56550D02*
X204057D01*
X160771Y82500D02*
X186721Y56550D01*
X151500Y82500D02*
X160771D01*
X201760Y108240D02*
X203199Y106801D01*
Y87407D02*
Y106801D01*
Y87407D02*
X210550Y80056D01*
X303546Y77800D02*
X312800D01*
X303346Y78000D02*
X303546Y77800D01*
X312800D02*
X313000Y78000D01*
X365050Y153080D02*
Y153950D01*
X362000Y150030D02*
X365050Y153080D01*
X210550Y74450D02*
Y80056D01*
X166000Y92000D02*
X176000Y82000D01*
X144080Y89920D02*
Y92000D01*
Y89920D02*
X151500Y82500D01*
X250000Y35000D02*
X259000D01*
X246000Y39000D02*
X250000Y35000D01*
X246000Y39000D02*
Y45000D01*
X240550Y50450D02*
X246000Y45000D01*
X210156Y50450D02*
X240550D01*
X204057Y56550D02*
X210156Y50450D01*
D19*
X390000Y62000D02*
X392000D01*
X362000Y34000D02*
X390000Y62000D01*
X161750Y113250D02*
X166000Y109000D01*
X168000D01*
X357000Y34000D02*
X362000D01*
X168460Y125460D02*
Y133160D01*
X161750Y118750D02*
X168460Y125460D01*
X161750Y113250D02*
Y118750D01*
D22*
X22860Y254000D02*
G03*
X-10Y231150I-10J-22860D01*
G01*
X10Y22870D02*
G03*
X22860Y0I22860J-10D01*
G01*
X406420Y231150D02*
G03*
X383570Y254020I-22860J10D01*
G01*
X383570Y0D02*
G03*
X406440Y22850I10J22860D01*
G01*
X22860Y254000D02*
X383540Y254000D01*
X406420Y22830D02*
Y231140D01*
X22870Y0D02*
X383540Y0D01*
X0Y22880D02*
Y231120D01*
D83*
X286246Y199261D02*
Y236694D01*
X278985Y192000D02*
X286246Y199261D01*
X271000Y192000D02*
X278985D01*
X286246Y236694D02*
X287198Y237646D01*
D90*
X348000Y25400D02*
D03*
X322600D02*
D03*
X297200D02*
D03*
X271800D02*
D03*
X246400D02*
D03*
X221000D02*
D03*
X94000Y228600D02*
D03*
D93*
X269510Y66250D02*
D03*
X320999Y92000D02*
D03*
X317438Y70999D02*
D03*
X271000Y192000D02*
D03*
X108594Y89593D02*
D03*
X288999Y184000D02*
D03*
X257400Y234146D02*
D03*
X335000Y30000D02*
D03*
X287198Y237646D02*
D03*
X387000Y61750D02*
D03*
X392000Y62000D02*
D03*
X110505Y81004D02*
D03*
X194000Y37500D02*
D03*
X79000Y20000D02*
D03*
X318250Y169750D02*
D03*
X229080Y43000D02*
D03*
X231999Y67000D02*
D03*
X218000Y67000D02*
D03*
X224080Y166000D02*
D03*
X357000Y127000D02*
D03*
X314000D02*
D03*
X398999Y39000D02*
D03*
X271080Y112100D02*
D03*
X247762Y147007D02*
D03*
X223500Y112250D02*
D03*
X252080Y67000D02*
D03*
X263080D02*
D03*
X9000Y170000D02*
D03*
X23000Y241000D02*
D03*
X132000Y212000D02*
D03*
X127000Y238000D02*
D03*
X108000Y221000D02*
D03*
X39000Y9000D02*
D03*
X335000Y231000D02*
D03*
X155080Y45000D02*
D03*
X113080Y57000D02*
D03*
X247990Y112100D02*
D03*
X247830Y165400D02*
D03*
X332999Y192000D02*
D03*
X273080Y43000D02*
D03*
X144080Y58000D02*
D03*
X148080Y45000D02*
D03*
X140080D02*
D03*
X28000Y209000D02*
D03*
X67080Y156000D02*
D03*
X239080Y43000D02*
D03*
X252080D02*
D03*
X263080D02*
D03*
X239080Y67000D02*
D03*
X69080Y162000D02*
D03*
X58080Y114000D02*
D03*
X55080Y109000D02*
D03*
X52080Y114000D02*
D03*
X18080Y78000D02*
D03*
X357000Y34000D02*
D03*
X362000D02*
D03*
X51000Y13000D02*
D03*
X259000Y35000D02*
D03*
X179080Y42000D02*
D03*
X171800Y39800D02*
D03*
X187080Y42000D02*
D03*
D94*
X326000Y114000D02*
D03*
X301001Y108600D02*
D03*
X278750Y155250D02*
D03*
X353267Y61000D02*
D03*
X313999Y84000D02*
D03*
X365000Y91000D02*
D03*
X359000Y101000D02*
D03*
X368000Y105000D02*
D03*
X88080Y101000D02*
D03*
X369518Y143757D02*
D03*
X215000Y44000D02*
D03*
X225000Y148000D02*
D03*
X376000Y144000D02*
D03*
X270000Y142000D02*
D03*
X333000Y106000D02*
D03*
X271000Y124750D02*
D03*
X224000Y125250D02*
D03*
X248000Y125000D02*
D03*
X136460Y133160D02*
D03*
X128460D02*
D03*
X144460D02*
D03*
X160460Y125160D02*
D03*
X152080Y173000D02*
D03*
X76080Y130000D02*
D03*
X184080Y149000D02*
D03*
X144460Y141160D02*
D03*
X160460D02*
D03*
X136460D02*
D03*
X128460Y109160D02*
D03*
X168000Y109000D02*
D03*
X369000Y151000D02*
D03*
X208000Y146000D02*
D03*
X202080Y137000D02*
D03*
X292750Y167000D02*
D03*
X325250Y142000D02*
D03*
X358000Y156000D02*
D03*
X135000Y204000D02*
D03*
X326016Y135757D02*
D03*
X320000Y146000D02*
D03*
X400300Y156000D02*
D03*
X344999Y114000D02*
D03*
X375000Y93000D02*
D03*
X366000Y85000D02*
D03*
X283000Y95000D02*
D03*
X144000Y204000D02*
D03*
X153000Y217000D02*
D03*
X114000Y202000D02*
D03*
X381000Y66000D02*
D03*
X295000Y110000D02*
D03*
X314100Y120400D02*
D03*
X367999Y112000D02*
D03*
X309000Y91000D02*
D03*
X345000Y184000D02*
D03*
X289999Y138000D02*
D03*
X290000Y131000D02*
D03*
X325999Y108000D02*
D03*
X217750Y149750D02*
D03*
X201760Y125506D02*
D03*
X144080Y117160D02*
D03*
X203000Y198000D02*
D03*
X123000Y201000D02*
D03*
X105000Y173000D02*
D03*
X99000Y186000D02*
D03*
X184460Y125160D02*
D03*
X112000Y173000D02*
D03*
X128460Y165160D02*
D03*
X113000Y165160D02*
D03*
X204000Y181160D02*
D03*
X120460Y157160D02*
D03*
X168460Y133160D02*
D03*
X128460Y157160D02*
D03*
X120460Y141160D02*
D03*
X176460Y173160D02*
D03*
X120460D02*
D03*
X184460Y117160D02*
D03*
M02*
