G04*
G04 #@! TF.GenerationSoftware,Altium Limited,Altium Designer,20.1.11 (218)*
G04*
G04 Layer_Color=8388736*
%FSLAX44Y44*%
%MOMM*%
G71*
G04*
G04 #@! TF.SameCoordinates,FB7AA9F9-362F-42BE-8F52-ADE0DE83CFEB*
G04*
G04*
G04 #@! TF.FilePolarity,Positive*
G04*
G01*
G75*
%ADD22C,0.2540*%
%ADD110C,0.0198*%
%ADD111C,0.0396*%
%ADD112C,0.0594*%
%ADD113C,0.0297*%
G36*
X93575Y-96865D02*
X97598Y-97274D01*
X102030Y-98025D01*
X105985Y-99047D01*
X107962Y-99729D01*
X107621Y-100138D01*
X107212Y-100956D01*
X107144Y-101706D01*
X106394Y-101365D01*
X103803Y-100411D01*
X100257Y-99252D01*
X97394Y-98502D01*
X92416Y-97547D01*
X87370Y-97002D01*
X83348Y-96865D01*
X84848Y-96729D01*
X91325D01*
X93575Y-96865D01*
D02*
G37*
G36*
X110826Y-99797D02*
X111440Y-100206D01*
X111985Y-101093D01*
Y-102457D01*
X111712Y-103002D01*
X111235Y-103479D01*
X110553Y-103820D01*
X109599Y-103888D01*
X108712Y-103547D01*
X108303Y-103138D01*
X107894Y-102457D01*
X107826Y-101365D01*
X107962Y-100888D01*
X108303Y-100343D01*
X108848Y-99934D01*
X109462Y-99661D01*
X110417D01*
X110826Y-99797D01*
D02*
G37*
G36*
X92007Y-103479D02*
X92484Y-104093D01*
X92552Y-104979D01*
X92348Y-105388D01*
X91734Y-105866D01*
X90711D01*
X90371Y-105661D01*
X89961Y-105116D01*
Y-104093D01*
X90302Y-103616D01*
X90916Y-103275D01*
X91530D01*
X92007Y-103479D01*
D02*
G37*
G36*
X87234Y-107298D02*
X87916Y-107570D01*
X87780Y-108457D01*
X87711Y-117525D01*
X85734D01*
Y-110025D01*
X85393Y-109616D01*
X84711Y-109139D01*
X84029Y-109070D01*
X83757Y-109207D01*
X83484Y-109684D01*
X83416Y-117525D01*
X81438D01*
X81507Y-108593D01*
X81847Y-107843D01*
X82393Y-107366D01*
X83211Y-107093D01*
X84438Y-107229D01*
X85120Y-107570D01*
X85802Y-108116D01*
X85870Y-107707D01*
X86075Y-107025D01*
X87234Y-107298D01*
D02*
G37*
G36*
X63233Y-107502D02*
X63097Y-108320D01*
X63028Y-117525D01*
X60983D01*
Y-109889D01*
X60028Y-109139D01*
X59142D01*
X58801Y-109616D01*
X58733Y-117525D01*
X56755D01*
X56824Y-108525D01*
X57096Y-107911D01*
X57710Y-107366D01*
X58528Y-107093D01*
X59756Y-107229D01*
X60301Y-107502D01*
X61119Y-108116D01*
X61392Y-107025D01*
X63233Y-107502D01*
D02*
G37*
G36*
X106803D02*
X106599Y-108525D01*
X106530Y-117525D01*
X104553D01*
Y-109957D01*
X104212Y-109616D01*
X103530Y-109139D01*
X102848Y-109070D01*
X102576Y-109207D01*
X102303Y-109684D01*
X102235Y-117525D01*
X100257D01*
Y-109002D01*
X100462Y-108184D01*
X100666Y-107843D01*
X101212Y-107366D01*
X102030Y-107093D01*
X102644D01*
X103462Y-107298D01*
X104348Y-107843D01*
X104621Y-108184D01*
X104894Y-107025D01*
X106803Y-107502D01*
D02*
G37*
G36*
X77415Y-107229D02*
X77961Y-107570D01*
X78779Y-108525D01*
X79188Y-109343D01*
X79529Y-110639D01*
Y-114048D01*
X79188Y-115412D01*
X78438Y-116707D01*
X77688Y-117321D01*
X76734Y-117730D01*
X75165D01*
X74347Y-117457D01*
X73597Y-116980D01*
X73052Y-116434D01*
X73324Y-115752D01*
X73802Y-114934D01*
X73938D01*
X74211Y-115275D01*
X75097Y-115821D01*
X76120Y-115889D01*
X76597Y-115684D01*
X77074Y-115207D01*
X77347Y-114525D01*
X77484Y-112957D01*
X72915D01*
X73052Y-110161D01*
X73393Y-108934D01*
X73870Y-108116D01*
X74688Y-107366D01*
X75711Y-107025D01*
X76315D01*
Y-108769D01*
X75915Y-108729D01*
X75506Y-108934D01*
X75302Y-109207D01*
X75097Y-109684D01*
X74961Y-111320D01*
X77484D01*
X77279Y-109684D01*
X76938Y-109002D01*
X76665Y-108798D01*
X76321Y-108769D01*
Y-107025D01*
X76665D01*
X77415Y-107229D01*
D02*
G37*
G36*
X110894Y-105457D02*
Y-117525D01*
X108848D01*
Y-105252D01*
X110894Y-105457D01*
D02*
G37*
G36*
X95893Y-102797D02*
X96712Y-103207D01*
X97189Y-103820D01*
X97598Y-104911D01*
Y-107298D01*
X98280D01*
Y-109070D01*
X97598D01*
Y-117525D01*
X95553D01*
Y-109070D01*
X94052D01*
X93712Y-107298D01*
X95553D01*
Y-105320D01*
X95280Y-104707D01*
X95075Y-104570D01*
X94325D01*
X93848Y-104843D01*
X93507Y-104025D01*
X93302Y-103207D01*
X93643Y-103002D01*
X94598Y-102729D01*
X95893Y-102797D01*
D02*
G37*
G36*
X92212Y-107366D02*
Y-117525D01*
X90166D01*
Y-107093D01*
X92212Y-107366D01*
D02*
G37*
G36*
X69370Y-107229D02*
X70120Y-107707D01*
X70802Y-108593D01*
X71143Y-109275D01*
X71552Y-110775D01*
X71620Y-113434D01*
X71415Y-114730D01*
X71006Y-115957D01*
X70597Y-116639D01*
X69983Y-117253D01*
X69029Y-117730D01*
X68303Y-117768D01*
X67733Y-117798D01*
X66915Y-117593D01*
X66165Y-117116D01*
X65483Y-116196D01*
X65210Y-115752D01*
X64733Y-114116D01*
X64665Y-111116D01*
X64801Y-110230D01*
X65210Y-109002D01*
X65824Y-108048D01*
X66642Y-107366D01*
X67665Y-107025D01*
X68620D01*
X69370Y-107229D01*
D02*
G37*
G36*
X113690Y-102252D02*
X115667Y-103479D01*
X117440Y-104843D01*
X119144Y-106616D01*
X120235Y-108116D01*
X120849Y-109275D01*
X121395Y-111048D01*
Y-113775D01*
X121054Y-115002D01*
X120235Y-116639D01*
X119690Y-117457D01*
X119076Y-118207D01*
X118122Y-119162D01*
X117065Y-120014D01*
X116417Y-120525D01*
X115326Y-121275D01*
X113826Y-122162D01*
X112394Y-122912D01*
X109871Y-124003D01*
X106735Y-125094D01*
X102916Y-126117D01*
X99166Y-126867D01*
X94803Y-127480D01*
X89689Y-127889D01*
X81097Y-127957D01*
X76256Y-127617D01*
X72097Y-127071D01*
X68142Y-126321D01*
X63710Y-125162D01*
X59483Y-123662D01*
X57574Y-122844D01*
X55392Y-121685D01*
X53551Y-120662D01*
X51914Y-119571D01*
X51096Y-118957D01*
X50414Y-118412D01*
X50005Y-118003D01*
X49937Y-117730D01*
X50142Y-117798D01*
X51233Y-118684D01*
X53346Y-120048D01*
X55051Y-120934D01*
X57846Y-122094D01*
X60983Y-123116D01*
X64801Y-124071D01*
X69302Y-124889D01*
X74483Y-125503D01*
X80484Y-125844D01*
X83416Y-125810D01*
X88098Y-125710D01*
X90371Y-125571D01*
X93984Y-125230D01*
X98416Y-124548D01*
X100735Y-124071D01*
X102371Y-123662D01*
X104757Y-122980D01*
X107008Y-122162D01*
X108303Y-121616D01*
X109871Y-120866D01*
X111440Y-119980D01*
X112394Y-119366D01*
X113553Y-118480D01*
X114508Y-117662D01*
X115190Y-116912D01*
X115667Y-116298D01*
X116144Y-115616D01*
X116622Y-114798D01*
X116962Y-113980D01*
X117303Y-112821D01*
X117440Y-110911D01*
X117235Y-110025D01*
X116690Y-108798D01*
X115803Y-107502D01*
X115394Y-107025D01*
X114781Y-106411D01*
X113894Y-105661D01*
X112053Y-104298D01*
X111712Y-104161D01*
X111644Y-103956D01*
X111917Y-103820D01*
X112326Y-103207D01*
X112599Y-102593D01*
X112735Y-101775D01*
X113690Y-102252D01*
D02*
G37*
%LPC*%
G36*
X67938Y-108866D02*
X67597Y-109002D01*
X67256Y-109411D01*
X66915Y-110366D01*
Y-114321D01*
X67188Y-115275D01*
X67460Y-115684D01*
X67938Y-115957D01*
X68279Y-115889D01*
X68552D01*
X69097Y-115275D01*
X69370Y-114457D01*
X69506Y-111866D01*
X69302Y-110025D01*
X69029Y-109343D01*
X68552Y-108934D01*
X67938Y-108866D01*
D02*
G37*
%LPD*%
D22*
X22860Y254000D02*
G03*
X-10Y231150I-10J-22860D01*
G01*
X10Y22870D02*
G03*
X22860Y0I22860J-10D01*
G01*
X406420Y231150D02*
G03*
X383570Y254020I-22860J10D01*
G01*
X383570Y0D02*
G03*
X406440Y22850I10J22860D01*
G01*
X22860Y254000D02*
X383540Y254000D01*
X406420Y22830D02*
Y231140D01*
X22870Y0D02*
X383540Y0D01*
X0Y22880D02*
Y231120D01*
D110*
X40551Y-156630D02*
G03*
X40551Y-156630I-1188J0D01*
G01*
X36691Y-156008D02*
Y-155895D01*
X36578Y-155669D01*
X36465Y-155556D01*
X36238Y-155443D01*
X35786D01*
X35560Y-155556D01*
X35447Y-155669D01*
X35333Y-155895D01*
Y-156121D01*
X35447Y-156348D01*
X35560Y-156461D01*
X36012Y-156687D01*
Y-157026D01*
Y-157592D02*
X36125Y-157705D01*
X36012Y-157818D01*
X35899Y-157705D01*
X36012Y-157592D01*
X32958Y-155443D02*
Y-157818D01*
X32461Y-156235D02*
Y-157818D01*
Y-156687D02*
X32121Y-156348D01*
X31895Y-156235D01*
X31556D01*
X31330Y-156348D01*
X31216Y-156687D01*
Y-157818D01*
X29690Y-155443D02*
X29916D01*
X30142Y-155556D01*
X30255Y-155895D01*
Y-157818D01*
X30594Y-156235D02*
X29803D01*
X29124Y-155443D02*
X29011Y-155556D01*
X28898Y-155443D01*
X29011Y-155330D01*
X29124Y-155443D01*
X29011Y-156235D02*
Y-157818D01*
X28479Y-156235D02*
Y-157818D01*
Y-156687D02*
X28140Y-156348D01*
X27914Y-156235D01*
X27574D01*
X27348Y-156348D01*
X27235Y-156687D01*
Y-157818D01*
X26613Y-156913D02*
X25256D01*
Y-156687D01*
X25369Y-156461D01*
X25482Y-156348D01*
X25708Y-156235D01*
X26047D01*
X26274Y-156348D01*
X26500Y-156574D01*
X26613Y-156913D01*
Y-157139D01*
X26500Y-157479D01*
X26274Y-157705D01*
X26047Y-157818D01*
X25708D01*
X25482Y-157705D01*
X25256Y-157479D01*
X24181Y-156235D02*
X24407Y-156348D01*
X24634Y-156574D01*
X24747Y-156913D01*
Y-157139D01*
X24634Y-157479D01*
X24407Y-157705D01*
X24181Y-157818D01*
X23842D01*
X23616Y-157705D01*
X23390Y-157479D01*
X23277Y-157139D01*
Y-156913D01*
X23390Y-156574D01*
X23616Y-156348D01*
X23842Y-156235D01*
X24181D01*
X22756D02*
Y-157818D01*
Y-156687D02*
X22417Y-156348D01*
X22191Y-156235D01*
X21851D01*
X21625Y-156348D01*
X21512Y-156687D01*
Y-157818D01*
X18232Y-155443D02*
Y-157818D01*
X19024Y-155443D02*
X17440D01*
X17157Y-156913D02*
X15800D01*
Y-156687D01*
X15913Y-156461D01*
X16026Y-156348D01*
X16253Y-156235D01*
X16592D01*
X16818Y-156348D01*
X17044Y-156574D01*
X17157Y-156913D01*
Y-157139D01*
X17044Y-157479D01*
X16818Y-157705D01*
X16592Y-157818D01*
X16253D01*
X16026Y-157705D01*
X15800Y-157479D01*
X13934Y-156574D02*
X14160Y-156348D01*
X14386Y-156235D01*
X14726D01*
X14952Y-156348D01*
X15178Y-156574D01*
X15291Y-156913D01*
Y-157139D01*
X15178Y-157479D01*
X14952Y-157705D01*
X14726Y-157818D01*
X14386D01*
X14160Y-157705D01*
X13934Y-157479D01*
X13425Y-155443D02*
Y-157818D01*
Y-156687D02*
X13086Y-156348D01*
X12859Y-156235D01*
X12520D01*
X12294Y-156348D01*
X12181Y-156687D01*
Y-157818D01*
X11559Y-156235D02*
Y-157818D01*
Y-156687D02*
X11219Y-156348D01*
X10993Y-156235D01*
X10654D01*
X10428Y-156348D01*
X10315Y-156687D01*
Y-157818D01*
X9127Y-156235D02*
X9353Y-156348D01*
X9579Y-156574D01*
X9693Y-156913D01*
Y-157139D01*
X9579Y-157479D01*
X9353Y-157705D01*
X9127Y-157818D01*
X8788D01*
X8561Y-157705D01*
X8335Y-157479D01*
X8222Y-157139D01*
Y-156913D01*
X8335Y-156574D01*
X8561Y-156348D01*
X8788Y-156235D01*
X9127D01*
X7702Y-155443D02*
Y-157818D01*
X6639Y-156235D02*
X6865Y-156348D01*
X7091Y-156574D01*
X7204Y-156913D01*
Y-157139D01*
X7091Y-157479D01*
X6865Y-157705D01*
X6639Y-157818D01*
X6299D01*
X6073Y-157705D01*
X5847Y-157479D01*
X5734Y-157139D01*
Y-156913D01*
X5847Y-156574D01*
X6073Y-156348D01*
X6299Y-156235D01*
X6639D01*
X3856D02*
Y-158044D01*
X3969Y-158384D01*
X4083Y-158497D01*
X4309Y-158610D01*
X4648D01*
X4874Y-158497D01*
X3856Y-156574D02*
X4083Y-156348D01*
X4309Y-156235D01*
X4648D01*
X4874Y-156348D01*
X5100Y-156574D01*
X5214Y-156913D01*
Y-157139D01*
X5100Y-157479D01*
X4874Y-157705D01*
X4648Y-157818D01*
X4309D01*
X4083Y-157705D01*
X3856Y-157479D01*
X2997Y-155443D02*
X2884Y-155556D01*
X2770Y-155443D01*
X2884Y-155330D01*
X2997Y-155443D01*
X2884Y-156235D02*
Y-157818D01*
X2352Y-156913D02*
X995D01*
Y-156687D01*
X1108Y-156461D01*
X1221Y-156348D01*
X1447Y-156235D01*
X1786D01*
X2013Y-156348D01*
X2239Y-156574D01*
X2352Y-156913D01*
Y-157139D01*
X2239Y-157479D01*
X2013Y-157705D01*
X1786Y-157818D01*
X1447D01*
X1221Y-157705D01*
X995Y-157479D01*
X-758Y-156574D02*
X-645Y-156348D01*
X-306Y-156235D01*
X33D01*
X373Y-156348D01*
X486Y-156574D01*
X373Y-156800D01*
X146Y-156913D01*
X-419Y-157026D01*
X-645Y-157139D01*
X-758Y-157366D01*
Y-157479D01*
X-645Y-157705D01*
X-306Y-157818D01*
X33D01*
X373Y-157705D01*
X486Y-157479D01*
X-3235Y-156008D02*
Y-155895D01*
X-3349Y-155669D01*
X-3462Y-155556D01*
X-3688Y-155443D01*
X-4140D01*
X-4367Y-155556D01*
X-4480Y-155669D01*
X-4593Y-155895D01*
Y-156121D01*
X-4480Y-156348D01*
X-4253Y-156687D01*
X-3122Y-157818D01*
X-4706D01*
X-5916Y-155443D02*
X-5577Y-155556D01*
X-5350Y-155895D01*
X-5237Y-156461D01*
Y-156800D01*
X-5350Y-157366D01*
X-5577Y-157705D01*
X-5916Y-157818D01*
X-6142D01*
X-6482Y-157705D01*
X-6708Y-157366D01*
X-6821Y-156800D01*
Y-156461D01*
X-6708Y-155895D01*
X-6482Y-155556D01*
X-6142Y-155443D01*
X-5916D01*
X-7466Y-156008D02*
Y-155895D01*
X-7579Y-155669D01*
X-7692Y-155556D01*
X-7918Y-155443D01*
X-8370D01*
X-8597Y-155556D01*
X-8710Y-155669D01*
X-8823Y-155895D01*
Y-156121D01*
X-8710Y-156348D01*
X-8483Y-156687D01*
X-7352Y-157818D01*
X-8936D01*
X-10146Y-155443D02*
X-9807Y-155556D01*
X-9581Y-155895D01*
X-9467Y-156461D01*
Y-156800D01*
X-9581Y-157366D01*
X-9807Y-157705D01*
X-10146Y-157818D01*
X-10372D01*
X-10712Y-157705D01*
X-10938Y-157366D01*
X-11051Y-156800D01*
Y-156461D01*
X-10938Y-155895D01*
X-10712Y-155556D01*
X-10372Y-155443D01*
X-10146D01*
X38784Y-156164D02*
X38869Y-155994D01*
X39038Y-155824D01*
X39208Y-155739D01*
X39547D01*
X39717Y-155824D01*
X39887Y-155994D01*
X39971Y-156164D01*
X40056Y-156418D01*
Y-156842D01*
X39971Y-157097D01*
X39887Y-157267D01*
X39717Y-157436D01*
X39547Y-157521D01*
X39208D01*
X39038Y-157436D01*
X38869Y-157267D01*
X38784Y-157097D01*
X-162870Y-140934D02*
X-162643Y-140708D01*
X-162304Y-140595D01*
X-161852D01*
X-161512Y-140708D01*
X-161286Y-140934D01*
Y-141160D01*
X-161399Y-141386D01*
X-161512Y-141499D01*
X-161739Y-141612D01*
X-162417Y-141839D01*
X-162643Y-141952D01*
X-162757Y-142065D01*
X-162870Y-142291D01*
Y-142630D01*
X-162643Y-142857D01*
X-162304Y-142970D01*
X-161852D01*
X-161512Y-142857D01*
X-161286Y-142630D01*
X-165098Y-141160D02*
X-164985Y-140934D01*
X-164758Y-140708D01*
X-164532Y-140595D01*
X-164080D01*
X-163854Y-140708D01*
X-163627Y-140934D01*
X-163514Y-141160D01*
X-163401Y-141499D01*
Y-142065D01*
X-163514Y-142404D01*
X-163627Y-142630D01*
X-163854Y-142857D01*
X-164080Y-142970D01*
X-164532D01*
X-164758Y-142857D01*
X-164985Y-142630D01*
X-165098Y-142404D01*
X-167575Y-142970D02*
X-166670Y-140595D01*
X-165765Y-142970D01*
X-166104Y-142178D02*
X-167236D01*
X-168129Y-140595D02*
Y-142970D01*
X-169486D01*
X-171217Y-140595D02*
X-169746D01*
Y-142970D01*
X-171217D01*
X-169746Y-141726D02*
X-170651D01*
X-171726Y-141386D02*
X-171613Y-141499D01*
X-171726Y-141612D01*
X-171839Y-141499D01*
X-171726Y-141386D01*
Y-142744D02*
X-171613Y-142857D01*
X-171726Y-142970D01*
X-171839Y-142857D01*
X-171726Y-142744D01*
X37146Y-140934D02*
X37373Y-140708D01*
X37712Y-140595D01*
X38164D01*
X38504Y-140708D01*
X38730Y-140934D01*
Y-141160D01*
X38617Y-141386D01*
X38504Y-141499D01*
X38277Y-141612D01*
X37599Y-141839D01*
X37373Y-141952D01*
X37260Y-142065D01*
X37146Y-142291D01*
Y-142630D01*
X37373Y-142857D01*
X37712Y-142970D01*
X38164D01*
X38504Y-142857D01*
X38730Y-142630D01*
X36615Y-140595D02*
X35710Y-142970D01*
X34805Y-140595D02*
X35710Y-142970D01*
X34500Y-140595D02*
Y-142970D01*
Y-140595D02*
X32916Y-142970D01*
Y-140595D02*
Y-142970D01*
X30394Y-140595D02*
Y-142970D01*
Y-140595D02*
X29376D01*
X29037Y-140708D01*
X28924Y-140821D01*
X28811Y-141047D01*
Y-141273D01*
X28924Y-141499D01*
X29037Y-141612D01*
X29376Y-141726D01*
X30394D01*
X29602D02*
X28811Y-142970D01*
X26809Y-140595D02*
X28279D01*
Y-142970D01*
X26809D01*
X28279Y-141726D02*
X27374D01*
X26413Y-140595D02*
X25508Y-142970D01*
X24603Y-140595D02*
X25508Y-142970D01*
X24298Y-140595D02*
Y-142970D01*
X22217Y-140934D02*
X22443Y-140708D01*
X22782Y-140595D01*
X23235D01*
X23574Y-140708D01*
X23800Y-140934D01*
Y-141160D01*
X23687Y-141386D01*
X23574Y-141499D01*
X23348Y-141612D01*
X22669Y-141839D01*
X22443Y-141952D01*
X22330Y-142065D01*
X22217Y-142291D01*
Y-142630D01*
X22443Y-142857D01*
X22782Y-142970D01*
X23235D01*
X23574Y-142857D01*
X23800Y-142630D01*
X21685Y-140595D02*
Y-142970D01*
X20509Y-140595D02*
X20735Y-140708D01*
X20961Y-140934D01*
X21074Y-141160D01*
X21187Y-141499D01*
Y-142065D01*
X21074Y-142404D01*
X20961Y-142630D01*
X20735Y-142857D01*
X20509Y-142970D01*
X20056D01*
X19830Y-142857D01*
X19604Y-142630D01*
X19491Y-142404D01*
X19378Y-142065D01*
Y-141499D01*
X19491Y-141160D01*
X19604Y-140934D01*
X19830Y-140708D01*
X20056Y-140595D01*
X20509D01*
X18823D02*
Y-142970D01*
Y-140595D02*
X17240Y-142970D01*
Y-140595D02*
Y-142970D01*
X16471Y-141386D02*
X16584Y-141499D01*
X16471Y-141612D01*
X16358Y-141499D01*
X16471Y-141386D01*
Y-142744D02*
X16584Y-142857D01*
X16471Y-142970D01*
X16358Y-142857D01*
X16471Y-142744D01*
X38730Y-112142D02*
X37712D01*
X37373Y-112029D01*
X37260Y-111916D01*
X37146Y-111690D01*
Y-111350D01*
X37260Y-111124D01*
X37373Y-111011D01*
X37712Y-110898D01*
X38730D01*
Y-113273D01*
X34918Y-111463D02*
X35031Y-111237D01*
X35258Y-111011D01*
X35484Y-110898D01*
X35936D01*
X36162Y-111011D01*
X36389Y-111237D01*
X36502Y-111463D01*
X36615Y-111803D01*
Y-112368D01*
X36502Y-112708D01*
X36389Y-112934D01*
X36162Y-113160D01*
X35936Y-113273D01*
X35484D01*
X35258Y-113160D01*
X35031Y-112934D01*
X34918Y-112708D01*
X34251Y-110898D02*
Y-113273D01*
Y-110898D02*
X33233D01*
X32894Y-111011D01*
X32781Y-111124D01*
X32668Y-111350D01*
Y-111577D01*
X32781Y-111803D01*
X32894Y-111916D01*
X33233Y-112029D01*
X34251D02*
X33233D01*
X32894Y-112142D01*
X32781Y-112255D01*
X32668Y-112481D01*
Y-112821D01*
X32781Y-113047D01*
X32894Y-113160D01*
X33233Y-113273D01*
X34251D01*
X30270Y-110898D02*
Y-113273D01*
Y-110898D02*
X29478D01*
X29139Y-111011D01*
X28912Y-111237D01*
X28799Y-111463D01*
X28686Y-111803D01*
Y-112368D01*
X28799Y-112708D01*
X28912Y-112934D01*
X29139Y-113160D01*
X29478Y-113273D01*
X30270D01*
X26684Y-110898D02*
X28155D01*
Y-113273D01*
X26684D01*
X28155Y-112029D02*
X27250D01*
X24705Y-111237D02*
X24931Y-111011D01*
X25270Y-110898D01*
X25723D01*
X26062Y-111011D01*
X26288Y-111237D01*
Y-111463D01*
X26175Y-111690D01*
X26062Y-111803D01*
X25836Y-111916D01*
X25157Y-112142D01*
X24931Y-112255D01*
X24818Y-112368D01*
X24705Y-112594D01*
Y-112934D01*
X24931Y-113160D01*
X25270Y-113273D01*
X25723D01*
X26062Y-113160D01*
X26288Y-112934D01*
X24173Y-110898D02*
Y-113273D01*
X21979Y-111463D02*
X22092Y-111237D01*
X22318Y-111011D01*
X22545Y-110898D01*
X22997D01*
X23223Y-111011D01*
X23449Y-111237D01*
X23563Y-111463D01*
X23676Y-111803D01*
Y-112368D01*
X23563Y-112708D01*
X23449Y-112934D01*
X23223Y-113160D01*
X22997Y-113273D01*
X22545D01*
X22318Y-113160D01*
X22092Y-112934D01*
X21979Y-112708D01*
Y-112368D01*
X22545D02*
X21979D01*
X21436Y-110898D02*
Y-113273D01*
Y-110898D02*
X19853Y-113273D01*
Y-110898D02*
Y-113273D01*
X17726Y-110898D02*
X19197D01*
Y-113273D01*
X17726D01*
X19197Y-112029D02*
X18292D01*
X17330Y-110898D02*
Y-113273D01*
Y-110898D02*
X16313D01*
X15973Y-111011D01*
X15860Y-111124D01*
X15747Y-111350D01*
Y-111577D01*
X15860Y-111803D01*
X15973Y-111916D01*
X16313Y-112029D01*
X17330D01*
X16539D02*
X15747Y-113273D01*
X15102Y-111690D02*
X15215Y-111803D01*
X15102Y-111916D01*
X14989Y-111803D01*
X15102Y-111690D01*
Y-113047D02*
X15215Y-113160D01*
X15102Y-113273D01*
X14989Y-113160D01*
X15102Y-113047D01*
X-37491Y-96050D02*
Y-98425D01*
X-36699Y-96050D02*
X-38283D01*
X-38566D02*
Y-98425D01*
X-39855Y-96050D02*
Y-98425D01*
X-39063Y-96050D02*
X-40647D01*
X-40929D02*
Y-98425D01*
X-42287D01*
X-44017Y-96050D02*
X-42547D01*
Y-98425D01*
X-44017D01*
X-42547Y-97181D02*
X-43452D01*
X-44526Y-96841D02*
X-44413Y-96954D01*
X-44526Y-97068D01*
X-44639Y-96954D01*
X-44526Y-96841D01*
Y-98199D02*
X-44413Y-98312D01*
X-44526Y-98425D01*
X-44639Y-98312D01*
X-44526Y-98199D01*
X-36699Y-126990D02*
X-37717D01*
X-38057Y-126877D01*
X-38170Y-126764D01*
X-38283Y-126538D01*
Y-126199D01*
X-38170Y-125972D01*
X-38057Y-125859D01*
X-37717Y-125746D01*
X-36699D01*
Y-128121D01*
X-40624D02*
X-39719Y-125746D01*
X-38814Y-128121D01*
X-39154Y-127330D02*
X-40285D01*
X-41178Y-125746D02*
Y-128121D01*
Y-125746D02*
X-42196D01*
X-42536Y-125859D01*
X-42649Y-125972D01*
X-42762Y-126199D01*
Y-126425D01*
X-42649Y-126651D01*
X-42536Y-126764D01*
X-42196Y-126877D01*
X-41178D01*
X-41970D02*
X-42762Y-128121D01*
X-44085Y-125746D02*
Y-128121D01*
X-43293Y-125746D02*
X-44877D01*
X-47026D02*
Y-128121D01*
Y-125746D02*
X-48609Y-128121D01*
Y-125746D02*
Y-128121D01*
X-49944Y-125746D02*
X-49718Y-125859D01*
X-49492Y-126086D01*
X-49378Y-126312D01*
X-49265Y-126651D01*
Y-127217D01*
X-49378Y-127556D01*
X-49492Y-127782D01*
X-49718Y-128008D01*
X-49944Y-128121D01*
X-50396D01*
X-50623Y-128008D01*
X-50849Y-127782D01*
X-50962Y-127556D01*
X-51075Y-127217D01*
Y-126651D01*
X-50962Y-126312D01*
X-50849Y-126086D01*
X-50623Y-125859D01*
X-50396Y-125746D01*
X-49944D01*
X-51742Y-127895D02*
X-51629Y-128008D01*
X-51742Y-128121D01*
X-51855Y-128008D01*
X-51742Y-127895D01*
X-52489Y-126538D02*
X-52376Y-126651D01*
X-52489Y-126764D01*
X-52602Y-126651D01*
X-52489Y-126538D01*
Y-127895D02*
X-52376Y-128008D01*
X-52489Y-128121D01*
X-52602Y-128008D01*
X-52489Y-127895D01*
X37260Y-96050D02*
X38730D01*
Y-98425D01*
X37260D01*
X38730Y-97181D02*
X37825D01*
X36864Y-96050D02*
Y-98425D01*
Y-96050D02*
X35280Y-98425D01*
Y-96050D02*
Y-98425D01*
X32928Y-96615D02*
X33041Y-96389D01*
X33267Y-96163D01*
X33493Y-96050D01*
X33946D01*
X34172Y-96163D01*
X34398Y-96389D01*
X34511Y-96615D01*
X34624Y-96954D01*
Y-97520D01*
X34511Y-97859D01*
X34398Y-98086D01*
X34172Y-98312D01*
X33946Y-98425D01*
X33493D01*
X33267Y-98312D01*
X33041Y-98086D01*
X32928Y-97859D01*
Y-97520D01*
X33493D02*
X32928D01*
X32385Y-96050D02*
Y-98425D01*
X31887Y-96050D02*
Y-98425D01*
Y-96050D02*
X30304Y-98425D01*
Y-96050D02*
Y-98425D01*
X28177Y-96050D02*
X29648D01*
Y-98425D01*
X28177D01*
X29648Y-97181D02*
X28743D01*
X26311Y-96050D02*
X27781D01*
Y-98425D01*
X26311D01*
X27781Y-97181D02*
X26876D01*
X25915Y-96050D02*
Y-98425D01*
Y-96050D02*
X24897D01*
X24558Y-96163D01*
X24445Y-96276D01*
X24332Y-96502D01*
Y-96728D01*
X24445Y-96954D01*
X24558Y-97068D01*
X24897Y-97181D01*
X25915D01*
X25123D02*
X24332Y-98425D01*
X23687Y-96841D02*
X23800Y-96954D01*
X23687Y-97068D01*
X23574Y-96954D01*
X23687Y-96841D01*
Y-98199D02*
X23800Y-98312D01*
X23687Y-98425D01*
X23574Y-98312D01*
X23687Y-98199D01*
X-36699Y-140595D02*
Y-142970D01*
Y-140595D02*
X-38170D01*
X-36699Y-141726D02*
X-37604D01*
X-38441Y-140595D02*
Y-142970D01*
X-38939Y-140595D02*
Y-142970D01*
X-40296D01*
X-42027Y-140595D02*
X-40556D01*
Y-142970D01*
X-42027D01*
X-40556Y-141726D02*
X-41461D01*
X-44289Y-140595D02*
Y-142970D01*
Y-140595D02*
X-45872Y-142970D01*
Y-140595D02*
Y-142970D01*
X-48338D02*
X-47433Y-140595D01*
X-46528Y-142970D01*
X-46867Y-142178D02*
X-47998D01*
X-48892Y-140595D02*
Y-142970D01*
Y-140595D02*
X-49797Y-142970D01*
X-50702Y-140595D02*
X-49797Y-142970D01*
X-50702Y-140595D02*
Y-142970D01*
X-52851Y-140595D02*
X-51380D01*
Y-142970D01*
X-52851D01*
X-51380Y-141726D02*
X-52285D01*
X-53360Y-141386D02*
X-53247Y-141499D01*
X-53360Y-141612D01*
X-53473Y-141499D01*
X-53360Y-141386D01*
Y-142744D02*
X-53247Y-142857D01*
X-53360Y-142970D01*
X-53473Y-142857D01*
X-53360Y-142744D01*
X-161286Y-125746D02*
Y-128121D01*
Y-125746D02*
X-162304D01*
X-162643Y-125859D01*
X-162757Y-125972D01*
X-162870Y-126199D01*
Y-126425D01*
X-162757Y-126651D01*
X-162643Y-126764D01*
X-162304Y-126877D01*
X-161286D01*
X-162078D02*
X-162870Y-128121D01*
X-164872Y-125746D02*
X-163401D01*
Y-128121D01*
X-164872D01*
X-163401Y-126877D02*
X-164306D01*
X-165268Y-125746D02*
X-166172Y-128121D01*
X-167077Y-125746D02*
X-166172Y-128121D01*
X-167496Y-126538D02*
X-167383Y-126651D01*
X-167496Y-126764D01*
X-167609Y-126651D01*
X-167496Y-126538D01*
Y-127895D02*
X-167383Y-128008D01*
X-167496Y-128121D01*
X-167609Y-128008D01*
X-167496Y-127895D01*
X38730Y-125746D02*
Y-128121D01*
Y-125746D02*
X37938D01*
X37599Y-125859D01*
X37373Y-126086D01*
X37260Y-126312D01*
X37146Y-126651D01*
Y-127217D01*
X37260Y-127556D01*
X37373Y-127782D01*
X37599Y-128008D01*
X37938Y-128121D01*
X38730D01*
X34805D02*
X35710Y-125746D01*
X36615Y-128121D01*
X36275Y-127330D02*
X35145D01*
X33459Y-125746D02*
Y-128121D01*
X34251Y-125746D02*
X32668D01*
X30914D02*
X32385D01*
Y-128121D01*
X30914D01*
X32385Y-126877D02*
X31480D01*
X30405Y-126538D02*
X30519Y-126651D01*
X30405Y-126764D01*
X30292Y-126651D01*
X30405Y-126538D01*
Y-127895D02*
X30519Y-128008D01*
X30405Y-128121D01*
X30292Y-128008D01*
X30405Y-127895D01*
X-135549Y-125746D02*
Y-128121D01*
Y-125746D02*
X-136567D01*
X-136906Y-125859D01*
X-137020Y-125972D01*
X-137133Y-126199D01*
Y-126425D01*
X-137020Y-126651D01*
X-136906Y-126764D01*
X-136567Y-126877D01*
X-135549D01*
X-136341D02*
X-137133Y-128121D01*
X-139135Y-125746D02*
X-137664D01*
Y-128121D01*
X-139135D01*
X-137664Y-126877D02*
X-138569D01*
X-139530Y-125746D02*
Y-128121D01*
X-140888D01*
X-141261Y-126538D02*
X-141148Y-126651D01*
X-141261Y-126764D01*
X-141374Y-126651D01*
X-141261Y-126538D01*
Y-127895D02*
X-141148Y-128008D01*
X-141261Y-128121D01*
X-141374Y-128008D01*
X-141261Y-127895D01*
X-137359Y-142970D02*
X-136454Y-140595D01*
X-135549Y-142970D01*
X-135889Y-142178D02*
X-137020D01*
X-137913Y-141839D02*
X-138931D01*
X-139270Y-141726D01*
X-139383Y-141612D01*
X-139496Y-141386D01*
Y-141047D01*
X-139383Y-140821D01*
X-139270Y-140708D01*
X-138931Y-140595D01*
X-137913D01*
Y-142970D01*
X-140028Y-140595D02*
Y-142970D01*
Y-140595D02*
X-141046D01*
X-141385Y-140708D01*
X-141498Y-140821D01*
X-141612Y-141047D01*
Y-141273D01*
X-141498Y-141499D01*
X-141385Y-141612D01*
X-141046Y-141726D01*
X-140028D01*
X-140820D02*
X-141612Y-142970D01*
X-142143Y-140595D02*
X-143048Y-142970D01*
X-143953Y-140595D02*
X-143048Y-142970D01*
X-144371Y-141386D02*
X-144258Y-141499D01*
X-144371Y-141612D01*
X-144484Y-141499D01*
X-144371Y-141386D01*
Y-142744D02*
X-144258Y-142857D01*
X-144371Y-142970D01*
X-144484Y-142857D01*
X-144371Y-142744D01*
D111*
X102023Y374740D02*
Y384639D01*
X398988Y374740D02*
Y384639D01*
X-194942Y-31113D02*
X-185043D01*
X-194942Y107471D02*
X-185043D01*
X-194942Y246055D02*
X-185043D01*
X-95954Y-169697D02*
Y-159798D01*
X3035Y-169697D02*
Y-159798D01*
X102023Y-169697D02*
Y-159798D01*
X201012Y-169697D02*
Y-159798D01*
X300000Y-169697D02*
Y-159798D01*
X398988Y-169697D02*
Y-159798D01*
X497977Y-169697D02*
Y-159798D01*
X587066Y-31113D02*
X596965D01*
X587066Y107471D02*
X596965D01*
X587066Y246055D02*
X596965D01*
X-95954Y374740D02*
Y384639D01*
X3035Y374740D02*
Y384639D01*
X201012Y374740D02*
Y384639D01*
X300000Y374740D02*
Y384639D01*
X497977Y374740D02*
Y384639D01*
X-185043Y374740D02*
X587066D01*
X-185043Y-159798D02*
Y374740D01*
Y-159798D02*
X587066D01*
Y-159639D02*
Y374740D01*
X-194942Y384639D02*
X596965D01*
X-194942Y-169697D02*
Y384639D01*
Y-169697D02*
X596965D01*
Y384639D01*
X-34185Y-153858D02*
Y-123687D01*
X-159306Y-153858D02*
Y-124162D01*
X41244Y-153858D02*
Y-94465D01*
X-185043Y-153858D02*
Y-93515D01*
Y-94465D02*
X-34185D01*
Y-123687D02*
Y-94465D01*
X41244D01*
X-185043Y-124162D02*
X41244D01*
X-185043Y-139010D02*
X41244D01*
X-185043Y-153858D02*
X41244D01*
X-34185Y-109314D02*
X41244D01*
Y-94465D02*
X131720D01*
Y-159798D02*
Y-94465D01*
X41244Y-153858D02*
X131720D01*
X-133569D02*
Y-124162D01*
D112*
X-40520Y-110744D02*
Y-116243D01*
Y-110744D02*
X-42877D01*
X-43662Y-111006D01*
X-43924Y-111268D01*
X-44186Y-111791D01*
Y-112315D01*
X-43924Y-112839D01*
X-43662Y-113101D01*
X-42877Y-113362D01*
X-40520D01*
X-42353D02*
X-44186Y-116243D01*
X-48559Y-112577D02*
Y-116243D01*
Y-113362D02*
X-48035Y-112839D01*
X-47512Y-112577D01*
X-46726D01*
X-46202Y-112839D01*
X-45679Y-113362D01*
X-45417Y-114148D01*
Y-114672D01*
X-45679Y-115457D01*
X-46202Y-115981D01*
X-46726Y-116243D01*
X-47512D01*
X-48035Y-115981D01*
X-48559Y-115457D01*
X-53168Y-110744D02*
Y-116243D01*
Y-113362D02*
X-52644Y-112839D01*
X-52120Y-112577D01*
X-51335D01*
X-50811Y-112839D01*
X-50287Y-113362D01*
X-50025Y-114148D01*
Y-114672D01*
X-50287Y-115457D01*
X-50811Y-115981D01*
X-51335Y-116243D01*
X-52120D01*
X-52644Y-115981D01*
X-53168Y-115457D01*
X-57776Y-112577D02*
Y-116243D01*
Y-113362D02*
X-57252Y-112839D01*
X-56729Y-112577D01*
X-55943D01*
X-55419Y-112839D01*
X-54896Y-113362D01*
X-54634Y-114148D01*
Y-114672D01*
X-54896Y-115457D01*
X-55419Y-115981D01*
X-55943Y-116243D01*
X-56729D01*
X-57252Y-115981D01*
X-57776Y-115457D01*
X-59242Y-112577D02*
Y-116243D01*
Y-114148D02*
X-59504Y-113362D01*
X-60028Y-112839D01*
X-60552Y-112577D01*
X-61337D01*
X-66155Y-110744D02*
Y-116243D01*
Y-110744D02*
X-68512D01*
X-69297Y-111006D01*
X-69559Y-111268D01*
X-69821Y-111791D01*
Y-112315D01*
X-69559Y-112839D01*
X-69297Y-113101D01*
X-68512Y-113362D01*
X-66155D02*
X-68512D01*
X-69297Y-113624D01*
X-69559Y-113886D01*
X-69821Y-114410D01*
Y-115195D01*
X-69559Y-115719D01*
X-69297Y-115981D01*
X-68512Y-116243D01*
X-66155D01*
X-74194Y-112577D02*
Y-116243D01*
Y-113362D02*
X-73670Y-112839D01*
X-73147Y-112577D01*
X-72361D01*
X-71837Y-112839D01*
X-71314Y-113362D01*
X-71052Y-114148D01*
Y-114672D01*
X-71314Y-115457D01*
X-71837Y-115981D01*
X-72361Y-116243D01*
X-73147D01*
X-73670Y-115981D01*
X-74194Y-115457D01*
X-78541Y-113362D02*
X-78279Y-112839D01*
X-77493Y-112577D01*
X-76708D01*
X-75922Y-112839D01*
X-75660Y-113362D01*
X-75922Y-113886D01*
X-76446Y-114148D01*
X-77755Y-114410D01*
X-78279Y-114672D01*
X-78541Y-115195D01*
Y-115457D01*
X-78279Y-115981D01*
X-77493Y-116243D01*
X-76708D01*
X-75922Y-115981D01*
X-75660Y-115457D01*
X-79693Y-114148D02*
X-82835D01*
Y-113624D01*
X-82573Y-113101D01*
X-82311Y-112839D01*
X-81788Y-112577D01*
X-81002D01*
X-80478Y-112839D01*
X-79955Y-113362D01*
X-79693Y-114148D01*
Y-114672D01*
X-79955Y-115457D01*
X-80478Y-115981D01*
X-81002Y-116243D01*
X-81788D01*
X-82311Y-115981D01*
X-82835Y-115457D01*
X-84013Y-110744D02*
Y-116243D01*
Y-113362D02*
X-84537Y-112839D01*
X-85061Y-112577D01*
X-85846D01*
X-86370Y-112839D01*
X-86894Y-113362D01*
X-87155Y-114148D01*
Y-114672D01*
X-86894Y-115457D01*
X-86370Y-115981D01*
X-85846Y-116243D01*
X-85061D01*
X-84537Y-115981D01*
X-84013Y-115457D01*
X-89643Y-112577D02*
X-89119Y-112839D01*
X-88596Y-113362D01*
X-88334Y-114148D01*
Y-114672D01*
X-88596Y-115457D01*
X-89119Y-115981D01*
X-89643Y-116243D01*
X-90428D01*
X-90952Y-115981D01*
X-91476Y-115457D01*
X-91738Y-114672D01*
Y-114148D01*
X-91476Y-113362D01*
X-90952Y-112839D01*
X-90428Y-112577D01*
X-89643D01*
X-96084D02*
Y-116243D01*
Y-113362D02*
X-95561Y-112839D01*
X-95037Y-112577D01*
X-94251D01*
X-93728Y-112839D01*
X-93204Y-113362D01*
X-92942Y-114148D01*
Y-114672D01*
X-93204Y-115457D01*
X-93728Y-115981D01*
X-94251Y-116243D01*
X-95037D01*
X-95561Y-115981D01*
X-96084Y-115457D01*
X-97551Y-112577D02*
Y-116243D01*
Y-114148D02*
X-97813Y-113362D01*
X-98336Y-112839D01*
X-98860Y-112577D01*
X-99646D01*
X-103285Y-110744D02*
Y-116243D01*
Y-113362D02*
X-102761Y-112839D01*
X-102238Y-112577D01*
X-101452D01*
X-100929Y-112839D01*
X-100405Y-113362D01*
X-100143Y-114148D01*
Y-114672D01*
X-100405Y-115457D01*
X-100929Y-115981D01*
X-101452Y-116243D01*
X-102238D01*
X-102761Y-115981D01*
X-103285Y-115457D01*
X-109072Y-110744D02*
Y-116243D01*
Y-110744D02*
X-111167Y-116243D01*
X-113262Y-110744D02*
X-111167Y-116243D01*
X-113262Y-110744D02*
Y-116243D01*
X-118760Y-112053D02*
X-118499Y-111530D01*
X-117975Y-111006D01*
X-117451Y-110744D01*
X-116404D01*
X-115880Y-111006D01*
X-115356Y-111530D01*
X-115095Y-112053D01*
X-114833Y-112839D01*
Y-114148D01*
X-115095Y-114934D01*
X-115356Y-115457D01*
X-115880Y-115981D01*
X-116404Y-116243D01*
X-117451D01*
X-117975Y-115981D01*
X-118499Y-115457D01*
X-118760Y-114934D01*
X-120305Y-110744D02*
Y-114672D01*
X-120567Y-115457D01*
X-121091Y-115981D01*
X-121876Y-116243D01*
X-122400D01*
X-123186Y-115981D01*
X-123709Y-115457D01*
X-123971Y-114672D01*
Y-110744D01*
X-129156D02*
X-126537Y-116243D01*
X-125490Y-110744D02*
X-129156D01*
D113*
X-38540Y-145940D02*
Y-149899D01*
Y-145940D02*
X-40237D01*
X-40803Y-146129D01*
X-40991Y-146317D01*
X-41180Y-146694D01*
Y-147071D01*
X-40991Y-147448D01*
X-40803Y-147637D01*
X-40237Y-147825D01*
X-38540D01*
X-39860D02*
X-41180Y-149899D01*
X-42066Y-145940D02*
Y-149899D01*
Y-145940D02*
X-43762D01*
X-44328Y-146129D01*
X-44516Y-146317D01*
X-44705Y-146694D01*
Y-147071D01*
X-44516Y-147448D01*
X-44328Y-147637D01*
X-43762Y-147825D01*
X-42066D02*
X-43762D01*
X-44328Y-148014D01*
X-44516Y-148202D01*
X-44705Y-148579D01*
Y-149145D01*
X-44516Y-149522D01*
X-44328Y-149710D01*
X-43762Y-149899D01*
X-42066D01*
X-45591Y-145940D02*
Y-149899D01*
Y-145940D02*
X-47287D01*
X-47853Y-146129D01*
X-48041Y-146317D01*
X-48230Y-146694D01*
Y-147071D01*
X-48041Y-147448D01*
X-47853Y-147637D01*
X-47287Y-147825D01*
X-45591D02*
X-47287D01*
X-47853Y-148014D01*
X-48041Y-148202D01*
X-48230Y-148579D01*
Y-149145D01*
X-48041Y-149522D01*
X-47853Y-149710D01*
X-47287Y-149899D01*
X-45591D01*
X-49116Y-151218D02*
X-52132D01*
X-52641Y-145940D02*
Y-149899D01*
Y-145940D02*
X-54149Y-149899D01*
X-55657Y-145940D02*
X-54149Y-149899D01*
X-55657Y-145940D02*
Y-149899D01*
X-59616Y-146883D02*
X-59427Y-146506D01*
X-59050Y-146129D01*
X-58673Y-145940D01*
X-57919D01*
X-57542Y-146129D01*
X-57165Y-146506D01*
X-56977Y-146883D01*
X-56788Y-147448D01*
Y-148391D01*
X-56977Y-148956D01*
X-57165Y-149333D01*
X-57542Y-149710D01*
X-57919Y-149899D01*
X-58673D01*
X-59050Y-149710D01*
X-59427Y-149333D01*
X-59616Y-148956D01*
X-60728Y-145940D02*
Y-148768D01*
X-60917Y-149333D01*
X-61294Y-149710D01*
X-61859Y-149899D01*
X-62236D01*
X-62802Y-149710D01*
X-63179Y-149333D01*
X-63367Y-148768D01*
Y-145940D01*
X-67099D02*
X-65214Y-149899D01*
X-64460Y-145940D02*
X-67099D01*
X-67986Y-151218D02*
X-71002D01*
X-71511Y-145940D02*
X-73019Y-149899D01*
X-74527Y-145940D02*
X-73019Y-149899D01*
X-75224Y-146883D02*
Y-146694D01*
X-75413Y-146317D01*
X-75601Y-146129D01*
X-75978Y-145940D01*
X-76732D01*
X-77109Y-146129D01*
X-77298Y-146317D01*
X-77486Y-146694D01*
Y-147071D01*
X-77298Y-147448D01*
X-76921Y-148014D01*
X-75036Y-149899D01*
X-77675D01*
X-78749Y-149522D02*
X-78561Y-149710D01*
X-78749Y-149899D01*
X-78938Y-149710D01*
X-78749Y-149522D01*
X-79994Y-146883D02*
Y-146694D01*
X-80182Y-146317D01*
X-80371Y-146129D01*
X-80748Y-145940D01*
X-81502D01*
X-81879Y-146129D01*
X-82067Y-146317D01*
X-82256Y-146694D01*
Y-147071D01*
X-82067Y-147448D01*
X-81690Y-148014D01*
X-79805Y-149899D01*
X-82444D01*
X-83519Y-149522D02*
X-83330Y-149710D01*
X-83519Y-149899D01*
X-83707Y-149710D01*
X-83519Y-149522D01*
X-84574Y-148014D02*
X-86271D01*
X-86836Y-147825D01*
X-87025Y-147637D01*
X-87213Y-147260D01*
Y-146694D01*
X-87025Y-146317D01*
X-86836Y-146129D01*
X-86271Y-145940D01*
X-84574D01*
Y-149899D01*
X-90361Y-147825D02*
X-89985Y-147448D01*
X-89607Y-147260D01*
X-89042D01*
X-88665Y-147448D01*
X-88288Y-147825D01*
X-88099Y-148391D01*
Y-148768D01*
X-88288Y-149333D01*
X-88665Y-149710D01*
X-89042Y-149899D01*
X-89607D01*
X-89985Y-149710D01*
X-90361Y-149333D01*
X-91210Y-145940D02*
Y-149899D01*
Y-147825D02*
X-91587Y-147448D01*
X-91964Y-147260D01*
X-92529D01*
X-92906Y-147448D01*
X-93283Y-147825D01*
X-93472Y-148391D01*
Y-148768D01*
X-93283Y-149333D01*
X-92906Y-149710D01*
X-92529Y-149899D01*
X-91964D01*
X-91587Y-149710D01*
X-91210Y-149333D01*
X-94320Y-145940D02*
Y-149899D01*
Y-145940D02*
X-95640D01*
X-96205Y-146129D01*
X-96582Y-146506D01*
X-96771Y-146883D01*
X-96959Y-147448D01*
Y-148391D01*
X-96771Y-148956D01*
X-96582Y-149333D01*
X-96205Y-149710D01*
X-95640Y-149899D01*
X-94320D01*
X-98788Y-147260D02*
X-98411Y-147448D01*
X-98034Y-147825D01*
X-97845Y-148391D01*
Y-148768D01*
X-98034Y-149333D01*
X-98411Y-149710D01*
X-98788Y-149899D01*
X-99353D01*
X-99730Y-149710D01*
X-100107Y-149333D01*
X-100296Y-148768D01*
Y-148391D01*
X-100107Y-147825D01*
X-99730Y-147448D01*
X-99353Y-147260D01*
X-98788D01*
X-103425Y-147825D02*
X-103048Y-147448D01*
X-102671Y-147260D01*
X-102106D01*
X-101729Y-147448D01*
X-101352Y-147825D01*
X-101163Y-148391D01*
Y-148768D01*
X-101352Y-149333D01*
X-101729Y-149710D01*
X-102106Y-149899D01*
X-102671D01*
X-103048Y-149710D01*
X-103425Y-149333D01*
X-191831Y41195D02*
X-191642Y41572D01*
X-191265Y41949D01*
X-190888Y42138D01*
X-190134D01*
X-189757Y41949D01*
X-189380Y41572D01*
X-189191Y41195D01*
X-189003Y40630D01*
Y39687D01*
X-189191Y39122D01*
X-189380Y38745D01*
X-189757Y38368D01*
X-190134Y38179D01*
X-190888D01*
X-191265Y38368D01*
X-191642Y38745D01*
X-191831Y39122D01*
X-189003Y180722D02*
Y176763D01*
Y180722D02*
X-190700D01*
X-191265Y180533D01*
X-191453Y180345D01*
X-191642Y179968D01*
Y179591D01*
X-191453Y179214D01*
X-191265Y179025D01*
X-190700Y178837D01*
X-189003D02*
X-190700D01*
X-191265Y178648D01*
X-191453Y178460D01*
X-191642Y178083D01*
Y177517D01*
X-191453Y177140D01*
X-191265Y176952D01*
X-190700Y176763D01*
X-189003D01*
X-192019Y315347D02*
X-190511Y319306D01*
X-189003Y315347D01*
X-189569Y316666D02*
X-191453D01*
X-145448Y-163428D02*
X-146108Y-162769D01*
X-147427D01*
X-148087Y-163428D01*
Y-164088D01*
X-147427Y-164748D01*
X-148087Y-165408D01*
Y-166067D01*
X-147427Y-166727D01*
X-146108D01*
X-145448Y-166067D01*
Y-165408D01*
X-146108Y-164748D01*
X-145448Y-164088D01*
Y-163428D01*
X-146108Y-164748D02*
X-147427D01*
X-46460Y-162769D02*
X-49098D01*
Y-163428D01*
X-46460Y-166067D01*
Y-166727D01*
X49890Y-162769D02*
X51209Y-163428D01*
X52529Y-164748D01*
Y-166067D01*
X51869Y-166727D01*
X50550D01*
X49890Y-166067D01*
Y-165408D01*
X50550Y-164748D01*
X52529D01*
X148878Y-162769D02*
X151517D01*
Y-164748D01*
X150198Y-164088D01*
X149538D01*
X148878Y-164748D01*
Y-166067D01*
X149538Y-166727D01*
X150858D01*
X151517Y-166067D01*
X248621Y-162768D02*
X250506Y-165407D01*
X247678D01*
X248621Y-162768D02*
Y-166727D01*
X349117Y-162768D02*
X347044D01*
X348175Y-164276D01*
X347609D01*
X347232Y-164465D01*
X347044Y-164653D01*
X346855Y-165219D01*
Y-165596D01*
X347044Y-166161D01*
X347421Y-166538D01*
X347986Y-166727D01*
X348552D01*
X349117Y-166538D01*
X349306Y-166350D01*
X349494Y-165973D01*
X448294Y-163711D02*
Y-163522D01*
X448106Y-163145D01*
X447917Y-162957D01*
X447540Y-162768D01*
X446786D01*
X446409Y-162957D01*
X446221Y-163145D01*
X446032Y-163522D01*
Y-163899D01*
X446221Y-164276D01*
X446598Y-164842D01*
X448483Y-166727D01*
X445844D01*
X547471Y-163522D02*
X547094Y-163334D01*
X546529Y-162768D01*
Y-166727D01*
X-145448Y381008D02*
X-146108Y381668D01*
X-147427D01*
X-148087Y381008D01*
Y380348D01*
X-147427Y379689D01*
X-148087Y379029D01*
Y378369D01*
X-147427Y377710D01*
X-146108D01*
X-145448Y378369D01*
Y379029D01*
X-146108Y379689D01*
X-145448Y380348D01*
Y381008D01*
X-146108Y379689D02*
X-147427D01*
X-46460Y381668D02*
X-49098D01*
Y381008D01*
X-46460Y378369D01*
Y377710D01*
X49890Y381668D02*
X51209Y381008D01*
X52529Y379689D01*
Y378369D01*
X51869Y377710D01*
X50550D01*
X49890Y378369D01*
Y379029D01*
X50550Y379689D01*
X52529D01*
X148878Y381668D02*
X151517D01*
Y379689D01*
X150198Y380348D01*
X149538D01*
X148878Y379689D01*
Y378369D01*
X149538Y377710D01*
X150858D01*
X151517Y378369D01*
X248621Y381668D02*
X250506Y379029D01*
X247678D01*
X248621Y381668D02*
Y377710D01*
X349117Y381668D02*
X347044D01*
X348175Y380160D01*
X347609D01*
X347232Y379972D01*
X347044Y379783D01*
X346855Y379218D01*
Y378841D01*
X347044Y378275D01*
X347421Y377898D01*
X347986Y377710D01*
X348552D01*
X349117Y377898D01*
X349306Y378087D01*
X349494Y378464D01*
X448294Y380726D02*
Y380914D01*
X448106Y381291D01*
X447917Y381480D01*
X447540Y381668D01*
X446786D01*
X446409Y381480D01*
X446221Y381291D01*
X446032Y380914D01*
Y380537D01*
X446221Y380160D01*
X446598Y379595D01*
X448483Y377710D01*
X445844D01*
X547471Y380914D02*
X547094Y381103D01*
X546529Y381668D01*
Y377710D01*
X593006Y-96446D02*
Y-100405D01*
Y-96446D02*
X591686D01*
X591121Y-96635D01*
X590744Y-97011D01*
X590555Y-97388D01*
X590367Y-97954D01*
Y-98897D01*
X590555Y-99462D01*
X590744Y-99839D01*
X591121Y-100216D01*
X591686Y-100405D01*
X593006D01*
X590178Y41195D02*
X590367Y41572D01*
X590744Y41949D01*
X591121Y42138D01*
X591875D01*
X592252Y41949D01*
X592629Y41572D01*
X592817Y41195D01*
X593006Y40630D01*
Y39687D01*
X592817Y39122D01*
X592629Y38745D01*
X592252Y38368D01*
X591875Y38179D01*
X591121D01*
X590744Y38368D01*
X590367Y38745D01*
X590178Y39122D01*
X593006Y180722D02*
Y176763D01*
Y180722D02*
X591309D01*
X590744Y180533D01*
X590555Y180345D01*
X590367Y179968D01*
Y179591D01*
X590555Y179214D01*
X590744Y179025D01*
X591309Y178837D01*
X593006D02*
X591309D01*
X590744Y178648D01*
X590555Y178460D01*
X590367Y178083D01*
Y177517D01*
X590555Y177140D01*
X590744Y176952D01*
X591309Y176763D01*
X593006D01*
X589990Y315347D02*
X591498Y319306D01*
X593006Y315347D01*
X592440Y316666D02*
X590555D01*
X-189003Y-96446D02*
Y-100405D01*
Y-96446D02*
X-190322D01*
X-190888Y-96635D01*
X-191265Y-97011D01*
X-191453Y-97388D01*
X-191642Y-97954D01*
Y-98897D01*
X-191453Y-99462D01*
X-191265Y-99839D01*
X-190888Y-100216D01*
X-190322Y-100405D01*
X-189003D01*
X36691Y-145940D02*
Y-149899D01*
Y-145940D02*
X34052Y-149899D01*
Y-145940D02*
Y-149899D01*
X32016Y-147260D02*
X32393Y-147448D01*
X32770Y-147825D01*
X32958Y-148391D01*
Y-148768D01*
X32770Y-149333D01*
X32393Y-149710D01*
X32016Y-149899D01*
X31450D01*
X31073Y-149710D01*
X30696Y-149333D01*
X30508Y-148768D01*
Y-148391D01*
X30696Y-147825D01*
X31073Y-147448D01*
X31450Y-147260D01*
X32016D01*
X29075Y-145940D02*
Y-149145D01*
X28886Y-149710D01*
X28509Y-149899D01*
X28132D01*
X29641Y-147260D02*
X28321D01*
X24457Y-145940D02*
Y-149899D01*
X23627Y-147260D02*
Y-149899D01*
Y-148014D02*
X23061Y-147448D01*
X22685Y-147260D01*
X22119D01*
X21742Y-147448D01*
X21553Y-148014D01*
Y-149899D01*
X17406Y-145940D02*
X15898Y-149899D01*
X14390Y-145940D02*
X15898Y-149899D01*
X13881Y-148391D02*
X11619D01*
Y-148014D01*
X11808Y-147637D01*
X11996Y-147448D01*
X12373Y-147260D01*
X12939D01*
X13316Y-147448D01*
X13693Y-147825D01*
X13881Y-148391D01*
Y-148768D01*
X13693Y-149333D01*
X13316Y-149710D01*
X12939Y-149899D01*
X12373D01*
X11996Y-149710D01*
X11619Y-149333D01*
X10771Y-147260D02*
Y-149899D01*
Y-148391D02*
X10582Y-147825D01*
X10205Y-147448D01*
X9828Y-147260D01*
X9263D01*
X6831Y-147825D02*
X7020Y-147448D01*
X7585Y-147260D01*
X8151D01*
X8716Y-147448D01*
X8905Y-147825D01*
X8716Y-148202D01*
X8339Y-148391D01*
X7397Y-148579D01*
X7020Y-148768D01*
X6831Y-149145D01*
Y-149333D01*
X7020Y-149710D01*
X7585Y-149899D01*
X8151D01*
X8716Y-149710D01*
X8905Y-149333D01*
X5624Y-145940D02*
X5436Y-146129D01*
X5247Y-145940D01*
X5436Y-145752D01*
X5624Y-145940D01*
X5436Y-147260D02*
Y-149899D01*
X3607Y-147260D02*
X3984Y-147448D01*
X4362Y-147825D01*
X4550Y-148391D01*
Y-148768D01*
X4362Y-149333D01*
X3984Y-149710D01*
X3607Y-149899D01*
X3042D01*
X2665Y-149710D01*
X2288Y-149333D01*
X2099Y-148768D01*
Y-148391D01*
X2288Y-147825D01*
X2665Y-147448D01*
X3042Y-147260D01*
X3607D01*
X1232D02*
Y-149899D01*
Y-148014D02*
X667Y-147448D01*
X290Y-147260D01*
X-276D01*
X-653Y-147448D01*
X-841Y-148014D01*
Y-149899D01*
X-4706Y-146883D02*
X-4517Y-146506D01*
X-4140Y-146129D01*
X-3763Y-145940D01*
X-3009D01*
X-2632Y-146129D01*
X-2255Y-146506D01*
X-2067Y-146883D01*
X-1878Y-147448D01*
Y-148391D01*
X-2067Y-148956D01*
X-2255Y-149333D01*
X-2632Y-149710D01*
X-3009Y-149899D01*
X-3763D01*
X-4140Y-149710D01*
X-4517Y-149333D01*
X-4706Y-148956D01*
X-6761Y-147260D02*
X-6384Y-147448D01*
X-6006Y-147825D01*
X-5818Y-148391D01*
Y-148768D01*
X-6006Y-149333D01*
X-6384Y-149710D01*
X-6761Y-149899D01*
X-7326D01*
X-7703Y-149710D01*
X-8080Y-149333D01*
X-8268Y-148768D01*
Y-148391D01*
X-8080Y-147825D01*
X-7703Y-147448D01*
X-7326Y-147260D01*
X-6761D01*
X-9136D02*
Y-149899D01*
Y-148014D02*
X-9701Y-147448D01*
X-10078Y-147260D01*
X-10644D01*
X-11021Y-147448D01*
X-11209Y-148014D01*
Y-149899D01*
X-12812Y-145940D02*
Y-149145D01*
X-13000Y-149710D01*
X-13377Y-149899D01*
X-13754D01*
X-12246Y-147260D02*
X-13566D01*
X-14320D02*
Y-149899D01*
Y-148391D02*
X-14508Y-147825D01*
X-14885Y-147448D01*
X-15262Y-147260D01*
X-15828D01*
X-17128D02*
X-16751Y-147448D01*
X-16374Y-147825D01*
X-16186Y-148391D01*
Y-148768D01*
X-16374Y-149333D01*
X-16751Y-149710D01*
X-17128Y-149899D01*
X-17694D01*
X-18071Y-149710D01*
X-18448Y-149333D01*
X-18636Y-148768D01*
Y-148391D01*
X-18448Y-147825D01*
X-18071Y-147448D01*
X-17694Y-147260D01*
X-17128D01*
X-19504Y-145940D02*
Y-149899D01*
X36691Y-132836D02*
X36314Y-132647D01*
X35748Y-132082D01*
Y-136040D01*
X33411Y-132082D02*
X31337D01*
X32468Y-133590D01*
X31903D01*
X31526Y-133778D01*
X31337Y-133967D01*
X31149Y-134532D01*
Y-134909D01*
X31337Y-135475D01*
X31714Y-135852D01*
X32280Y-136040D01*
X32845D01*
X33411Y-135852D01*
X33599Y-135663D01*
X33788Y-135287D01*
X30074Y-135663D02*
X30263Y-135852D01*
X30074Y-136040D01*
X29886Y-135852D01*
X30074Y-135663D01*
X27887Y-132082D02*
X28453Y-132270D01*
X28830Y-132836D01*
X29018Y-133778D01*
Y-134344D01*
X28830Y-135287D01*
X28453Y-135852D01*
X27887Y-136040D01*
X27510D01*
X26945Y-135852D01*
X26568Y-135287D01*
X26379Y-134344D01*
Y-133778D01*
X26568Y-132836D01*
X26945Y-132270D01*
X27510Y-132082D01*
X27887D01*
X24551D02*
X25116Y-132270D01*
X25305Y-132647D01*
Y-133024D01*
X25116Y-133401D01*
X24739Y-133590D01*
X23985Y-133778D01*
X23420Y-133967D01*
X23043Y-134344D01*
X22854Y-134721D01*
Y-135287D01*
X23043Y-135663D01*
X23231Y-135852D01*
X23797Y-136040D01*
X24551D01*
X25116Y-135852D01*
X25305Y-135663D01*
X25493Y-135287D01*
Y-134721D01*
X25305Y-134344D01*
X24928Y-133967D01*
X24362Y-133778D01*
X23608Y-133590D01*
X23231Y-133401D01*
X23043Y-133024D01*
Y-132647D01*
X23231Y-132270D01*
X23797Y-132082D01*
X24551D01*
X21780Y-135663D02*
X21968Y-135852D01*
X21780Y-136040D01*
X21591Y-135852D01*
X21780Y-135663D01*
X20536Y-133024D02*
Y-132836D01*
X20347Y-132459D01*
X20159Y-132270D01*
X19782Y-132082D01*
X19027D01*
X18650Y-132270D01*
X18462Y-132459D01*
X18273Y-132836D01*
Y-133213D01*
X18462Y-133590D01*
X18839Y-134155D01*
X20724Y-136040D01*
X18085D01*
X16068Y-132082D02*
X16633Y-132270D01*
X17010Y-132836D01*
X17199Y-133778D01*
Y-134344D01*
X17010Y-135287D01*
X16633Y-135852D01*
X16068Y-136040D01*
X15691D01*
X15125Y-135852D01*
X14748Y-135287D01*
X14560Y-134344D01*
Y-133778D01*
X14748Y-132836D01*
X15125Y-132270D01*
X15691Y-132082D01*
X16068D01*
X13485Y-133024D02*
Y-132836D01*
X13297Y-132459D01*
X13108Y-132270D01*
X12731Y-132082D01*
X11977D01*
X11600Y-132270D01*
X11412Y-132459D01*
X11223Y-132836D01*
Y-133213D01*
X11412Y-133590D01*
X11789Y-134155D01*
X13674Y-136040D01*
X11035D01*
X9018Y-132082D02*
X9583Y-132270D01*
X9960Y-132836D01*
X10149Y-133778D01*
Y-134344D01*
X9960Y-135287D01*
X9583Y-135852D01*
X9018Y-136040D01*
X8641D01*
X8075Y-135852D01*
X7698Y-135287D01*
X7510Y-134344D01*
Y-133778D01*
X7698Y-132836D01*
X8075Y-132270D01*
X8641Y-132082D01*
X9018D01*
X123475Y-130102D02*
Y-134061D01*
X122646Y-131422D02*
Y-134061D01*
Y-132176D02*
X122080Y-131610D01*
X121704Y-131422D01*
X121138D01*
X120761Y-131610D01*
X120572Y-132176D01*
Y-134061D01*
X118028Y-130102D02*
X118405D01*
X118782Y-130290D01*
X118970Y-130856D01*
Y-134061D01*
X119536Y-131422D02*
X118216D01*
X117085Y-130102D02*
X116896Y-130290D01*
X116708Y-130102D01*
X116896Y-129914D01*
X117085Y-130102D01*
X116896Y-131422D02*
Y-134061D01*
X116011Y-131422D02*
Y-134061D01*
Y-132176D02*
X115445Y-131610D01*
X115068Y-131422D01*
X114502D01*
X114125Y-131610D01*
X113937Y-132176D01*
Y-134061D01*
X112900Y-132553D02*
X110638D01*
Y-132176D01*
X110827Y-131799D01*
X111015Y-131610D01*
X111392Y-131422D01*
X111958D01*
X112335Y-131610D01*
X112712Y-131987D01*
X112900Y-132553D01*
Y-132930D01*
X112712Y-133495D01*
X112335Y-133872D01*
X111958Y-134061D01*
X111392D01*
X111015Y-133872D01*
X110638Y-133495D01*
X108847Y-131422D02*
X109224Y-131610D01*
X109601Y-131987D01*
X109790Y-132553D01*
Y-132930D01*
X109601Y-133495D01*
X109224Y-133872D01*
X108847Y-134061D01*
X108282D01*
X107905Y-133872D01*
X107528Y-133495D01*
X107339Y-132930D01*
Y-132553D01*
X107528Y-131987D01*
X107905Y-131610D01*
X108282Y-131422D01*
X108847D01*
X106472D02*
Y-134061D01*
Y-132176D02*
X105906Y-131610D01*
X105529Y-131422D01*
X104964D01*
X104587Y-131610D01*
X104398Y-132176D01*
Y-134061D01*
X98932Y-130102D02*
Y-134061D01*
X100251Y-130102D02*
X97612D01*
X97141Y-132553D02*
X94879D01*
Y-132176D01*
X95067Y-131799D01*
X95256Y-131610D01*
X95633Y-131422D01*
X96198D01*
X96575Y-131610D01*
X96952Y-131987D01*
X97141Y-132553D01*
Y-132930D01*
X96952Y-133495D01*
X96575Y-133872D01*
X96198Y-134061D01*
X95633D01*
X95256Y-133872D01*
X94879Y-133495D01*
X91768Y-131987D02*
X92145Y-131610D01*
X92522Y-131422D01*
X93088D01*
X93465Y-131610D01*
X93842Y-131987D01*
X94031Y-132553D01*
Y-132930D01*
X93842Y-133495D01*
X93465Y-133872D01*
X93088Y-134061D01*
X92522D01*
X92145Y-133872D01*
X91768Y-133495D01*
X90920Y-130102D02*
Y-134061D01*
Y-132176D02*
X90355Y-131610D01*
X89978Y-131422D01*
X89412D01*
X89035Y-131610D01*
X88847Y-132176D01*
Y-134061D01*
X87810Y-131422D02*
Y-134061D01*
Y-132176D02*
X87244Y-131610D01*
X86867Y-131422D01*
X86302D01*
X85925Y-131610D01*
X85736Y-132176D01*
Y-134061D01*
X83757Y-131422D02*
X84134Y-131610D01*
X84511Y-131987D01*
X84699Y-132553D01*
Y-132930D01*
X84511Y-133495D01*
X84134Y-133872D01*
X83757Y-134061D01*
X83191D01*
X82814Y-133872D01*
X82437Y-133495D01*
X82249Y-132930D01*
Y-132553D01*
X82437Y-131987D01*
X82814Y-131610D01*
X83191Y-131422D01*
X83757D01*
X81382Y-130102D02*
Y-134061D01*
X79610Y-131422D02*
X79987Y-131610D01*
X80364Y-131987D01*
X80552Y-132553D01*
Y-132930D01*
X80364Y-133495D01*
X79987Y-133872D01*
X79610Y-134061D01*
X79044D01*
X78667Y-133872D01*
X78290Y-133495D01*
X78102Y-132930D01*
Y-132553D01*
X78290Y-131987D01*
X78667Y-131610D01*
X79044Y-131422D01*
X79610D01*
X74972D02*
Y-134438D01*
X75161Y-135003D01*
X75349Y-135192D01*
X75726Y-135380D01*
X76292D01*
X76669Y-135192D01*
X74972Y-131987D02*
X75349Y-131610D01*
X75726Y-131422D01*
X76292D01*
X76669Y-131610D01*
X77046Y-131987D01*
X77234Y-132553D01*
Y-132930D01*
X77046Y-133495D01*
X76669Y-133872D01*
X76292Y-134061D01*
X75726D01*
X75349Y-133872D01*
X74972Y-133495D01*
X73540Y-130102D02*
X73351Y-130290D01*
X73163Y-130102D01*
X73351Y-129914D01*
X73540Y-130102D01*
X73351Y-131422D02*
Y-134061D01*
X72465Y-132553D02*
X70203D01*
Y-132176D01*
X70392Y-131799D01*
X70580Y-131610D01*
X70957Y-131422D01*
X71523D01*
X71900Y-131610D01*
X72277Y-131987D01*
X72465Y-132553D01*
Y-132930D01*
X72277Y-133495D01*
X71900Y-133872D01*
X71523Y-134061D01*
X70957D01*
X70580Y-133872D01*
X70203Y-133495D01*
X67281Y-131987D02*
X67470Y-131610D01*
X68035Y-131422D01*
X68601D01*
X69166Y-131610D01*
X69355Y-131987D01*
X69166Y-132364D01*
X68789Y-132553D01*
X67847Y-132741D01*
X67470Y-132930D01*
X67281Y-133307D01*
Y-133495D01*
X67470Y-133872D01*
X68035Y-134061D01*
X68601D01*
X69166Y-133872D01*
X69355Y-133495D01*
X60325Y-134061D02*
X61833Y-130102D01*
X63341Y-134061D01*
X62776Y-132741D02*
X60891D01*
X56574Y-131045D02*
X56762Y-130667D01*
X57139Y-130290D01*
X57516Y-130102D01*
X58270D01*
X58647Y-130290D01*
X59025Y-130667D01*
X59213Y-131045D01*
X59401Y-131610D01*
Y-132553D01*
X59213Y-133118D01*
X59025Y-133495D01*
X58647Y-133872D01*
X58270Y-134061D01*
X57516D01*
X57139Y-133872D01*
X56762Y-133495D01*
X56574Y-133118D01*
Y-132553D01*
X57516D02*
X56574D01*
X130000Y-136501D02*
Y-140000D01*
X129267Y-136501D02*
Y-140000D01*
Y-136501D02*
X127101D01*
X129267Y-138167D02*
X127934D01*
X124035Y-140000D02*
X125368Y-136501D01*
X126701Y-140000D01*
X126201Y-138834D02*
X124535D01*
X120719Y-137334D02*
X120885Y-137001D01*
X121219Y-136667D01*
X121552Y-136501D01*
X122218D01*
X122552Y-136667D01*
X122885Y-137001D01*
X123052Y-137334D01*
X123218Y-137834D01*
Y-138667D01*
X123052Y-139167D01*
X122885Y-139500D01*
X122552Y-139833D01*
X122218Y-140000D01*
X121552D01*
X121219Y-139833D01*
X120885Y-139500D01*
X120719Y-139167D01*
Y-138667D01*
X121552D02*
X120719D01*
X117169Y-138334D02*
X115670D01*
X115170Y-138167D01*
X115003Y-138000D01*
X114837Y-137667D01*
Y-137167D01*
X115003Y-136834D01*
X115170Y-136667D01*
X115670Y-136501D01*
X117169D01*
Y-140000D01*
X111721Y-137001D02*
X112054Y-136667D01*
X112554Y-136501D01*
X113220D01*
X113720Y-136667D01*
X114053Y-137001D01*
Y-137334D01*
X113887Y-137667D01*
X113720Y-137834D01*
X113387Y-138000D01*
X112387Y-138334D01*
X112054Y-138500D01*
X111887Y-138667D01*
X111721Y-139000D01*
Y-139500D01*
X112054Y-139833D01*
X112554Y-140000D01*
X113220D01*
X113720Y-139833D01*
X114053Y-139500D01*
X108605Y-137001D02*
X108938Y-136667D01*
X109438Y-136501D01*
X110104D01*
X110604Y-136667D01*
X110937Y-137001D01*
Y-137334D01*
X110771Y-137667D01*
X110604Y-137834D01*
X110271Y-138000D01*
X109271Y-138334D01*
X108938Y-138500D01*
X108771Y-138667D01*
X108605Y-139000D01*
Y-139500D01*
X108938Y-139833D01*
X109438Y-140000D01*
X110104D01*
X110604Y-139833D01*
X110937Y-139500D01*
X105072Y-136501D02*
Y-140000D01*
Y-136501D02*
X103572D01*
X103073Y-136667D01*
X102906Y-136834D01*
X102739Y-137167D01*
Y-137500D01*
X102906Y-137834D01*
X103073Y-138000D01*
X103572Y-138167D01*
X105072D01*
X103906D02*
X102739Y-140000D01*
X101956Y-136501D02*
Y-140000D01*
Y-136501D02*
X99790D01*
X101956Y-138167D02*
X100623D01*
X97057Y-137001D02*
X97390Y-136667D01*
X97890Y-136501D01*
X98557D01*
X99057Y-136667D01*
X99390Y-137001D01*
Y-137334D01*
X99223Y-137667D01*
X99057Y-137834D01*
X98723Y-138000D01*
X97724Y-138334D01*
X97390Y-138500D01*
X97224Y-138667D01*
X97057Y-139000D01*
Y-139500D01*
X97390Y-139833D01*
X97890Y-140000D01*
X98557D01*
X99057Y-139833D01*
X99390Y-139500D01*
X93191Y-136501D02*
X91358D01*
X92358Y-137834D01*
X91858D01*
X91525Y-138000D01*
X91358Y-138167D01*
X91192Y-138667D01*
Y-139000D01*
X91358Y-139500D01*
X91692Y-139833D01*
X92191Y-140000D01*
X92691D01*
X93191Y-139833D01*
X93358Y-139667D01*
X93525Y-139333D01*
X90409Y-136501D02*
Y-140000D01*
Y-136501D02*
X89242D01*
X88742Y-136667D01*
X88409Y-137001D01*
X88242Y-137334D01*
X88076Y-137834D01*
Y-138667D01*
X88242Y-139167D01*
X88409Y-139500D01*
X88742Y-139833D01*
X89242Y-140000D01*
X90409D01*
X84960Y-137001D02*
X85293Y-136667D01*
X85793Y-136501D01*
X86459D01*
X86959Y-136667D01*
X87293Y-137001D01*
Y-137334D01*
X87126Y-137667D01*
X86959Y-137834D01*
X86626Y-138000D01*
X85626Y-138334D01*
X85293Y-138500D01*
X85126Y-138667D01*
X84960Y-139000D01*
Y-139500D01*
X85293Y-139833D01*
X85793Y-140000D01*
X86459D01*
X86959Y-139833D01*
X87293Y-139500D01*
X79094Y-137001D02*
X79428Y-136667D01*
X79928Y-136501D01*
X80594D01*
X81094Y-136667D01*
X81427Y-137001D01*
Y-137334D01*
X81260Y-137667D01*
X81094Y-137834D01*
X80761Y-138000D01*
X79761Y-138334D01*
X79428Y-138500D01*
X79261Y-138667D01*
X79094Y-139000D01*
Y-139500D01*
X79428Y-139833D01*
X79928Y-140000D01*
X80594D01*
X81094Y-139833D01*
X81427Y-139500D01*
X75645Y-140000D02*
X76978Y-136501D01*
X78311Y-140000D01*
X77811Y-138834D02*
X76145D01*
X72662Y-136501D02*
X74829D01*
Y-140000D01*
X72662D01*
X74829Y-138167D02*
X73496D01*
X69330Y-136501D02*
Y-140000D01*
Y-136501D02*
X67830D01*
X67330Y-136667D01*
X67164Y-136834D01*
X66997Y-137167D01*
Y-137500D01*
X67164Y-137834D01*
X67330Y-138000D01*
X67830Y-138167D01*
X69330D01*
X68163D02*
X66997Y-140000D01*
X63881Y-137001D02*
X64214Y-136667D01*
X64714Y-136501D01*
X65381D01*
X65880Y-136667D01*
X66214Y-137001D01*
Y-137334D01*
X66047Y-137667D01*
X65880Y-137834D01*
X65547Y-138000D01*
X64548Y-138334D01*
X64214Y-138500D01*
X64048Y-138667D01*
X63881Y-139000D01*
Y-139500D01*
X64214Y-139833D01*
X64714Y-140000D01*
X65381D01*
X65880Y-139833D01*
X66214Y-139500D01*
X109686Y-145939D02*
X111194Y-141981D01*
X112702Y-145939D01*
X112137Y-144620D02*
X110252D01*
X108762Y-143300D02*
Y-145939D01*
Y-144054D02*
X108197Y-143489D01*
X107820Y-143300D01*
X107254D01*
X106877Y-143489D01*
X106689Y-144054D01*
Y-145939D01*
Y-144054D02*
X106123Y-143489D01*
X105746Y-143300D01*
X105181D01*
X104804Y-143489D01*
X104615Y-144054D01*
Y-145939D01*
X97433Y-142923D02*
X97621Y-142546D01*
X97999Y-142169D01*
X98376Y-141981D01*
X99129D01*
X99507Y-142169D01*
X99884Y-142546D01*
X100072Y-142923D01*
X100261Y-143489D01*
Y-144431D01*
X100072Y-144997D01*
X99884Y-145374D01*
X99507Y-145751D01*
X99129Y-145939D01*
X98376D01*
X97999Y-145751D01*
X97621Y-145374D01*
X97433Y-144997D01*
X94059Y-143300D02*
Y-145939D01*
Y-143866D02*
X94436Y-143489D01*
X94813Y-143300D01*
X95378D01*
X95755Y-143489D01*
X96132Y-143866D01*
X96321Y-144431D01*
Y-144808D01*
X96132Y-145374D01*
X95755Y-145751D01*
X95378Y-145939D01*
X94813D01*
X94436Y-145751D01*
X94059Y-145374D01*
X93003Y-143300D02*
Y-145939D01*
Y-144054D02*
X92437Y-143489D01*
X92060Y-143300D01*
X91495D01*
X91118Y-143489D01*
X90929Y-144054D01*
Y-145939D01*
Y-144054D02*
X90364Y-143489D01*
X89987Y-143300D01*
X89421D01*
X89044Y-143489D01*
X88856Y-144054D01*
Y-145939D01*
X87612Y-143300D02*
Y-147259D01*
Y-143866D02*
X87235Y-143489D01*
X86858Y-143300D01*
X86292D01*
X85915Y-143489D01*
X85538Y-143866D01*
X85350Y-144431D01*
Y-144808D01*
X85538Y-145374D01*
X85915Y-145751D01*
X86292Y-145939D01*
X86858D01*
X87235Y-145751D01*
X87612Y-145374D01*
X84501Y-144431D02*
X82239D01*
Y-144054D01*
X82428Y-143677D01*
X82616Y-143489D01*
X82993Y-143300D01*
X83559D01*
X83936Y-143489D01*
X84313Y-143866D01*
X84501Y-144431D01*
Y-144808D01*
X84313Y-145374D01*
X83936Y-145751D01*
X83559Y-145939D01*
X82993D01*
X82616Y-145751D01*
X82239Y-145374D01*
X80448Y-143300D02*
X80825Y-143489D01*
X81202Y-143866D01*
X81391Y-144431D01*
Y-144808D01*
X81202Y-145374D01*
X80825Y-145751D01*
X80448Y-145939D01*
X79883D01*
X79506Y-145751D01*
X79129Y-145374D01*
X78940Y-144808D01*
Y-144431D01*
X79129Y-143866D01*
X79506Y-143489D01*
X79883Y-143300D01*
X80448D01*
X78073D02*
Y-145939D01*
Y-144054D02*
X77508Y-143489D01*
X77131Y-143300D01*
X76565D01*
X76188Y-143489D01*
X76000Y-144054D01*
Y-145939D01*
X71852Y-142735D02*
X71475Y-142546D01*
X70910Y-141981D01*
Y-145939D01*
X68949Y-144243D02*
X65556D01*
X64387Y-142735D02*
X64010Y-142546D01*
X63445Y-141981D01*
Y-145939D01*
X59222Y-141981D02*
X61107D01*
X61296Y-143677D01*
X61107Y-143489D01*
X60542Y-143300D01*
X59976D01*
X59411Y-143489D01*
X59034Y-143866D01*
X58845Y-144431D01*
Y-144808D01*
X59034Y-145374D01*
X59411Y-145751D01*
X59976Y-145939D01*
X60542D01*
X61107Y-145751D01*
X61296Y-145562D01*
X61484Y-145185D01*
X121057Y-148041D02*
X121623Y-148230D01*
X121812Y-148607D01*
Y-148984D01*
X121623Y-149361D01*
X121246Y-149549D01*
X120492Y-149738D01*
X119926Y-149926D01*
X119549Y-150303D01*
X119361Y-150680D01*
Y-151246D01*
X119549Y-151623D01*
X119738Y-151812D01*
X120303Y-152000D01*
X121057D01*
X121623Y-151812D01*
X121812Y-151623D01*
X122000Y-151246D01*
Y-150680D01*
X121812Y-150303D01*
X121434Y-149926D01*
X120869Y-149738D01*
X120115Y-149549D01*
X119738Y-149361D01*
X119549Y-148984D01*
Y-148607D01*
X119738Y-148230D01*
X120303Y-148041D01*
X121057D01*
X116213D02*
X118098D01*
X118286Y-149738D01*
X118098Y-149549D01*
X117532Y-149361D01*
X116967D01*
X116401Y-149549D01*
X116024Y-149926D01*
X115836Y-150492D01*
Y-150869D01*
X116024Y-151434D01*
X116401Y-151812D01*
X116967Y-152000D01*
X117532D01*
X118098Y-151812D01*
X118286Y-151623D01*
X118475Y-151246D01*
X112688Y-148041D02*
X114573D01*
X114761Y-149738D01*
X114573Y-149549D01*
X114007Y-149361D01*
X113442D01*
X112876Y-149549D01*
X112499Y-149926D01*
X112311Y-150492D01*
Y-150869D01*
X112499Y-151434D01*
X112876Y-151812D01*
X113442Y-152000D01*
X114007D01*
X114573Y-151812D01*
X114761Y-151623D01*
X114950Y-151246D01*
X108785Y-148041D02*
X110671Y-152000D01*
X111425Y-148041D02*
X108785D01*
X105449Y-149361D02*
X105637Y-149926D01*
X106014Y-150303D01*
X106580Y-150492D01*
X106769D01*
X107334Y-150303D01*
X107711Y-149926D01*
X107900Y-149361D01*
Y-149172D01*
X107711Y-148607D01*
X107334Y-148230D01*
X106769Y-148041D01*
X106580D01*
X106014Y-148230D01*
X105637Y-148607D01*
X105449Y-149361D01*
Y-150303D01*
X105637Y-151246D01*
X106014Y-151812D01*
X106580Y-152000D01*
X106957D01*
X107522Y-151812D01*
X107711Y-151434D01*
X101264Y-148041D02*
Y-152000D01*
Y-148041D02*
X98625Y-152000D01*
Y-148041D02*
Y-152000D01*
X97532Y-150492D02*
X95269D01*
Y-150115D01*
X95458Y-149738D01*
X95646Y-149549D01*
X96024Y-149361D01*
X96589D01*
X96966Y-149549D01*
X97343Y-149926D01*
X97532Y-150492D01*
Y-150869D01*
X97343Y-151434D01*
X96966Y-151812D01*
X96589Y-152000D01*
X96024D01*
X95646Y-151812D01*
X95269Y-151434D01*
X94421Y-149361D02*
Y-151246D01*
X94233Y-151812D01*
X93856Y-152000D01*
X93290D01*
X92913Y-151812D01*
X92348Y-151246D01*
Y-149361D02*
Y-152000D01*
X91311Y-148041D02*
Y-152000D01*
Y-149926D02*
X90934Y-149549D01*
X90557Y-149361D01*
X89991D01*
X89614Y-149549D01*
X89237Y-149926D01*
X89049Y-150492D01*
Y-150869D01*
X89237Y-151434D01*
X89614Y-151812D01*
X89991Y-152000D01*
X90557D01*
X90934Y-151812D01*
X91311Y-151434D01*
X87823Y-148041D02*
X87635Y-148230D01*
X87446Y-148041D01*
X87635Y-147853D01*
X87823Y-148041D01*
X87635Y-149361D02*
Y-152000D01*
X86749Y-148041D02*
Y-152000D01*
Y-149926D02*
X86372Y-149549D01*
X85995Y-149361D01*
X85429D01*
X85052Y-149549D01*
X84675Y-149926D01*
X84487Y-150492D01*
Y-150869D01*
X84675Y-151434D01*
X85052Y-151812D01*
X85429Y-152000D01*
X85995D01*
X86372Y-151812D01*
X86749Y-151434D01*
X83638Y-150492D02*
X81376D01*
Y-150115D01*
X81565Y-149738D01*
X81753Y-149549D01*
X82130Y-149361D01*
X82696D01*
X83073Y-149549D01*
X83450Y-149926D01*
X83638Y-150492D01*
Y-150869D01*
X83450Y-151434D01*
X83073Y-151812D01*
X82696Y-152000D01*
X82130D01*
X81753Y-151812D01*
X81376Y-151434D01*
X80528Y-149361D02*
Y-152000D01*
Y-150492D02*
X80340Y-149926D01*
X79963Y-149549D01*
X79586Y-149361D01*
X79020D01*
X76400D02*
Y-152377D01*
X76588Y-152942D01*
X76777Y-153131D01*
X77154Y-153320D01*
X77719D01*
X78096Y-153131D01*
X76400Y-149926D02*
X76777Y-149549D01*
X77154Y-149361D01*
X77719D01*
X78096Y-149549D01*
X78473Y-149926D01*
X78662Y-150492D01*
Y-150869D01*
X78473Y-151434D01*
X78096Y-151812D01*
X77719Y-152000D01*
X77154D01*
X76777Y-151812D01*
X76400Y-151434D01*
X74967Y-151812D02*
X75156Y-152000D01*
X75344Y-151812D01*
X75156Y-151623D01*
X74967Y-151812D01*
Y-152189D01*
X75156Y-152565D01*
X75344Y-152754D01*
X68162Y-148984D02*
X68351Y-148607D01*
X68727Y-148230D01*
X69104Y-148041D01*
X69858D01*
X70236Y-148230D01*
X70613Y-148607D01*
X70801Y-148984D01*
X70990Y-149549D01*
Y-150492D01*
X70801Y-151058D01*
X70613Y-151434D01*
X70236Y-151812D01*
X69858Y-152000D01*
X69104D01*
X68727Y-151812D01*
X68351Y-151434D01*
X68162Y-151058D01*
Y-150492D01*
X69104D02*
X68162D01*
X67257D02*
X64995D01*
Y-150115D01*
X65184Y-149738D01*
X65372Y-149549D01*
X65749Y-149361D01*
X66315D01*
X66692Y-149549D01*
X67069Y-149926D01*
X67257Y-150492D01*
Y-150869D01*
X67069Y-151434D01*
X66692Y-151812D01*
X66315Y-152000D01*
X65749D01*
X65372Y-151812D01*
X64995Y-151434D01*
X64147Y-149361D02*
Y-152000D01*
Y-150492D02*
X63958Y-149926D01*
X63581Y-149549D01*
X63204Y-149361D01*
X62639D01*
X62281D02*
Y-152000D01*
Y-150115D02*
X61715Y-149549D01*
X61338Y-149361D01*
X60772D01*
X60395Y-149549D01*
X60207Y-150115D01*
Y-152000D01*
Y-150115D02*
X59641Y-149549D01*
X59264Y-149361D01*
X58699D01*
X58322Y-149549D01*
X58133Y-150115D01*
Y-152000D01*
X54627Y-149361D02*
Y-152000D01*
Y-149926D02*
X55004Y-149549D01*
X55381Y-149361D01*
X55947D01*
X56324Y-149549D01*
X56701Y-149926D01*
X56889Y-150492D01*
Y-150869D01*
X56701Y-151434D01*
X56324Y-151812D01*
X55947Y-152000D01*
X55381D01*
X55004Y-151812D01*
X54627Y-151434D01*
X53571Y-149361D02*
Y-152000D01*
Y-150115D02*
X53006Y-149549D01*
X52629Y-149361D01*
X52063D01*
X51686Y-149549D01*
X51498Y-150115D01*
Y-152000D01*
X50272Y-149361D02*
X49142Y-152000D01*
X48010Y-149361D02*
X49142Y-152000D01*
X49518Y-152754D01*
X49896Y-153131D01*
X50272Y-153320D01*
X50461D01*
X-137718Y-133024D02*
Y-132836D01*
X-137906Y-132459D01*
X-138095Y-132270D01*
X-138471Y-132082D01*
X-139226D01*
X-139602Y-132270D01*
X-139791Y-132459D01*
X-139980Y-132836D01*
Y-133213D01*
X-139791Y-133590D01*
X-139414Y-134155D01*
X-137529Y-136040D01*
X-140168D01*
X-141243Y-135663D02*
X-141054Y-135852D01*
X-141243Y-136040D01*
X-141431Y-135852D01*
X-141243Y-135663D01*
X-142487Y-133024D02*
Y-132836D01*
X-142675Y-132459D01*
X-142864Y-132270D01*
X-143241Y-132082D01*
X-143995D01*
X-144372Y-132270D01*
X-144560Y-132459D01*
X-144749Y-132836D01*
Y-133213D01*
X-144560Y-133590D01*
X-144183Y-134155D01*
X-142298Y-136040D01*
X-144937D01*
X-163454Y-133024D02*
Y-132836D01*
X-163643Y-132459D01*
X-163832Y-132270D01*
X-164209Y-132082D01*
X-164963D01*
X-165340Y-132270D01*
X-165528Y-132459D01*
X-165717Y-132836D01*
Y-133213D01*
X-165528Y-133590D01*
X-165151Y-134155D01*
X-163266Y-136040D01*
X-165905D01*
X-166980Y-135663D02*
X-166791Y-135852D01*
X-166980Y-136040D01*
X-167168Y-135852D01*
X-166980Y-135663D01*
X-168224Y-133024D02*
Y-132836D01*
X-168412Y-132459D01*
X-168601Y-132270D01*
X-168978Y-132082D01*
X-169732D01*
X-170109Y-132270D01*
X-170297Y-132459D01*
X-170486Y-132836D01*
Y-133213D01*
X-170297Y-133590D01*
X-169920Y-134155D01*
X-168035Y-136040D01*
X-170674D01*
X-161000Y-147361D02*
Y-149246D01*
X-161189Y-149811D01*
X-161565Y-150000D01*
X-162131D01*
X-162508Y-149811D01*
X-163074Y-149246D01*
Y-147361D02*
Y-150000D01*
X-164110Y-147361D02*
Y-150000D01*
Y-148115D02*
X-164676Y-147549D01*
X-165053Y-147361D01*
X-165618D01*
X-165996Y-147549D01*
X-166184Y-148115D01*
Y-150000D01*
X-167221Y-146041D02*
Y-150000D01*
X-169106Y-147361D02*
X-167221Y-149246D01*
X-167975Y-148492D02*
X-169294Y-150000D01*
X-169916Y-147361D02*
Y-150000D01*
Y-148115D02*
X-170482Y-147549D01*
X-170859Y-147361D01*
X-171425D01*
X-171801Y-147549D01*
X-171990Y-148115D01*
Y-150000D01*
X-173969Y-147361D02*
X-173592Y-147549D01*
X-173215Y-147926D01*
X-173027Y-148492D01*
Y-148869D01*
X-173215Y-149434D01*
X-173592Y-149811D01*
X-173969Y-150000D01*
X-174535D01*
X-174912Y-149811D01*
X-175289Y-149434D01*
X-175477Y-148869D01*
Y-148492D01*
X-175289Y-147926D01*
X-174912Y-147549D01*
X-174535Y-147361D01*
X-173969D01*
X-176345D02*
X-177099Y-150000D01*
X-177853Y-147361D02*
X-177099Y-150000D01*
X-177853Y-147361D02*
X-178607Y-150000D01*
X-179361Y-147361D02*
X-178607Y-150000D01*
X-180284Y-147361D02*
Y-150000D01*
Y-148115D02*
X-180850Y-147549D01*
X-181227Y-147361D01*
X-181793D01*
X-182169Y-147549D01*
X-182358Y-148115D01*
Y-150000D01*
X37691Y-105297D02*
X35994D01*
X35429Y-105108D01*
X35240Y-104920D01*
X35052Y-104543D01*
Y-103977D01*
X35240Y-103601D01*
X35429Y-103412D01*
X35994Y-103223D01*
X37691D01*
Y-107182D01*
X31527Y-103789D02*
X31904Y-103412D01*
X32469Y-103223D01*
X33223D01*
X33789Y-103412D01*
X34166Y-103789D01*
Y-104166D01*
X33977Y-104543D01*
X33789Y-104732D01*
X33412Y-104920D01*
X32280Y-105297D01*
X31904Y-105485D01*
X31715Y-105674D01*
X31527Y-106051D01*
Y-106617D01*
X31904Y-106994D01*
X32469Y-107182D01*
X33223D01*
X33789Y-106994D01*
X34166Y-106617D01*
X28001Y-103789D02*
X28378Y-103412D01*
X28944Y-103223D01*
X29698D01*
X30264Y-103412D01*
X30640Y-103789D01*
Y-104166D01*
X30452Y-104543D01*
X30264Y-104732D01*
X29887Y-104920D01*
X28755Y-105297D01*
X28378Y-105485D01*
X28190Y-105674D01*
X28001Y-106051D01*
Y-106617D01*
X28378Y-106994D01*
X28944Y-107182D01*
X29698D01*
X30264Y-106994D01*
X30640Y-106617D01*
X24005Y-103223D02*
Y-107182D01*
Y-103223D02*
X22308D01*
X21743Y-103412D01*
X21554Y-103601D01*
X21366Y-103977D01*
Y-104354D01*
X21554Y-104732D01*
X21743Y-104920D01*
X22308Y-105108D01*
X24005D01*
X22685D02*
X21366Y-107182D01*
X20480Y-103223D02*
Y-107182D01*
Y-103223D02*
X18029D01*
X20480Y-105108D02*
X18972D01*
X14938Y-103789D02*
X15315Y-103412D01*
X15880Y-103223D01*
X16634D01*
X17200Y-103412D01*
X17577Y-103789D01*
Y-104166D01*
X17388Y-104543D01*
X17200Y-104732D01*
X16823Y-104920D01*
X15692Y-105297D01*
X15315Y-105485D01*
X15126Y-105674D01*
X14938Y-106051D01*
Y-106617D01*
X15315Y-106994D01*
X15880Y-107182D01*
X16634D01*
X17200Y-106994D01*
X17577Y-106617D01*
X10564Y-103223D02*
X8491D01*
X9622Y-104732D01*
X9056D01*
X8679Y-104920D01*
X8491Y-105108D01*
X8302Y-105674D01*
Y-106051D01*
X8491Y-106617D01*
X8868Y-106994D01*
X9433Y-107182D01*
X9999D01*
X10564Y-106994D01*
X10753Y-106805D01*
X10941Y-106428D01*
X7416Y-103223D02*
Y-107182D01*
Y-103223D02*
X6097D01*
X5531Y-103412D01*
X5154Y-103789D01*
X4966Y-104166D01*
X4777Y-104732D01*
Y-105674D01*
X4966Y-106240D01*
X5154Y-106617D01*
X5531Y-106994D01*
X6097Y-107182D01*
X7416D01*
X1252Y-103789D02*
X1629Y-103412D01*
X2195Y-103223D01*
X2949D01*
X3514Y-103412D01*
X3891Y-103789D01*
Y-104166D01*
X3703Y-104543D01*
X3514Y-104732D01*
X3137Y-104920D01*
X2006Y-105297D01*
X1629Y-105485D01*
X1441Y-105674D01*
X1252Y-106051D01*
Y-106617D01*
X1629Y-106994D01*
X2195Y-107182D01*
X2949D01*
X3514Y-106994D01*
X3891Y-106617D01*
X-5383Y-103789D02*
X-5006Y-103412D01*
X-4441Y-103223D01*
X-3687D01*
X-3121Y-103412D01*
X-2744Y-103789D01*
Y-104166D01*
X-2933Y-104543D01*
X-3121Y-104732D01*
X-3498Y-104920D01*
X-4629Y-105297D01*
X-5006Y-105485D01*
X-5195Y-105674D01*
X-5383Y-106051D01*
Y-106617D01*
X-5006Y-106994D01*
X-4441Y-107182D01*
X-3687D01*
X-3121Y-106994D01*
X-2744Y-106617D01*
X-9286Y-107182D02*
X-7778Y-103223D01*
X-6270Y-107182D01*
X-6835Y-105863D02*
X-8720D01*
X-12660Y-103223D02*
X-10209D01*
Y-107182D01*
X-12660D01*
X-10209Y-105108D02*
X-11717D01*
X-16430Y-103223D02*
Y-107182D01*
Y-103223D02*
X-18127D01*
X-18692Y-103412D01*
X-18881Y-103601D01*
X-19069Y-103977D01*
Y-104354D01*
X-18881Y-104732D01*
X-18692Y-104920D01*
X-18127Y-105108D01*
X-16430D01*
X-17750D02*
X-19069Y-107182D01*
X-22594Y-103789D02*
X-22217Y-103412D01*
X-21652Y-103223D01*
X-20898D01*
X-20332Y-103412D01*
X-19955Y-103789D01*
Y-104166D01*
X-20144Y-104543D01*
X-20332Y-104732D01*
X-20709Y-104920D01*
X-21840Y-105297D01*
X-22217Y-105485D01*
X-22406Y-105674D01*
X-22594Y-106051D01*
Y-106617D01*
X-22217Y-106994D01*
X-21652Y-107182D01*
X-20898D01*
X-20332Y-106994D01*
X-19955Y-106617D01*
M02*
