M48
;Layer_Color=9474304
;FILE_FORMAT=4:4
METRIC,LZ
;TYPE=PLATED
T1F00S00C0.2500
T2F00S00C0.3000
T4F00S00C0.9000
T5F00S00C1.5000
;TYPE=NON_PLATED
T6F00S00C0.9000
%
T01
X00215Y00044
X00221Y00087
X0021001Y00100505
X00214Y00117
X002165Y0012325
X00224Y0012525
X00217Y00136
X0021775Y0014975
X00217Y001565
X00217Y00166
X00225Y00148
X00248Y00125
X00271Y0012475
X00287696Y00125
X0029Y00131
X00283Y00131
X00289999Y00138
X00280999Y00143
X0027Y00142
X0027875Y0015525
X0029Y00156
X0029275Y00167
X003
X00284999Y00167
X00299Y00126
X00294999Y0012
X00295Y0011
X00301001Y001086
X00307Y00097
X00309Y00091
X00307999Y00082
X00313999Y00084
X00312Y00067
X00305999Y00068
X00306999Y00062
X00319999Y00043
X00332Y00012
X00358566Y00016
X00353267Y00061
X00381Y00066
X00375Y00087
Y00093
Y00099
X00374Y00106
X00368Y00105
X00367999Y00112
X00363485Y00097
X00365Y00091
X00366Y00085
X00355814Y000917
X00359Y00101
X0035Y00102
X00344999Y00114
X003423Y0012
X003561Y001201
X003464Y00137915
X00343Y00143
X00342Y0013383
X003316Y00139
X00326016Y00135757
X0032525Y00142
X0032Y00146
X00339Y00156
X00358
X00369Y00151
X00369518Y00143757
X00376Y00144
Y0015
X00367Y00168
X00352Y00184
X00345
X0033375Y0012585
X00326Y00114
X00325999Y00108
X00333Y00106
X00336999Y00092
X003141Y001204
X00283Y00095
X00247762Y00094755
X003843Y001155
X00388019Y00114256
X004003Y00156
X00205Y0016106
X00208Y00146
X0020208Y00137
X0020176Y00125506
X0019308Y001332
X0018446
Y0014116
X0017646
X0018408Y00149
X0019208
X0018446Y0015716
Y0017316
X0017646
Y0018116
X00168Y00181
X00161Y00181
X00153177Y0018116
X00145Y00181
X00136
X0013646Y0016516
Y0015716
X0012846
Y0016516
X00113Y0016516
X00112Y00173
X00105Y00173
X0012046Y0017316
Y0015716
X00114Y0014775
X0012046Y0014116
X0012846
Y0013316
Y0012516
X0013646
X0014408Y00125
Y0011716
X0014446Y0013316
X0013646
Y0014116
X0014446
X0016046
X0016358Y001495
X0015908Y0015854
X0015208Y00158
X0014508
X0015208Y00173
X0016846Y0017316
Y0016516
Y0013316
X00168508Y00117506
X0017646Y0011716
Y0012516
X0018446
Y0011716
X0018038Y001
X0017236
X00170221Y000942
X0016208Y0009544
X00162Y000894
X00168Y00109
X0016046Y0012516
X0012046
Y0011816
X0011266Y00118
X0012769Y00116674
X0012846Y0010916
X0013108Y00085
X00091004Y00082254
X00095Y000765
X00092Y0007225
Y00068
X0008808Y00101
X0007608Y0013
X00099Y00186
X00203Y0019
X00204Y0018116
X0020625Y0011275
X00199Y00098
X0019Y001
X0018508Y00093
X00208Y00092
X00208Y00202
X00202Y00205
X00203Y00198
X0017646Y00201
X001649Y00203215
X00144Y00204
X00135
X00129Y00204
X00123Y00201
X00114Y00202
X0010308Y00199
X00139Y00212
X00153Y00217
X00156Y00235
X00168Y00246
X00179Y00237
X00137Y00239
X00216Y00207
X00312Y00204
X00312Y00204
X00345Y00212
X00349
X00343999Y00246
T02
X0022908Y00043
X0023908
X0025208
X0026308
X0027308
X00290611Y00042544
X00295834
X0031945Y00050743
X00317438Y00070999
X00320999Y00092
X00314Y00127
X00357
X00389999Y0013
X00387999Y00134
X00397Y001445
X00397Y00149966
X00396Y00165
X00391
Y00173
X00397Y00175
X00367
X0031825Y0016975
X00288999Y00184
X00273799Y001848
X00274Y00171
X0024783Y001654
Y00178
Y00183
X00224011Y0018425
Y00178759
X0022408Y00166
X00247762Y00147007
X0024799Y001121
X002475Y00099
X00271
X0027108Y0009406
X00273Y00081
X00282
X0026951Y0006625
X0026308Y00067
X0025208
X0023908
X00231999Y00067
X00218Y00067
X00223Y00094
X00223Y00099
X002235Y0011225
X0027108Y001121
X00259Y00035
X00285Y00015455
X00338Y00018
X00335Y0003
X00357Y00034
X00362
X00367Y00052
X00387Y0006175
X00392Y00062
X00398999Y00039
X00386999Y0009
Y00096
X00333999Y00062
X0019808Y00074
X0019008Y00073
X0018408
X0018608Y00068
X0018708Y00042
X0017908
X001718Y000398
X0015508Y00045
X0014808
X0014008
X0014408Y00058
X0014808Y00075
X00153
X00158Y00074
X00110505Y00081004
X00108594Y00089593
X0011308Y00057
X00079Y0002
X00051Y00013
X00039Y00009
X00054Y00037
X00048243Y00074764
Y0007975
X000535Y0008025
X0005308Y00088
Y00094
Y001
X0005508Y00109
X0005808Y00114
X0005208
X0006708Y00156
X0006908Y00162
X0009368Y00159
X00100144Y0015595
X00009Y0017
X0001808Y00078
X00194Y000375
X00208Y00031
Y00026
X00132Y00212
X00127Y00238
X00108Y00221
X0007508Y00209
X000655Y0020875
X0005808Y00214
X0003708Y0021
X00028Y00209
X00023Y00241
X0008475Y00197
X0024Y0019275
X002445Y001955
X00271Y00192
X0027Y00204
X00277999
X00287198Y00237646
X002574Y00234146
X00335Y00231
X00332999Y00192
X00319Y00202
X00367
X00387Y00207
X00393
T04
X00221Y000254
X002464
X002718
X002972
X003226
X00348
X001956
X001702
X001448
X001194
X00094
X000686
X000432
X000178
Y002286
X000432
X000686
X00094
X001194
X001448
X001702
X001956
X00221
X002464
X002718
X002972
X003226
X00348
T05
X0038608Y0002032
X0002286Y0005588
X0038608Y0023368
T06
X0002108Y00183
Y0020332
X0007188Y0019316
M30
